<svg width="120" height="40" viewBox="0 0 120 40" fill="none" xmlns="http://www.w3.org/2000/svg">
<g clip-path="url(#clip0)">
<path d="M110.135 0H9.53468C9.16798 0 8.80568 2.32831e-10 8.43995 0.00213C8.1338 0.00413 7.83009 0.00994 7.521 0.01483C6.84951 0.0227318 6.17961 0.0818063 5.5171 0.19154C4.85552 0.303663 4.21467 0.515046 3.61622 0.81854C3.0185 1.1246 2.47235 1.5223 1.99757 1.9972C1.5203 2.47077 1.12246 3.01815 0.81935 3.61829C0.5154 4.21724 0.304641 4.85907 0.19435 5.52161C0.0830109 6.18332 0.0230984 6.85265 0.01515 7.52361C0.00587 7.83021 0.00489 8.13783 0 8.44447V31.5587C0.00489 31.8692 0.00587 32.17 0.01515 32.4806C0.0231008 33.1516 0.0830134 33.8209 0.19435 34.4825C0.304336 35.1455 0.515108 35.7877 0.81935 36.3868C1.12233 36.985 1.52022 37.5302 1.99757 38.0011C2.47054 38.4781 3.01705 38.8761 3.61622 39.1798C4.21467 39.4841 4.85545 39.6968 5.5171 39.8106C6.17972 39.9195 6.84956 39.9786 7.521 39.9874C7.83009 39.9942 8.1338 39.9981 8.43995 39.9981C8.80567 40.0001 9.168 40.0001 9.53468 40.0001H110.135C110.494 40.0001 110.859 40.0001 111.219 39.9981C111.523 39.9981 111.836 39.9942 112.141 39.9874C112.811 39.9791 113.479 39.92 114.141 39.8106C114.804 39.696 115.448 39.4834 116.049 39.1798C116.647 38.8759 117.193 38.478 117.666 38.0011C118.142 37.5284 118.541 36.9836 118.848 36.3868C119.15 35.7872 119.358 35.1451 119.467 34.4825C119.578 33.8208 119.64 33.1516 119.652 32.4806C119.656 32.17 119.656 31.8692 119.656 31.5587C119.664 31.1954 119.664 30.8341 119.664 30.4649V9.53626C119.664 9.17005 119.664 8.80677 119.656 8.44447C119.656 8.13783 119.656 7.83021 119.652 7.52357C119.64 6.85255 119.578 6.18337 119.467 5.52157C119.358 4.85941 119.149 4.21763 118.848 3.61825C118.23 2.41533 117.252 1.43616 116.049 0.81845C115.448 0.515697 114.804 0.30437 114.141 0.19145C113.48 0.0812328 112.811 0.0221378 112.141 0.01469C111.836 0.00981 111.523 0.00395 111.219 0.002C110.859 0 110.494 0 110.135 0Z" fill="#A6A6A6"/>
<path d="M8.44487 39.125C8.14019 39.125 7.84287 39.1211 7.54058 39.1143C6.91436 39.1061 6.2896 39.0516 5.67144 38.9512C5.09503 38.8519 4.53664 38.6673 4.0147 38.4033C3.49754 38.1415 3.02585 37.7983 2.6177 37.3867C2.20364 36.98 1.85891 36.5082 1.59719 35.9902C1.33258 35.4688 1.14945 34.9099 1.05419 34.333C0.951311 33.7131 0.895651 33.0863 0.887687 32.458C0.881347 32.2471 0.873047 31.5449 0.873047 31.5449V8.44434C0.873047 8.44434 0.881887 7.75293 0.887737 7.5498C0.895363 6.92248 0.950699 6.29665 1.05327 5.67773C1.14871 5.09925 1.33197 4.53875 1.59673 4.01563C1.85749 3.49794 2.2003 3.02586 2.61187 2.61768C3.02297 2.20562 3.49617 1.8606 4.01421 1.59521C4.53495 1.33209 5.09228 1.14873 5.66753 1.05127C6.28772 0.949836 6.91465 0.894996 7.54304 0.88721L8.44536 0.875H111.214L112.127 0.8877C112.75 0.895099 113.371 0.94945 113.985 1.05029C114.566 1.14898 115.13 1.33362 115.656 1.59814C116.694 2.13299 117.539 2.97916 118.071 4.01807C118.332 4.53758 118.512 5.09351 118.607 5.66699C118.71 6.29099 118.768 6.92174 118.78 7.5542C118.783 7.8374 118.783 8.1416 118.783 8.44434C118.791 8.81934 118.791 9.17627 118.791 9.53613V30.4648C118.791 30.8281 118.791 31.1826 118.783 31.54C118.783 31.8652 118.783 32.1631 118.779 32.4697C118.768 33.0909 118.711 33.7104 118.608 34.3232C118.515 34.9043 118.333 35.4675 118.068 35.9932C117.805 36.5056 117.462 36.9733 117.053 37.3789C116.644 37.7927 116.172 38.1379 115.653 38.4014C115.128 38.6674 114.566 38.8527 113.985 38.9512C113.367 39.0522 112.742 39.1067 112.116 39.1143C111.823 39.1211 111.517 39.125 111.219 39.125L110.135 39.127L8.44487 39.125Z" fill="black"/>
<path d="M24.7689 20.3011C24.7907 18.6046 25.6801 17.0376 27.1254 16.1491C26.2095 14.841 24.7304 14.0413 23.1343 13.9914C21.455 13.8151 19.8271 14.9962 18.9714 14.9962C18.0991 14.9962 16.7816 14.0089 15.3629 14.0381C13.4962 14.0984 11.7981 15.134 10.89 16.7659C8.95595 20.1144 10.3985 25.0354 12.2511 27.742C13.178 29.0674 14.2613 30.5478 15.6788 30.4953C17.0658 30.4378 17.5839 29.6108 19.2582 29.6108C20.9169 29.6108 21.403 30.4953 22.8492 30.4619C24.3376 30.4378 25.2753 29.1307 26.1697 27.7928C26.8357 26.8484 27.3481 25.8047 27.6881 24.7003C25.9204 23.9526 24.7709 22.2205 24.7689 20.3011ZM22.0372 12.2113C22.8488 11.2371 23.2486 9.98494 23.1518 8.7207C21.9119 8.85092 20.7667 9.44348 19.9442 10.3803C19.542 10.838 19.234 11.3704 19.0378 11.9472C18.8416 12.524 18.7609 13.1337 18.8005 13.7417C20.0569 13.7546 21.2499 13.1906 22.0372 12.2113Z" fill="white"/>
<path d="M42.3022 27.1397H37.5688L36.4321 30.4962H34.4272L38.9106 18.0782H40.9936L45.477 30.4962H43.438L42.3022 27.1397ZM38.0591 25.5909H41.8111L39.9615 20.1436H39.9097L38.0591 25.5909ZM55.1597 25.9698C55.1597 28.7833 53.6538 30.5909 51.3813 30.5909C50.2067 30.6523 49.1003 30.0371 48.5327 29.0069H48.4897V33.4913H46.6313V21.4424H48.4302V22.9483H48.4644C49.0572 21.9245 50.1648 21.3096 51.3472 21.3477C53.645 21.3477 55.1597 23.1641 55.1597 25.9698ZM53.2495 25.9698C53.2495 24.1368 52.3022 22.9317 50.8569 22.9317C49.437 22.9317 48.4819 24.1622 48.4819 25.9698C48.4819 27.794 49.437 29.0157 50.8569 29.0157C52.3022 29.0157 53.2495 27.8194 53.2495 25.9698ZM65.1245 25.9698C65.1245 28.7833 63.6186 30.5909 61.3462 30.5909C60.1716 30.6523 59.0651 30.0371 58.4976 29.0069H58.4546V33.4913H56.5962V21.4424H58.395V22.9483H58.4292C59.022 21.9245 60.1296 21.3096 61.312 21.3477C63.6099 21.3477 65.1245 23.1641 65.1245 25.9698ZM63.2144 25.9698C63.2144 24.1368 62.2671 22.9317 60.8218 22.9317C59.4018 22.9317 58.4468 24.1622 58.4468 25.9698C58.4468 27.794 59.4018 29.0157 60.8218 29.0157C62.2671 29.0157 63.2144 27.8194 63.2144 25.9698ZM71.7104 27.0362C71.8481 28.2676 73.0444 29.0762 74.6792 29.0762C76.2456 29.0762 77.3726 28.2676 77.3726 27.1572C77.3726 26.1934 76.6929 25.6162 75.0835 25.2207L73.4741 24.833C71.1939 24.2822 70.1353 23.2158 70.1353 21.4854C70.1353 19.3428 72.0024 17.8711 74.6538 17.8711C77.2778 17.8711 79.0767 19.3428 79.1372 21.4854H77.2612C77.1489 20.2461 76.1245 19.4981 74.6274 19.4981C73.1303 19.4981 72.1059 20.2549 72.1059 21.3565C72.1059 22.2344 72.7602 22.751 74.3608 23.1465L75.729 23.4824C78.2768 24.0849 79.3354 25.1084 79.3354 26.9248C79.3354 29.248 77.4848 30.7031 74.5415 30.7031C71.7876 30.7031 69.9282 29.2822 69.8081 27.0361L71.7104 27.0362ZM83.3462 19.2999V21.4424H85.0679V22.9141H83.3462V27.9053C83.3462 28.6807 83.6909 29.042 84.4477 29.042C84.6521 29.0385 84.8562 29.0241 85.0591 28.999V30.4619C84.7188 30.5255 84.3729 30.5543 84.0268 30.5479C82.1938 30.5479 81.479 29.8594 81.479 28.1035V22.9141H80.1626V21.4424H81.479V19.2999H83.3462ZM86.065 25.9698C86.065 23.1212 87.7427 21.3311 90.3589 21.3311C92.9839 21.3311 94.6538 23.1211 94.6538 25.9698C94.6538 28.8262 92.9927 30.6085 90.3589 30.6085C87.7261 30.6085 86.065 28.8262 86.065 25.9698ZM92.7603 25.9698C92.7603 24.0157 91.8648 22.8624 90.3589 22.8624C88.8531 22.8624 87.9585 24.0245 87.9585 25.9698C87.9585 27.9317 88.8531 29.0762 90.3589 29.0762C91.8648 29.0762 92.7603 27.9317 92.7603 25.9698ZM96.186 21.4424H97.9585V22.9834H98.0015C98.2487 21.9914 99.1576 21.3087 100.179 21.3477C100.393 21.3469 100.607 21.3702 100.816 21.417V23.1553C100.546 23.0727 100.264 23.0348 99.9809 23.043C99.711 23.0321 99.4418 23.0797 99.192 23.1825C98.9421 23.2854 98.7175 23.4412 98.5335 23.6391C98.3496 23.8369 98.2106 24.0723 98.1262 24.329C98.0417 24.5856 98.0139 24.8575 98.0444 25.126V30.4961H96.186V21.4424ZM109.384 27.837C109.134 29.4805 107.534 30.6084 105.486 30.6084C102.852 30.6084 101.217 28.8438 101.217 26.0127C101.217 23.1729 102.861 21.3311 105.408 21.3311C107.913 21.3311 109.488 23.0518 109.488 25.7969V26.4336H103.093V26.5459C103.064 26.8791 103.105 27.2148 103.216 27.5307C103.326 27.8465 103.502 28.1353 103.732 28.3778C103.963 28.6204 104.242 28.8111 104.552 28.9374C104.861 29.0637 105.195 29.1227 105.529 29.1104C106.431 29.1949 107.281 28.677 107.62 27.837L109.384 27.837ZM103.102 25.1348H107.628C107.645 24.8352 107.6 24.5354 107.495 24.2542C107.39 23.973 107.229 23.7165 107.02 23.5007C106.812 23.2849 106.561 23.1146 106.283 23.0004C106.006 22.8861 105.708 22.8305 105.408 22.837C105.105 22.8352 104.805 22.8933 104.525 23.008C104.245 23.1228 103.99 23.2919 103.776 23.5055C103.562 23.7191 103.392 23.9731 103.276 24.2527C103.16 24.5324 103.101 24.8322 103.102 25.1348Z" fill="white"/>
<path d="M37.8262 8.7315C38.2158 8.70354 38.6067 8.7624 38.9709 8.90383C39.335 9.04527 39.6632 9.26575 39.9317 9.54937C40.2003 9.833 40.4026 10.1727 40.524 10.544C40.6454 10.9152 40.6829 11.3088 40.6338 11.6963C40.6338 13.6026 39.6035 14.6983 37.8262 14.6983H35.6709V8.7315H37.8262ZM36.5976 13.8545H37.7226C38.0011 13.8711 38.2797 13.8255 38.5382 13.7209C38.7967 13.6163 39.0287 13.4553 39.2172 13.2498C39.4057 13.0442 39.546 12.7992 39.6278 12.5326C39.7097 12.2659 39.7311 11.9844 39.6904 11.7085C39.7281 11.4337 39.7046 11.1539 39.6215 10.8892C39.5383 10.6246 39.3977 10.3816 39.2096 10.1776C39.0216 9.9737 38.7907 9.8139 38.5337 9.70966C38.2766 9.60542 37.9996 9.55934 37.7226 9.57471H36.5976V13.8545ZM41.6807 12.4448C41.6034 11.6377 41.9905 10.8566 42.6794 10.4291C43.3683 10.0016 44.2401 10.0016 44.929 10.4291C45.6179 10.8566 46.0049 11.6377 45.9277 12.4448C46.0064 13.2528 45.6197 14.0354 44.9302 14.4639C44.2407 14.8923 43.3677 14.8923 42.6782 14.4639C41.9886 14.0354 41.602 13.2528 41.6807 12.4448ZM45.0137 12.4448C45.0137 11.4688 44.5752 10.898 43.8057 10.898C43.0332 10.898 42.5987 11.4688 42.5987 12.4448C42.5987 13.4287 43.0332 13.9951 43.8057 13.9951C44.5752 13.9951 45.0137 13.4248 45.0137 12.4448ZM51.5732 14.6982H50.6514L49.7207 11.3818H49.6504L48.7236 14.6982H47.8105L46.5693 10.1953H47.4707L48.2773 13.6313H48.3438L49.2695 10.1953H50.1221L51.0479 13.6313H51.1182L51.9209 10.1953H52.8096L51.5732 14.6982ZM53.8535 10.1953H54.709V10.9106H54.7754C55.0063 10.384 55.5459 10.0618 56.1191 10.1084C56.3382 10.0919 56.5582 10.125 56.7628 10.2051C56.9674 10.2852 57.1514 10.4103 57.3011 10.5711C57.4508 10.7319 57.5623 10.9244 57.6275 11.1342C57.6927 11.344 57.7099 11.5658 57.6777 11.7832V14.6982H56.7891V12.0064C56.7891 11.2827 56.4746 10.9229 55.8174 10.9229C55.6686 10.9159 55.5201 10.9412 55.3821 10.9971C55.244 11.0529 55.1197 11.1379 55.0175 11.2463C54.9154 11.3547 54.8379 11.4839 54.7904 11.625C54.7429 11.7661 54.7264 11.9159 54.7422 12.064V14.6982H53.8535V10.1953ZM59.0937 8.4375H59.9824V14.6982H59.0937V8.4375ZM61.2178 12.4448C61.1406 11.6377 61.5277 10.8565 62.2167 10.429C62.9057 10.0015 63.7774 10.0015 64.4664 10.429C65.1554 10.8565 65.5425 11.6377 65.4653 12.4448C65.5439 13.2528 65.1572 14.0355 64.4676 14.4639C63.778 14.8923 62.9051 14.8923 62.2155 14.4639C61.5259 14.0355 61.1392 13.2528 61.2178 12.4448ZM64.5508 12.4448C64.5508 11.4688 64.1123 10.898 63.3428 10.898C62.5703 10.898 62.1358 11.4688 62.1358 12.4448C62.1358 13.4287 62.5703 13.9951 63.3428 13.9951C64.1123 13.9951 64.5508 13.4248 64.5508 12.4448ZM66.4009 13.4248C66.4009 12.6143 67.0044 12.147 68.0757 12.0806L69.2954 12.0103V11.6216C69.2954 11.146 68.981 10.8775 68.3735 10.8775C67.8774 10.8775 67.5337 11.0596 67.4351 11.3779H66.5747C66.6655 10.6045 67.3931 10.1084 68.4146 10.1084C69.5435 10.1084 70.1802 10.6704 70.1802 11.6216V14.6983H69.3247V14.0654H69.2544C68.9638 14.5276 68.4471 14.7977 67.9019 14.7724C67.7128 14.7921 67.5218 14.7719 67.341 14.7132C67.1602 14.6545 66.9938 14.5586 66.8524 14.4317C66.711 14.3047 66.5977 14.1495 66.52 13.9761C66.4422 13.8027 66.4016 13.6149 66.4009 13.4248ZM69.2954 13.04V12.6636L68.1958 12.7339C67.5757 12.7754 67.2944 12.9863 67.2944 13.3833C67.2944 13.7886 67.646 14.0244 68.1294 14.0244C68.2711 14.0388 68.4142 14.0245 68.5502 13.9824C68.6862 13.9403 68.8123 13.8713 68.9211 13.7794C69.0299 13.6876 69.1191 13.5748 69.1834 13.4478C69.2477 13.3207 69.2858 13.1821 69.2954 13.04ZM71.3481 12.4448C71.3481 11.022 72.0796 10.1206 73.2173 10.1206C73.7918 10.0941 74.3298 10.402 74.5981 10.9106H74.6646V8.4375H75.5532V14.6982H74.7017V13.9868H74.6313C74.3427 14.4912 73.798 14.7939 73.2173 14.7724C72.0718 14.7725 71.3481 13.8711 71.3481 12.4448ZM72.2661 12.4448C72.2661 13.3999 72.7163 13.9746 73.4693 13.9746C74.2183 13.9746 74.6812 13.3916 74.6812 12.4487C74.6812 11.5103 74.2134 10.919 73.4693 10.919C72.7212 10.919 72.2661 11.4976 72.2661 12.4448H72.2661ZM79.23 12.4448C79.1528 11.6377 79.5398 10.8566 80.2287 10.4291C80.9176 10.0016 81.7894 10.0016 82.4783 10.4291C83.1672 10.8566 83.5543 11.6377 83.4771 12.4448C83.5557 13.2528 83.1691 14.0354 82.4795 14.4639C81.79 14.8923 80.917 14.8923 80.2275 14.4639C79.538 14.0354 79.1513 13.2528 79.23 12.4448ZM82.563 12.4448C82.563 11.4688 82.1245 10.898 81.355 10.898C80.5825 10.898 80.148 11.4688 80.148 12.4448C80.148 13.4287 80.5826 13.9951 81.355 13.9951C82.1245 13.9951 82.563 13.4248 82.563 12.4448ZM84.6694 10.1953H85.5249V10.9106H85.5913C85.8222 10.384 86.3619 10.0618 86.9351 10.1084C87.1542 10.0919 87.3742 10.125 87.5788 10.2051C87.7833 10.2852 87.9673 10.4103 88.117 10.5711C88.2667 10.7319 88.3783 10.9244 88.4435 11.1342C88.5087 11.344 88.5258 11.5658 88.4936 11.7832V14.6982H87.605V12.0064C87.605 11.2827 87.2905 10.9229 86.6333 10.9229C86.4845 10.9159 86.336 10.9412 86.198 10.9971C86.0599 11.0529 85.9356 11.1379 85.8335 11.2463C85.7313 11.3547 85.6538 11.4839 85.6063 11.625C85.5588 11.7661 85.5423 11.9159 85.5581 12.064V14.6982H84.6694V10.1953ZM93.5151 9.07423V10.2158H94.4907V10.9644H93.5151V13.2798C93.5151 13.7515 93.7095 13.958 94.1519 13.958C94.2651 13.9577 94.3783 13.9508 94.4907 13.9375V14.6777C94.3311 14.7063 94.1694 14.7215 94.0073 14.7231C93.019 14.7231 92.6255 14.3755 92.6255 13.5073V10.9643H91.9106V10.2158H92.6255V9.07423H93.5151ZM95.7046 8.4375H96.5854V10.919H96.6558C96.8978 10.3877 97.4469 10.0651 98.0288 10.1123C98.2467 10.1004 98.4646 10.1368 98.6669 10.2189C98.8692 10.3009 99.0508 10.4266 99.199 10.5869C99.3471 10.7473 99.458 10.9383 99.5238 11.1465C99.5896 11.3546 99.6086 11.5747 99.5795 11.791V14.6982H98.69V12.0103C98.69 11.291 98.355 10.9268 97.7271 10.9268C97.5743 10.9142 97.4207 10.9352 97.2769 10.9883C97.1332 11.0413 97.0027 11.1252 96.8947 11.2339C96.7867 11.3426 96.7038 11.4737 96.6517 11.6178C96.5997 11.7619 96.5797 11.9157 96.5933 12.0683V14.6982H95.7046L95.7046 8.4375ZM104.761 13.4824C104.512 14.3318 103.69 14.8806 102.81 14.7852C102.513 14.793 102.219 14.7362 101.946 14.6186C101.674 14.5011 101.43 14.3257 101.232 14.1046C101.034 13.8834 100.887 13.6219 100.8 13.338C100.713 13.0542 100.689 12.7549 100.73 12.4609C100.69 12.1661 100.715 11.8661 100.801 11.5815C100.888 11.2968 101.034 11.034 101.231 10.8109C101.428 10.5879 101.671 10.4097 101.942 10.2885C102.214 10.1673 102.509 10.1059 102.806 10.1084C104.059 10.1084 104.815 10.9644 104.815 12.3784V12.6885H101.635V12.7383C101.621 12.9035 101.642 13.0699 101.696 13.2266C101.75 13.3834 101.837 13.5271 101.95 13.6485C102.062 13.77 102.199 13.8665 102.352 13.9319C102.504 13.9973 102.669 14.0301 102.834 14.0283C103.269 14.0805 103.692 13.8648 103.906 13.4824L104.761 13.4824ZM101.635 12.0313H103.91C103.921 11.8801 103.9 11.7283 103.849 11.5856C103.798 11.4429 103.718 11.3124 103.614 11.2026C103.509 11.0927 103.383 11.0059 103.243 10.9477C103.103 10.8895 102.953 10.8613 102.801 10.8648C102.648 10.8628 102.495 10.8917 102.353 10.9496C102.21 11.0076 102.081 11.0934 101.972 11.2021C101.864 11.3109 101.778 11.4402 101.72 11.5826C101.662 11.725 101.633 11.8776 101.635 12.0313H101.635Z" fill="white"/>
</g>
<defs>
<clipPath id="clip0">
<rect width="120" height="40" fill="white"/>
</clipPath>
</defs>
</svg>
