<svg width="135" height="40" viewBox="0 0 135 40" fill="none" xmlns="http://www.w3.org/2000/svg">
<path d="M130 0H5C2.23858 0 0 2.23858 0 5V35C0 37.7614 2.23858 40 5 40H130C132.761 40 135 37.7614 135 35V5C135 2.23858 132.761 0 130 0Z" fill="black"/>
<path d="M130 0.8C132.32 0.8 134.2 2.6804 134.2 5V35C134.2 37.3196 132.32 39.2 130 39.2H5C2.6804 39.2 0.8 37.3196 0.8 35V5C0.8 2.6804 2.6804 0.8 5 0.8H130ZM130 0H5C2.23858 0 0 2.23858 0 5V35C0 37.7614 2.23858 40 5 40H130C132.761 40 135 37.7614 135 35V5C135 2.23858 132.761 0 130 0Z" fill="#A6A6A6"/>
<path d="M47.42 10.2395C47.437 10.6063 47.3793 10.9727 47.2504 11.3165C47.1215 11.6603 46.924 11.9743 46.67 12.2395C46.3864 12.5341 46.044 12.7656 45.6649 12.9189C45.2858 13.0723 44.8787 13.144 44.47 13.1295C43.2024 13.1196 42.0642 12.3507 41.5817 11.1784C41.0993 10.0061 41.3666 8.6588 42.26 7.75948C42.5472 7.46627 42.8916 7.2351 43.2717 7.0803C43.6518 6.92549 44.0597 6.85034 44.47 6.85948C44.8928 6.85807 45.3114 6.94315 45.7 7.10948C46.0619 7.25544 46.384 7.48504 46.64 7.77948L46.11 8.30948C45.9104 8.07208 45.6584 7.88434 45.3737 7.76112C45.0891 7.6379 44.7797 7.58256 44.47 7.59948C44.1577 7.59795 43.8482 7.65951 43.5602 7.78047C43.2723 7.90143 43.0117 8.0793 42.7941 8.30342C42.5765 8.52754 42.4064 8.79329 42.294 9.08473C42.1816 9.37617 42.1293 9.68731 42.14 9.99948C42.1266 10.9527 42.688 11.8203 43.563 12.1987C44.4379 12.5772 45.4546 12.392 46.14 11.7295C46.4477 11.396 46.6252 10.963 46.64 10.5095H44.47V9.78948H47.38C47.4067 9.938 47.4201 10.0886 47.42 10.2395ZM52 7.73948H49.3V9.63948H51.76V10.3595H49.3V12.2595H52V12.9995H48.5V6.99948H52V7.73948ZM55.28 12.9995H54.51V7.73948H52.83V6.99948H57V7.73948H55.28V12.9995ZM59.94 12.9995V6.99948H60.71V12.9995H59.94ZM64.13 12.9995H63.36V7.73948H61.68V6.99948H65.8V7.73948H64.13V12.9995ZM73.61 12.2195C72.393 13.4297 70.427 13.4297 69.21 12.2195C68.0303 10.9707 68.0303 9.01825 69.21 7.76948C69.4982 7.47923 69.8409 7.24886 70.2185 7.09165C70.5961 6.93445 71.001 6.85352 71.41 6.85352C71.819 6.85352 72.224 6.93445 72.6016 7.09165C72.9791 7.24886 73.3219 7.47923 73.61 7.76948C74.7948 9.01624 74.7948 10.9727 73.61 12.2195ZM69.78 11.7195C70.6814 12.6171 72.1387 12.6171 73.04 11.7195C73.9252 10.7437 73.9252 9.25531 73.04 8.27948C72.1387 7.38191 70.6814 7.38191 69.78 8.27948C68.8948 9.25531 68.8948 10.7437 69.78 11.7195ZM75.58 12.9995V6.99948H76.52L79.44 11.6695V6.99948H80.21V12.9995H79.41L76.36 8.10948V12.9995H75.58Z" fill="white" stroke="white" stroke-width="0.2"/>
<path d="M68.14 21.7492C65.7954 21.7602 63.9027 23.6678 63.91 26.0124C63.9174 28.357 65.822 30.2528 68.1666 30.2491C70.5112 30.2455 72.41 28.3438 72.41 25.9992C72.4181 25.4371 72.3131 24.8791 72.1012 24.3585C71.8892 23.8379 71.5746 23.3652 71.1762 22.9687C70.7778 22.5721 70.3037 22.2598 69.7821 22.0503C69.2604 21.8408 68.702 21.7384 68.14 21.7492ZM68.14 28.5792C67.0832 28.6531 66.0886 28.0735 65.632 27.1176C65.1754 26.1617 65.3494 25.0238 66.0709 24.2482C66.7925 23.4726 67.9148 23.2168 68.9012 23.6032C69.8875 23.9897 70.5374 24.9398 70.54 25.9992C70.5561 26.3272 70.5064 26.6551 70.3937 26.9636C70.2811 27.2721 70.1078 27.5549 69.8841 27.7953C69.6604 28.0358 69.3909 28.229 69.0913 28.3636C68.7918 28.4983 68.4683 28.5715 68.14 28.5792ZM58.83 21.7492C56.4841 21.7547 54.5863 23.6599 54.59 26.0058C54.5937 28.3517 56.4974 30.251 58.8433 30.2492C61.1892 30.2473 63.09 28.3451 63.09 25.9992C63.0981 25.4371 62.9931 24.8791 62.7812 24.3585C62.5692 23.8379 62.2546 23.3652 61.8562 22.9687C61.4578 22.5721 60.9837 22.2598 60.4621 22.0503C59.9404 21.8408 59.382 21.7384 58.82 21.7492H58.83ZM58.83 28.5792C57.7727 28.6572 56.7752 28.0805 56.3153 27.1253C55.8555 26.17 56.0268 25.0306 56.7473 24.2529C57.4678 23.4751 58.5907 23.2173 59.5783 23.6029C60.5659 23.9885 61.2171 24.939 61.22 25.9992C61.2361 26.3272 61.1864 26.6551 61.0737 26.9636C60.9611 27.2721 60.7878 27.5549 60.5641 27.7953C60.3404 28.0358 60.0709 28.229 59.7713 28.3636C59.4718 28.4983 59.1483 28.5715 58.82 28.5792H58.83ZM47.74 23.0592V24.8592H52.06C51.9922 25.707 51.6398 26.507 51.06 27.1292C50.186 28.0194 48.9765 28.4988 47.73 28.4492C45.079 28.4492 42.93 26.3001 42.93 23.6492C42.93 20.9982 45.079 18.8492 47.73 18.8492C48.9478 18.8293 50.1237 19.2932 51 20.1392L52.27 18.8692C51.0749 17.659 49.4407 16.9844 47.74 16.9992C45.3189 16.9049 43.0404 18.1428 41.8018 20.2252C40.5633 22.3076 40.5633 24.9007 41.8018 26.9831C43.0404 29.0655 45.3189 30.3034 47.74 30.2092C49.4717 30.2874 51.1527 29.6128 52.35 28.3592C53.3977 27.2081 53.957 25.6949 53.91 24.1392C53.9132 23.7601 53.8797 23.3817 53.81 23.0092L47.74 23.0592ZM93.05 24.4592C92.5161 22.8884 91.0679 21.8102 89.41 21.7492C88.863 21.7481 88.3216 21.8592 87.8192 22.0757C87.3169 22.2922 86.8643 22.6094 86.4894 23.0077C86.1145 23.406 85.8253 23.877 85.6396 24.3916C85.4539 24.9061 85.3758 25.4532 85.41 25.9992C85.3978 26.5581 85.4984 27.1137 85.7058 27.6329C85.9132 28.152 86.2231 28.624 86.617 29.0207C87.0109 29.4174 87.4808 29.7307 87.9984 29.9417C88.5161 30.1528 89.071 30.2574 89.63 30.2492C91.0508 30.2568 92.3806 29.5506 93.17 28.3692L91.72 27.3692C91.2797 28.1031 90.4858 28.5513 89.63 28.5492C88.7436 28.5829 87.9266 28.0714 87.57 27.2592L93.26 24.9092L93.05 24.4592ZM87.25 25.8792C87.2297 25.5699 87.2714 25.2596 87.3725 24.9666C87.4736 24.6736 87.6322 24.4037 87.8389 24.1728C88.0457 23.9418 88.2964 23.7544 88.5765 23.6216C88.8566 23.4887 89.1603 23.4131 89.47 23.3992C90.1294 23.3557 90.7511 23.7098 91.05 24.2992L87.25 25.8792ZM82.63 29.9992H84.5V17.4992H82.63V29.9992ZM79.57 22.6992H79.5C79.2181 22.3841 78.8729 22.1321 78.4869 21.9597C78.1008 21.7874 77.6827 21.6986 77.26 21.6992C74.9901 21.8092 73.2063 23.6816 73.2063 25.9542C73.2063 28.2267 74.9901 30.0991 77.26 30.2092C77.6837 30.2163 78.1039 30.1304 78.4909 29.9577C78.8779 29.7849 79.2224 29.5294 79.5 29.2092H79.56V29.8192C79.56 31.4492 78.69 32.3192 77.29 32.3192C76.3363 32.2968 75.4907 31.7002 75.15 30.8092L73.52 31.4892C74.1477 33.016 75.6392 34.009 77.29 33.9992C79.48 33.9992 81.29 32.7092 81.29 29.5692V21.9992H79.57V22.6992ZM77.43 28.5792C76.0929 28.4613 75.0674 27.3415 75.0674 25.9992C75.0674 24.6569 76.0929 23.537 77.43 23.4192C77.7498 23.4356 78.0631 23.5158 78.3514 23.6552C78.6398 23.7946 78.8973 23.9902 79.1088 24.2307C79.3204 24.4711 79.4817 24.7514 79.5832 25.0552C79.6847 25.3589 79.7244 25.6798 79.7 25.9992C79.7273 26.3199 79.6892 26.6427 79.5881 26.9483C79.4871 27.2539 79.3251 27.5358 79.1119 27.7769C78.8988 28.0181 78.639 28.2136 78.3482 28.3514C78.0574 28.4893 77.7416 28.5668 77.42 28.5792H77.43ZM101.81 17.4992H97.34V29.9992H99.21V25.2592H101.82C103.273 25.3635 104.662 24.6477 105.42 23.4041C106.178 22.1606 106.178 20.5977 105.42 19.3542C104.662 18.1107 103.273 17.3948 101.82 17.4992H101.81ZM101.81 23.4992H99.2V19.2392H101.85C103.035 19.2392 103.995 20.1995 103.995 21.3842C103.995 22.5688 103.035 23.5292 101.85 23.5292L101.81 23.4992ZM113.34 21.6992C111.949 21.616 110.641 22.3663 110.01 23.6092L111.67 24.2992C112.004 23.6828 112.671 23.322 113.37 23.3792C113.607 23.3514 113.848 23.3713 114.078 23.4375C114.307 23.5037 114.521 23.615 114.708 23.7649C114.894 23.9147 115.048 24.1002 115.162 24.3104C115.276 24.5206 115.346 24.7513 115.37 24.9892V25.1192C114.769 24.8012 114.1 24.6363 113.42 24.6392C111.63 24.6392 109.82 25.6392 109.82 27.4492C109.838 27.8351 109.933 28.2136 110.099 28.5622C110.265 28.9109 110.5 29.2226 110.789 29.479C111.078 29.7353 111.416 29.9312 111.782 30.0549C112.148 30.1786 112.535 30.2276 112.92 30.1992C113.879 30.268 114.8 29.8079 115.32 28.9992H115.38V29.9992H117.18V25.1892C117.18 22.9992 115.52 21.7292 113.39 21.7292L113.34 21.6992ZM113.11 28.5492C112.5 28.5492 111.65 28.2392 111.65 27.4892C111.65 26.4892 112.71 26.1592 113.65 26.1592C114.244 26.1445 114.831 26.2895 115.35 26.5792C115.221 27.6986 114.286 28.5517 113.16 28.5792L113.11 28.5492ZM123.74 21.9992L121.6 27.4192H121.54L119.32 21.9992H117.32L120.65 29.5792L118.75 33.7892H120.7L125.82 21.9992H123.74ZM106.93 29.9992H108.8V17.4992H106.93V29.9992Z" fill="white"/>
<path d="M10.44 7.5407C10.1141 7.93181 9.94958 8.4325 9.98002 8.9407V31.0607C9.94958 31.5689 10.1141 32.0696 10.44 32.4607L10.51 32.5307L22.9 20.1507V19.8607L10.51 7.4707L10.44 7.5407Z" fill="url(#paint0_linear)"/>
<path d="M27 24.2807L22.9 20.1507V19.8607L27 15.7207L27.09 15.7707L32 18.5607C33.4 19.3507 33.4 20.6507 32 21.4507L27.11 24.2307L27 24.2807Z" fill="url(#paint1_linear)"/>
<path d="M27.1199 24.22L22.8999 20L10.4399 32.46C11.0287 32.9775 11.9024 33.0027 12.5199 32.52L27.1299 24.22" fill="url(#paint2_linear)"/>
<path d="M27.1201 15.7805L12.5101 7.48054C11.8925 6.99781 11.0188 7.02302 10.4301 7.54054L22.9001 20.0005L27.1201 15.7805Z" fill="url(#paint3_linear)"/>
<path opacity="0.2" d="M26.9999 24.1309L12.5099 32.3809C11.917 32.8242 11.1029 32.8242 10.5099 32.3809L10.4399 32.4509L10.5099 32.5209C11.1018 32.9675 11.9181 32.9675 12.5099 32.5209L27.1199 24.2209L26.9999 24.1309Z" fill="black"/>
<path opacity="0.12" d="M10.44 32.32C10.1141 31.9289 9.94958 31.4282 9.98002 30.92V31.07C9.94958 31.5782 10.1141 32.0789 10.44 32.47L10.51 32.4L10.44 32.32ZM32 21.3L27 24.13L27.09 24.22L32 21.44C32.5671 21.1736 32.9485 20.6244 33 20C32.9438 20.2787 32.8244 20.5408 32.6511 20.7662C32.4777 20.9915 32.255 21.1742 32 21.3Z" fill="black"/>
<path opacity="0.25" d="M12.51 7.62043L32 18.7004C32.2549 18.8263 32.4776 19.0089 32.651 19.2343C32.8244 19.4596 32.9437 19.7217 33 20.0004C32.9484 19.376 32.567 18.8268 32 18.5604L12.51 7.48043C11.11 6.69043 9.96997 7.35043 9.96997 8.95043V9.10043C9.99997 7.49043 11.12 6.83043 12.51 7.62043Z" fill="white"/>
<defs>
<linearGradient id="paint0_linear" x1="17.8642" y1="8.7107" x2="7.24287" y2="19.332" gradientUnits="userSpaceOnUse">
<stop stop-color="#00A0FF"/>
<stop offset="0.01" stop-color="#00A1FF"/>
<stop offset="0.26" stop-color="#00BEFF"/>
<stop offset="0.51" stop-color="#00D2FF"/>
<stop offset="0.76" stop-color="#00DFFF"/>
<stop offset="1" stop-color="#00E3FF"/>
</linearGradient>
<linearGradient id="paint1_linear" x1="33.83" y1="20.0007" x2="9.64002" y2="20.0007" gradientUnits="userSpaceOnUse">
<stop stop-color="#FFE000"/>
<stop offset="0.41" stop-color="#FFBD00"/>
<stop offset="0.78" stop-color="#FFA500"/>
<stop offset="1" stop-color="#FF9C00"/>
</linearGradient>
<linearGradient id="paint2_linear" x1="24.8299" y1="23.977" x2="6.6855" y2="42.1134" gradientUnits="userSpaceOnUse">
<stop stop-color="#FF3A44"/>
<stop offset="1" stop-color="#C31162"/>
</linearGradient>
<linearGradient id="paint3_linear" x1="7.30005" y1="5.61255" x2="15.3988" y2="13.7113" gradientUnits="userSpaceOnUse">
<stop stop-color="#32A071"/>
<stop offset="0.07" stop-color="#2DA771"/>
<stop offset="0.48" stop-color="#15CF74"/>
<stop offset="0.8" stop-color="#06E775"/>
<stop offset="1" stop-color="#00F076"/>
</linearGradient>
</defs>
</svg>
