<svg width="38" height="38" viewBox="0 0 38 38" fill="none" xmlns="http://www.w3.org/2000/svg">
<path d="M34.5555 4.06634H31.4444V2.8219C31.4444 2.1618 31.1821 1.52874 30.7154 1.06199C30.2486 0.595229 29.6156 0.333008 28.9555 0.333008C28.2954 0.333008 27.6623 0.595229 27.1956 1.06199C26.7288 1.52874 26.4666 2.1618 26.4666 2.8219V4.06634H21.4888V2.8219C21.4888 2.1618 21.2266 1.52874 20.7598 1.06199C20.2931 0.595229 19.66 0.333008 18.9999 0.333008C18.3398 0.333008 17.7068 0.595229 17.24 1.06199C16.7733 1.52874 16.511 2.1618 16.511 2.8219V4.06634H11.5333V2.8219C11.5333 2.1618 11.271 1.52874 10.8043 1.06199C10.3375 0.595229 9.70446 0.333008 9.04436 0.333008C8.38427 0.333008 7.75121 0.595229 7.28445 1.06199C6.8177 1.52874 6.55547 2.1618 6.55547 2.8219V4.06634H3.44436C2.61925 4.06634 1.82792 4.39412 1.24448 4.97756C0.661029 5.56101 0.333252 6.35233 0.333252 7.17745V32.0663C0.333252 32.8915 0.661029 33.6828 1.24448 34.2662C1.82792 34.8497 2.61925 35.1775 3.44436 35.1775H20.8666C21.0316 35.1775 21.1899 35.1119 21.3066 34.9952C21.4233 34.8785 21.4888 34.7203 21.4888 34.5552C21.4888 34.3902 21.4233 34.2319 21.3066 34.1153C21.1899 33.9986 21.0316 33.933 20.8666 33.933H3.44436C2.94975 33.9315 2.47581 33.7344 2.12606 33.3846C1.77631 33.0349 1.57917 32.561 1.5777 32.0663V12.7775H36.4221V23.3552C36.4221 23.5203 36.4877 23.6785 36.6044 23.7952C36.7211 23.9119 36.8793 23.9775 37.0444 23.9775C37.2094 23.9775 37.3677 23.9119 37.4843 23.7952C37.601 23.6785 37.6666 23.5203 37.6666 23.3552V7.17745C37.6666 6.35233 37.3388 5.56101 36.7554 4.97756C36.1719 4.39412 35.3806 4.06634 34.5555 4.06634ZM27.711 2.8219C27.711 2.49185 27.8421 2.17532 28.0755 1.94194C28.3089 1.70856 28.6254 1.57745 28.9555 1.57745C29.2855 1.57745 29.6021 1.70856 29.8354 1.94194C30.0688 2.17532 30.1999 2.49185 30.1999 2.8219V6.55523C30.1999 6.88528 30.0688 7.20181 29.8354 7.43518C29.6021 7.66856 29.2855 7.79967 28.9555 7.79967C28.6254 7.79967 28.3089 7.66856 28.0755 7.43518C27.8421 7.20181 27.711 6.88528 27.711 6.55523V2.8219ZM17.7555 2.8219C17.7555 2.49185 17.8866 2.17532 18.12 1.94194C18.3533 1.70856 18.6699 1.57745 18.9999 1.57745C19.33 1.57745 19.6465 1.70856 19.8799 1.94194C20.1133 2.17532 20.2444 2.49185 20.2444 2.8219V6.55523C20.2444 6.88528 20.1133 7.20181 19.8799 7.43518C19.6465 7.66856 19.33 7.79967 18.9999 7.79967C18.6699 7.79967 18.3533 7.66856 18.12 7.43518C17.8866 7.20181 17.7555 6.88528 17.7555 6.55523V2.8219ZM7.79992 2.8219C7.79992 2.49185 7.93103 2.17532 8.16441 1.94194C8.39779 1.70856 8.71432 1.57745 9.04436 1.57745C9.37441 1.57745 9.69094 1.70856 9.92432 1.94194C10.1577 2.17532 10.2888 2.49185 10.2888 2.8219V6.55523C10.2888 6.88528 10.1577 7.20181 9.92432 7.43518C9.69094 7.66856 9.37441 7.79967 9.04436 7.79967C8.71432 7.79967 8.39779 7.66856 8.16441 7.43518C7.93103 7.20181 7.79992 6.88528 7.79992 6.55523V2.8219ZM36.4221 11.533H1.5777V7.17745C1.57917 6.68284 1.77631 6.2089 2.12606 5.85915C2.47581 5.5094 2.94975 5.31226 3.44436 5.31079H6.55547V6.55523C6.55547 7.21532 6.8177 7.84838 7.28445 8.31514C7.75121 8.7819 8.38427 9.04412 9.04436 9.04412C9.70446 9.04412 10.3375 8.7819 10.8043 8.31514C11.271 7.84838 11.5333 7.21532 11.5333 6.55523V5.31079H16.511V6.55523C16.511 7.21532 16.7733 7.84838 17.24 8.31514C17.7068 8.7819 18.3398 9.04412 18.9999 9.04412C19.66 9.04412 20.2931 8.7819 20.7598 8.31514C21.2266 7.84838 21.4888 7.21532 21.4888 6.55523V5.31079H26.4666V6.55523C26.4666 7.21532 26.7288 7.84838 27.1956 8.31514C27.6623 8.7819 28.2954 9.04412 28.9555 9.04412C29.6156 9.04412 30.2486 8.7819 30.7154 8.31514C31.1821 7.84838 31.4444 7.21532 31.4444 6.55523V5.31079H34.5555C35.0501 5.31226 35.524 5.5094 35.8738 5.85915C36.2235 6.2089 36.4207 6.68284 36.4221 7.17745V11.533Z" fill="#556182"/>
<path d="M17.7556 17.1341C17.7556 16.804 17.6245 16.4875 17.3911 16.2541C17.1577 16.0208 16.8412 15.8896 16.5112 15.8896H14.0223C13.6922 15.8896 13.3757 16.0208 13.1423 16.2541C12.9089 16.4875 12.7778 16.804 12.7778 17.1341V19.0008C12.7778 19.3308 12.9089 19.6473 13.1423 19.8807C13.3757 20.1141 13.6922 20.2452 14.0223 20.2452H16.5112C16.8412 20.2452 17.1577 20.1141 17.3911 19.8807C17.6245 19.6473 17.7556 19.3308 17.7556 19.0008V17.1341ZM14.0223 19.0008V17.1341H16.5112V19.0008H14.0223Z" fill="#556182"/>
<path d="M10.2888 17.1341C10.2888 16.804 10.1577 16.4875 9.92432 16.2541C9.69094 16.0208 9.37441 15.8896 9.04437 15.8896H6.55548C6.22543 15.8896 5.9089 16.0208 5.67552 16.2541C5.44215 16.4875 5.31104 16.804 5.31104 17.1341V19.0008C5.31104 19.3308 5.44215 19.6473 5.67552 19.8807C5.9089 20.1141 6.22543 20.2452 6.55548 20.2452H9.04437C9.37441 20.2452 9.69094 20.1141 9.92432 19.8807C10.1577 19.6473 10.2888 19.3308 10.2888 19.0008V17.1341ZM6.55548 19.0008V17.1341H9.04437V19.0008H6.55548Z" fill="#556182"/>
<path d="M31.4443 20.2452C31.7743 20.2452 32.0908 20.1141 32.3242 19.8807C32.5576 19.6473 32.6887 19.3308 32.6887 19.0008V17.1341C32.6887 16.804 32.5576 16.4875 32.3242 16.2541C32.0908 16.0208 31.7743 15.8896 31.4443 15.8896H28.9554C28.6253 15.8896 28.3088 16.0208 28.0754 16.2541C27.842 16.4875 27.7109 16.804 27.7109 17.1341V19.0008C27.7109 19.3308 27.842 19.6473 28.0754 19.8807C28.3088 20.1141 28.6253 20.2452 28.9554 20.2452H31.4443ZM28.9554 17.1341H31.4443V19.0008H28.9554V17.1341Z" fill="#556182"/>
<path d="M17.7556 22.7327C17.7556 22.4027 17.6245 22.0861 17.3911 21.8528C17.1577 21.6194 16.8412 21.4883 16.5112 21.4883H14.0223C13.6922 21.4883 13.3757 21.6194 13.1423 21.8528C12.9089 22.0861 12.7778 22.4027 12.7778 22.7327V24.5994C12.7778 24.9294 12.9089 25.246 13.1423 25.4793C13.3757 25.7127 13.6922 25.8438 14.0223 25.8438H16.5112C16.8412 25.8438 17.1577 25.7127 17.3911 25.4793C17.6245 25.246 17.7556 24.9294 17.7556 24.5994V22.7327ZM14.0223 24.5994V22.7327H16.5112V24.5994H14.0223Z" fill="#556182"/>
<path d="M10.2888 22.7327C10.2888 22.4027 10.1577 22.0861 9.92432 21.8528C9.69094 21.6194 9.37441 21.4883 9.04437 21.4883H6.55548C6.22543 21.4883 5.9089 21.6194 5.67552 21.8528C5.44215 22.0861 5.31104 22.4027 5.31104 22.7327V24.5994C5.31104 24.9294 5.44215 25.246 5.67552 25.4793C5.9089 25.7127 6.22543 25.8438 6.55548 25.8438H9.04437C9.37441 25.8438 9.69094 25.7127 9.92432 25.4793C10.1577 25.246 10.2888 24.9294 10.2888 24.5994V22.7327ZM6.55548 24.5994V22.7327H9.04437V24.5994H6.55548Z" fill="#556182"/>
<path d="M16.5112 27.0889H14.0223C13.6922 27.0889 13.3757 27.22 13.1423 27.4534C12.9089 27.6867 12.7778 28.0033 12.7778 28.3333V30.2C12.7778 30.53 12.9089 30.8466 13.1423 31.0799C13.3757 31.3133 13.6922 31.4444 14.0223 31.4444H16.5112C16.8412 31.4444 17.1577 31.3133 17.3911 31.0799C17.6245 30.8466 17.7556 30.53 17.7556 30.2V28.3333C17.7556 28.0033 17.6245 27.6867 17.3911 27.4534C17.1577 27.22 16.8412 27.0889 16.5112 27.0889ZM14.0223 30.2V28.3333H16.5112V30.2H14.0223Z" fill="#556182"/>
<path d="M21.4888 20.2452H23.9777C24.3078 20.2452 24.6243 20.1141 24.8577 19.8807C25.0911 19.6473 25.2222 19.3308 25.2222 19.0008V17.1341C25.2222 16.804 25.0911 16.4875 24.8577 16.2541C24.6243 16.0208 24.3078 15.8896 23.9777 15.8896H21.4888C21.1588 15.8896 20.8423 16.0208 20.6089 16.2541C20.3755 16.4875 20.2444 16.804 20.2444 17.1341V19.0008C20.2444 19.3308 20.3755 19.6473 20.6089 19.8807C20.8423 20.1141 21.1588 20.2452 21.4888 20.2452ZM21.4888 17.1341H23.9777V19.0008H21.4888V17.1341Z" fill="#556182"/>
<path d="M20.2444 24.5994C20.2444 24.9294 20.3755 25.246 20.6089 25.4793C20.8423 25.7127 21.1588 25.8438 21.4888 25.8438C21.6539 25.8438 21.8121 25.7783 21.9288 25.6616C22.0455 25.5449 22.1111 25.3866 22.1111 25.2216C22.1111 25.0566 22.0455 24.8983 21.9288 24.7816C21.8121 24.6649 21.6539 24.5994 21.4888 24.5994V22.7327H23.9777C24.1427 22.7327 24.301 22.6672 24.4177 22.5505C24.5344 22.4338 24.5999 22.2755 24.5999 22.1105C24.5999 21.9455 24.5344 21.7872 24.4177 21.6705C24.301 21.5538 24.1427 21.4883 23.9777 21.4883H21.4888C21.1588 21.4883 20.8423 21.6194 20.6089 21.8528C20.3755 22.0861 20.2444 22.4027 20.2444 22.7327V24.5994Z" fill="#556182"/>
<path d="M9.04437 27.0889H6.55548C6.22543 27.0889 5.9089 27.22 5.67552 27.4534C5.44215 27.6867 5.31104 28.0033 5.31104 28.3333V30.2C5.31104 30.53 5.44215 30.8466 5.67552 31.0799C5.9089 31.3133 6.22543 31.4444 6.55548 31.4444H9.04437C9.37441 31.4444 9.69094 31.3133 9.92432 31.0799C10.1577 30.8466 10.2888 30.53 10.2888 30.2V28.3333C10.2888 28.0033 10.1577 27.6867 9.92432 27.4534C9.69094 27.22 9.37441 27.0889 9.04437 27.0889ZM6.55548 30.2V28.3333H9.04437V30.2H6.55548Z" fill="#556182"/>
<path d="M29.5777 21.4883C27.9778 21.4883 26.4139 21.9627 25.0837 22.8515C23.7535 23.7403 22.7167 25.0036 22.1045 26.4817C21.4923 27.9597 21.3321 29.5861 21.6442 31.1552C21.9563 32.7243 22.7267 34.1656 23.858 35.2969C24.9892 36.4281 26.4305 37.1985 27.9996 37.5106C29.5687 37.8227 31.1951 37.6626 32.6731 37.0503C34.1512 36.4381 35.4145 35.4013 36.3033 34.0711C37.1921 32.7409 37.6665 31.177 37.6665 29.5772C37.6641 27.4326 36.8111 25.3766 35.2946 23.8602C33.7782 22.3438 31.7222 21.4908 29.5777 21.4883ZM29.5777 36.4216C28.224 36.4216 26.9007 36.0202 25.7751 35.2681C24.6495 34.516 23.7723 33.4471 23.2542 32.1964C22.7362 30.9458 22.6006 29.5696 22.8647 28.2419C23.1288 26.9142 23.7807 25.6946 24.7379 24.7374C25.6951 23.7802 26.9147 23.1283 28.2424 22.8642C29.5701 22.6001 30.9463 22.7357 32.1969 23.2537C33.4476 23.7718 34.5165 24.649 35.2686 25.7746C36.0207 26.9002 36.4221 28.2235 36.4221 29.5772C36.42 31.3918 35.6982 33.1314 34.4151 34.4146C33.1319 35.6977 31.3923 36.4195 29.5777 36.4216Z" fill="#556182"/>
<path d="M33.1728 26.9696L28.3331 31.8092L26.1336 29.6091C26.0162 29.4957 25.8591 29.433 25.6959 29.4344C25.5328 29.4358 25.3767 29.5013 25.2613 29.6166C25.146 29.732 25.0805 29.8881 25.0791 30.0512C25.0777 30.2143 25.1404 30.3715 25.2538 30.4889L27.8932 33.129C28.0099 33.2456 28.1682 33.3111 28.3331 33.3111C28.4981 33.3111 28.6564 33.2456 28.7731 33.129L34.0526 27.8494C34.166 27.7321 34.2287 27.5749 34.2273 27.4117C34.2258 27.2486 34.1604 27.0925 34.045 26.9772C33.9297 26.8618 33.7736 26.7964 33.6105 26.7949C33.4473 26.7935 33.2901 26.8562 33.1728 26.9696Z" fill="#556182"/>
</svg>
