<svg width="30" height="38" viewBox="0 0 30 38" fill="none" xmlns="http://www.w3.org/2000/svg">
<path d="M25.9423 24.764L23.7176 24.1108L18.8777 20.9495V20.2252C20.279 19.1682 21.2412 17.5526 21.4201 15.7006C22.1229 15.5875 22.6613 14.9768 22.6613 14.2427V12.2508C22.6613 12.2431 22.6605 12.2356 22.6602 12.2279V9.7047C22.9401 9.50422 23.1178 9.17766 23.1178 8.81135V6.50226L26.458 5.93331C27.0069 5.83981 27.4017 5.40383 27.4405 4.84836C27.4791 4.29289 27.1487 3.80635 26.6181 3.63763L15.3579 0.0560614C15.1229 -0.0187118 14.8748 -0.0186378 14.6399 0.0559874L3.3796 3.63763C2.84901 3.80635 2.51853 4.29289 2.55725 4.84829C2.58182 5.2012 2.75047 5.50548 3.01077 5.70477V8.72436H2.98323C2.34914 8.72436 1.83328 9.24022 1.83328 9.87431V11.3732L1.09095 15.7302C0.96265 16.4837 1.54307 17.1735 2.30931 17.1735H4.82265C5.58719 17.1735 6.16961 16.4854 6.04101 15.7301L5.29869 11.3732V9.87431C5.29869 9.24022 4.78282 8.72436 4.14873 8.72436H4.12127V6.0323L6.88225 6.50255V8.81135C6.88225 9.17611 7.05911 9.50215 7.33777 9.70292L7.33881 12.2511V14.2427C7.33881 14.9769 7.87725 15.5875 8.58005 15.7006C8.75884 17.5515 9.72008 19.1664 11.12 20.2234V20.9512L6.2811 24.1119L4.05826 24.7643C1.67966 25.4625 0.000147985 27.6462 0.000147985 30.1847V31.8394C0.000147985 32.1461 0.248677 32.3947 0.555395 32.3947C0.862114 32.3947 1.11064 32.1462 1.11064 31.8394V30.1847C1.11064 28.184 2.4513 26.3932 4.37105 25.8298L6.4422 25.2219L14.7166 30.1386C14.8845 30.2384 15.1068 30.2437 15.2838 30.1386L23.5587 25.2216L25.6296 25.8295C27.5491 26.3931 28.8897 28.1838 28.8897 30.1843V35.5471C28.8897 36.2349 28.3301 36.7945 27.6423 36.7945H25.195V34.4012C25.195 34.0946 24.9464 33.846 24.6397 33.846C24.3331 33.846 24.0845 34.0945 24.0845 34.4012V36.7945H5.91323V34.4012C5.91323 34.0946 5.6647 33.846 5.35799 33.846C5.05127 33.846 4.80274 34.0945 4.80274 34.4012V36.7945H2.35795C1.67011 36.7945 1.11049 36.2349 1.11049 35.5471V34.435C1.11049 34.1283 0.861966 33.8797 0.555247 33.8797C0.248529 33.8797 0 34.1282 0 34.435V35.547C0 36.8472 1.05771 37.9049 2.35788 37.9049H27.6421C28.9423 37.9049 30 36.8472 30 35.547V30.1842C30 27.7056 28.3778 25.479 25.9423 24.764ZM4.82258 16.063H2.30931C2.23165 16.063 2.17242 15.9936 2.1856 15.9166L2.85708 11.9754H4.27481L4.94629 15.9165C4.95939 15.9934 4.90061 16.063 4.82258 16.063ZM4.18819 9.87431V10.8649H2.94362V9.87431C2.94362 9.85247 2.96132 9.83478 2.98316 9.83478H4.14858C4.1705 9.8347 4.18819 9.85247 4.18819 9.87431ZM13.0143 27.627L13.2352 27.9666L7.56661 24.5984L11.1647 22.2482C11.3279 24.1627 11.9589 26.005 13.0143 27.627ZM13.0104 25.2301C14.3173 25.4158 15.682 25.416 16.9897 25.2301C16.737 25.8519 16.4256 26.4518 16.0551 27.0215L15 28.6431L13.945 27.0215C13.5745 26.4518 13.2631 25.8519 13.0104 25.2301ZM16.9858 27.627C18.0412 26.005 18.6722 24.1627 18.8353 22.2482L22.4334 24.5983L16.7648 27.9666L16.9858 27.627ZM20.2337 9.91147H21.5497V11.6955H20.8965C20.531 11.6955 20.2336 11.3982 20.2336 11.0327V9.91147H20.2337ZM3.71616 4.69585L14.9766 1.11414C14.9911 1.10955 15.0066 1.10948 15.0213 1.11421L26.2817 4.69585C26.3049 4.70326 26.3368 4.71333 26.3328 4.77115C26.3287 4.82889 26.2958 4.83444 26.2716 4.83859L22.5487 5.47268L21.1509 5.29981C20.8468 5.26213 20.5695 5.47846 20.5318 5.78273C20.4942 6.08708 20.7104 6.36426 21.0147 6.40187L22.0075 6.52469V8.80105L7.99267 8.80054V6.52462L13.7381 5.81368C14.575 5.71025 15.4234 5.71025 16.2597 5.81368L18.4343 6.08264C18.7386 6.12032 19.0158 5.90407 19.0535 5.5998C19.0912 5.29545 18.8749 5.01827 18.5706 4.98058L16.3961 4.71162C15.4694 4.59695 14.5292 4.59695 13.6018 4.71162L7.45016 5.47283L3.72608 4.83859C3.70194 4.83444 3.669 4.82889 3.66493 4.77115C3.66093 4.71333 3.69284 4.70318 3.71616 4.69585ZM8.44894 11.6955L8.4482 9.91147H9.76635V11.0328C9.76635 11.3982 9.46904 11.6956 9.10346 11.6956H8.44894V11.6955ZM9.671 15.4152C9.64242 14.9631 9.26663 14.6089 8.81555 14.6089C8.61351 14.6089 8.44916 14.4446 8.44916 14.2426V12.806H9.10346C10.0812 12.806 10.8768 12.0105 10.8768 11.0328V9.91147H19.1232V11.0328C19.1232 12.0105 19.9188 12.806 20.8965 12.806H21.5508V14.2426C21.5508 14.4446 21.3865 14.6089 21.1845 14.6089C20.7334 14.6089 20.3576 14.9631 20.329 15.4153C20.1521 18.2189 17.8114 20.415 15 20.415C12.1886 20.415 9.84786 18.2189 9.671 15.4152ZM15 21.5255C15.9876 21.5255 16.9262 21.2997 17.7672 20.8982V21.2501C17.7672 22.1994 17.6392 23.1358 17.3926 24.039C15.8836 24.3267 14.1777 24.3383 12.6075 24.039C12.3609 23.1359 12.2328 22.1995 12.2328 21.2501C12.2328 21.2383 12.2312 21.2268 12.2305 21.2152C12.2303 21.2129 12.2305 21.2106 12.2304 21.2083V20.8971C13.0721 21.2992 14.0115 21.5255 15 21.5255Z" fill="#8B94AE"/>
</svg>
