<svg width="9" height="9" viewBox="0 0 9 9" fill="none" xmlns="http://www.w3.org/2000/svg">
<path d="M4.77898 4.16837L8.23314 0.714205C8.3014 0.634496 8.33707 0.531964 8.33302 0.427099C8.32897 0.322234 8.2855 0.22276 8.21129 0.148554C8.13709 0.0743476 8.03761 0.0308756 7.93275 0.0268251C7.82788 0.0227746 7.72535 0.058444 7.64564 0.126705L4.19148 3.58087L0.73731 0.122538C0.65885 0.0440783 0.552435 0 0.441476 0C0.330517 0 0.224103 0.0440783 0.145643 0.122538C0.0671832 0.200998 0.0231049 0.307413 0.0231049 0.418372C0.0231049 0.529331 0.0671832 0.635745 0.145643 0.714205L3.60398 4.16837L0.145643 7.62254C0.102026 7.65989 0.0666006 7.70586 0.0415909 7.75755C0.0165812 7.80925 0.00252695 7.86555 0.000310496 7.92293C-0.00190596 7.98032 0.00776298 8.03754 0.0287107 8.09101C0.0496585 8.14447 0.0814327 8.19304 0.122039 8.23364C0.162645 8.27425 0.211206 8.30602 0.264675 8.32697C0.318144 8.34792 0.375366 8.35759 0.432749 8.35537C0.490132 8.35315 0.546437 8.3391 0.598131 8.31409C0.649824 8.28908 0.69579 8.25366 0.733143 8.21004L4.19148 4.75587L7.64564 8.21004C7.72535 8.2783 7.82788 8.31397 7.93275 8.30992C8.03761 8.30587 8.13709 8.2624 8.21129 8.18819C8.2855 8.11398 8.32897 8.01451 8.33302 7.90964C8.33707 7.80478 8.3014 7.70225 8.23314 7.62254L4.77898 4.16837Z" fill="#556182"/>
</svg>
