<svg width="44" height="44" viewBox="0 0 44 44" fill="none" xmlns="http://www.w3.org/2000/svg">
<path d="M5.2775 14.6665L1.99334 17.5082C1.39622 18.0582 1.09766 18.7915 1.09766 19.5248V40.3332C1.09766 41.3415 1.99334 42.1665 3.08806 42.1665H40.9056C42.0004 42.1665 42.8961 41.3415 42.8961 40.3332V19.5248C42.8961 18.7915 42.5975 18.0582 42.0004 17.5082L38.7162 14.6665" stroke="#B8C1D9" stroke-width="1.83333" stroke-linecap="square"/>
<path d="M28.2662 5.50007L24.0863 1.8334C22.8921 0.825065 21.1007 0.825065 20.006 1.8334L15.8262 5.50007" stroke="#B8C1D9" stroke-width="1.83333" stroke-linecap="square"/>
<path d="M42.8961 42.1668L30.5556 29.8835C30.1575 29.5168 29.6599 29.3335 29.0628 29.3335H15.8266C15.329 29.3335 14.8314 29.5168 14.4333 29.8835L1.09766 42.1668" stroke="#B8C1D9" stroke-width="1.83333"/>
<path d="M1.09766 21.0835L14.0353 30.2502" stroke="#B8C1D9" stroke-width="1.83333"/>
<path d="M42.8954 21.0835L31.9482 30.2502" stroke="#B8C1D9" stroke-width="1.83333"/>
<path d="M6.07422 24.7503V8.25033C6.07422 7.24199 6.9699 6.41699 8.06462 6.41699H35.9302C37.0249 6.41699 37.9206 7.24199 37.9206 8.25033V24.7503" stroke="#B8C1D9" stroke-width="1.83333"/>
<path d="M12.0459 12.8335H18.0171" stroke="#B8C1D9" stroke-width="1.83333" stroke-linecap="round"/>
<path d="M12.0459 16.5H31.9499" stroke="#B8C1D9" stroke-width="1.83333" stroke-linecap="round"/>
<path d="M12.0459 20.167H31.9499" stroke="#B8C1D9" stroke-width="1.83333" stroke-linecap="round"/>
</svg>
