<svg width="20" height="20" viewBox="0 0 20 20" fill="none" xmlns="http://www.w3.org/2000/svg">
<path fill-rule="evenodd" clip-rule="evenodd" d="M10 20C4.47715 20 0 15.5228 0 10C0 4.47715 4.47715 0 10 0C15.5228 0 20 4.47715 20 10C20 15.5228 15.5228 20 10 20ZM10 18.3333C14.6024 18.3333 18.3333 14.6024 18.3333 10C18.3333 5.39763 14.6024 1.66667 10 1.66667C5.39763 1.66667 1.66667 5.39763 1.66667 10C1.66667 14.6024 5.39763 18.3333 10 18.3333ZM10 6.875C9.30964 6.875 8.75 6.31536 8.75 5.625C8.75 4.93464 9.30964 4.375 10 4.375C10.6904 4.375 11.25 4.93464 11.25 5.625C11.25 6.31536 10.6904 6.875 10 6.875ZM9.16667 9.16667C9.16667 8.70643 9.53976 8.33333 10 8.33333C10.4602 8.33333 10.8333 8.70643 10.8333 9.16667V14.1667C10.8333 14.6269 10.4602 15 10 15C9.53976 15 9.16667 14.6269 9.16667 14.1667V9.16667Z" fill="#556182"/>
</svg>
