<svg width="22" height="22" viewBox="0 0 22 22" fill="none" xmlns="http://www.w3.org/2000/svg">
<path fill-rule="evenodd" clip-rule="evenodd" d="M6.74923 20.0003H17.5643C17.8077 20.0006 18.0431 19.915 18.2277 19.7591C18.4124 19.6031 18.534 19.3871 18.5706 19.1504L19.9529 10.1718C19.9749 10.0294 19.9653 9.8839 19.9248 9.74542C19.8843 9.60695 19.8139 9.47872 19.7183 9.36952C19.6227 9.26031 19.5043 9.17272 19.3711 9.11274C19.2379 9.05276 19.0931 9.0218 18.9466 9.02199H13.2444C13.1019 9.02269 12.9608 8.99392 12.8304 8.93754C12.6999 8.88116 12.583 8.79843 12.4871 8.69472C12.3913 8.59101 12.3187 8.46864 12.274 8.33555C12.2294 8.20245 12.2137 8.06161 12.2279 7.92216C12.5633 4.46269 11.9738 2.65296 10.5609 2.14304L6.97285 10.4018C6.92028 10.5218 6.84431 10.6305 6.74923 10.7217V20.0003ZM4.71633 20.0003V11.0017H3.04935C2.77977 11.0017 2.52123 11.107 2.33061 11.2945C2.13999 11.482 2.0329 11.7364 2.0329 12.0015V19.0005C2.0329 19.2656 2.13999 19.52 2.33061 19.7075C2.52123 19.895 2.77977 20.0003 3.04935 20.0003H4.71633ZM14.332 7.02229H18.9466C19.3861 7.02173 19.8205 7.1146 20.22 7.29455C20.6196 7.4745 20.9749 7.73727 21.2616 8.06488C21.5483 8.39248 21.7597 8.77717 21.8812 9.1926C22.0026 9.60803 22.0314 10.0444 21.9655 10.4718L20.573 19.4504C20.4637 20.1588 20.1003 20.8053 19.5484 21.273C18.9965 21.7407 18.2927 21.9986 17.5643 22H3.04935C2.24061 22 1.465 21.684 0.893135 21.1215C0.32127 20.5589 0 19.796 0 19.0005V12.0015C0 11.206 0.32127 10.4431 0.893135 9.88054C1.465 9.31801 2.24061 9.00199 3.04935 9.00199H5.36686L9.02608 0.603278C9.11042 0.411264 9.25386 0.250104 9.4362 0.142486C9.61854 0.0348685 9.83061 -0.0137868 10.0425 0.00336974C13.1224 0.253331 14.5149 2.74295 14.332 7.02229Z" fill="#556182"/>
</svg>
