<svg width="25" height="22" viewBox="0 0 25 22" fill="none" xmlns="http://www.w3.org/2000/svg">
<path fill-rule="evenodd" clip-rule="evenodd" d="M8.2029 20.0003H19.9296C20.1935 20.0006 20.4487 19.915 20.649 19.7591C20.8492 19.6031 20.9811 19.3871 21.0207 19.1504L22.5196 10.1718C22.5434 10.0294 22.533 9.8839 22.4891 9.74542C22.4452 9.60695 22.3688 9.47872 22.2652 9.36952C22.1615 9.26031 22.0331 9.17272 21.8887 9.11274C21.7443 9.05276 21.5873 9.0218 21.4285 9.02199H15.2455C15.091 9.02269 14.9381 8.99392 14.7966 8.93754C14.6552 8.88116 14.5284 8.79843 14.4245 8.69472C14.3205 8.59101 14.2418 8.46864 14.1934 8.33555C14.145 8.20245 14.1279 8.06161 14.1434 7.92216C14.5071 4.46269 13.8678 2.65296 12.3359 2.14304L8.44537 10.4018C8.38837 10.5218 8.30599 10.6305 8.2029 10.7217V20.0003ZM5.99864 20.0003V11.0017H4.19115C3.89885 11.0017 3.61852 11.107 3.41183 11.2945C3.20514 11.482 3.08902 11.7364 3.08902 12.0015V19.0005C3.08902 19.2656 3.20514 19.52 3.41183 19.7075C3.61852 19.895 3.89885 20.0003 4.19115 20.0003H5.99864ZM16.4248 7.02229H21.4285C21.9049 7.02173 22.3759 7.1146 22.8092 7.29455C23.2424 7.4745 23.6277 7.73727 23.9386 8.06488C24.2494 8.39248 24.4786 8.77717 24.6103 9.1926C24.7421 9.60803 24.7732 10.0444 24.7018 10.4718L23.1919 19.4504C23.0734 20.1588 22.6793 20.8053 22.0809 21.273C21.4825 21.7407 20.7194 21.9986 19.9296 22H4.19115C3.31424 22 2.47325 21.684 1.85318 21.1215C1.23312 20.5589 0.884766 19.796 0.884766 19.0005V12.0015C0.884766 11.206 1.23312 10.4431 1.85318 9.88054C2.47325 9.31801 3.31424 9.00199 4.19115 9.00199H6.70401L10.6717 0.603278C10.7631 0.411264 10.9187 0.250104 11.1164 0.142486C11.3141 0.0348685 11.544 -0.0137868 11.7738 0.00336974C15.1133 0.253331 16.6232 2.74295 16.4248 7.02229Z" fill="#556182"/>
</svg>
