<svg width="28" height="36" viewBox="0 0 28 36" fill="none" xmlns="http://www.w3.org/2000/svg">
<path d="M28 35.3625V28.2616C27.9941 25.3506 25.5997 22.9905 22.6403 22.9785H19.6805V20.5934C19.8332 20.471 19.9744 20.3352 20.1023 20.1878C21.7275 18.556 22.6364 16.3612 22.6326 14.0768V5.86376C23.3482 5.44515 23.8619 4.83958 24.2771 4.07213C24.7984 3.10913 25.093 1.90487 25.093 0.681351C25.0947 0.501948 25.0158 0.330794 24.8774 0.213598C24.7394 0.0964017 24.5556 0.0448492 24.3752 0.0730312L18.5752 0.970046C17.5699 1.12677 16.5418 1.07212 15.5596 0.809545L12.9035 0.103963C12.0054 -0.138334 11.0444 0.0482859 10.3075 0.607459C10.0642 0.788581 9.85039 1.00407 9.67252 1.2474C6.96016 2.76545 5.28285 5.59706 5.27796 8.6665V14.0768C5.27831 16.3626 6.19069 18.557 7.81909 20.1878C7.95153 20.3215 8.14058 20.45 8.23003 20.5741V22.9785H5.31639C2.36572 22.9785 0 25.3596 0 28.2616V35.3625C0 35.7027 0.246006 36 0.591953 36H27.3647C27.7166 35.9904 27.9976 35.7086 28 35.3625ZM11.0633 1.58593C11.3656 1.35738 11.7356 1.23331 12.1169 1.23296C12.2717 1.23331 12.4261 1.25324 12.5757 1.29311L15.2325 1.99903C16.3849 2.30697 17.5905 2.3709 18.7699 2.18703L23.8127 1.40721C23.5932 3.62019 22.3799 4.79456 21.3114 5.14546C20.6603 5.24238 13.7868 6.25453 10.6433 6.25453C10.4983 6.25453 10.3798 6.14042 10.377 5.99779V2.94141C10.3773 2.4087 10.631 1.90693 11.0633 1.58558V1.58593ZM9.1246 3.12529V5.99779C9.12495 6.735 9.67427 7.36084 10.4158 7.46876C9.18366 8.40942 7.8722 8.83971 6.53035 8.75173V8.6665C6.53979 6.53738 7.48572 4.51652 9.1246 3.12529ZM6.53035 14.0768V9.98487C6.61981 9.99071 6.76308 9.99449 6.8735 9.99449C9.25319 9.99449 11.0968 8.67475 12.3202 7.42339C15.6944 7.20928 20.4856 6.51126 21.3802 6.37653V14.0768C21.3861 16.0392 20.6076 17.9253 19.2126 19.3286C17.8002 20.7552 15.9432 21.5409 13.9706 21.5409C11.9865 21.5368 10.0898 20.738 8.71715 19.3286C7.31694 17.9274 6.53175 16.0416 6.53035 14.0768ZM13.9661 22.7726C15.5431 22.7737 17.0891 22.34 18.4281 21.5203V23.3222C15.8181 25.3922 12.0938 25.3936 9.48243 23.3249V21.5069C10.826 22.3355 12.38 22.7744 13.9661 22.7726ZM26.7476 34.7682H1.2524V28.2616C1.2524 26.039 3.05656 24.2103 5.31639 24.2103H8.63713C11.7161 26.7618 16.2162 26.7618 19.2951 24.2103H22.6403C24.9081 24.2216 26.7424 26.0308 26.7476 28.2616V34.7682Z" fill="#8B94AE"/>
</svg>
