<svg width="48" height="39" viewBox="0 0 48 39" fill="none" xmlns="http://www.w3.org/2000/svg">
<path d="M6.62695 29V23C6.62695 20.7909 8.57124 19 10.9696 19H37.0258C39.4242 19 41.3685 20.7909 41.3685 23V29" stroke="#B8C1D9" stroke-width="2"/>
<path d="M23.998 11V29" stroke="#B8C1D9" stroke-width="2"/>
<path fill-rule="evenodd" clip-rule="evenodd" d="M28.3411 11H19.6557C18.4565 11 17.4844 10.1046 17.4844 9V3C17.4844 1.89543 18.4565 1 19.6557 1H28.3411C29.5403 1 30.5124 1.89543 30.5124 3V9C30.5124 10.1046 29.5403 11 28.3411 11Z" stroke="#B8C1D9" stroke-width="2"/>
<path fill-rule="evenodd" clip-rule="evenodd" d="M27.2547 38H20.7407C19.5415 38 18.5693 37.1046 18.5693 36V31C18.5693 29.8954 19.5415 29 20.7407 29H27.2547C28.4539 29 29.4261 29.8954 29.4261 31V36C29.4261 37.1046 28.4539 38 27.2547 38Z" stroke="#B8C1D9" stroke-width="2"/>
<path fill-rule="evenodd" clip-rule="evenodd" d="M44.6258 38H38.1118C36.9126 38 35.9404 37.1046 35.9404 36V31C35.9404 29.8954 36.9126 29 38.1118 29H44.6258C45.825 29 46.7972 29.8954 46.7972 31V36C46.7972 37.1046 45.825 38 44.6258 38Z" stroke="#B8C1D9" stroke-width="2"/>
<path fill-rule="evenodd" clip-rule="evenodd" d="M9.88362 38H3.36959C2.17039 38 1.19824 37.1046 1.19824 36V31C1.19824 29.8954 2.17039 29 3.36959 29H9.88362C11.0828 29 12.055 29.8954 12.055 31V36C12.055 37.1046 11.0828 38 9.88362 38Z" stroke="#B8C1D9" stroke-width="2"/>
</svg>
