<svg width="16" height="16" viewBox="0 0 16 16" fill="none" xmlns="http://www.w3.org/2000/svg">
<path d="M8 16C5.87827 16 3.84344 15.1571 2.34315 13.6569C0.842855 12.1566 0 10.1217 0 8C0 5.87827 0.842855 3.84344 2.34315 2.34315C3.84344 0.842855 5.87827 0 8 0C10.1217 0 12.1566 0.842855 13.6569 2.34315C15.1571 3.84344 16 5.87827 16 8C16 10.1217 15.1571 12.1566 13.6569 13.6569C12.1566 15.1571 10.1217 16 8 16ZM8 15C9.85652 15 11.637 14.2625 12.9497 12.9497C14.2625 11.637 15 9.85652 15 8C15 6.14348 14.2625 4.36301 12.9497 3.05025C11.637 1.7375 9.85652 1 8 1C6.14348 1 4.36301 1.7375 3.05025 3.05025C1.7375 4.36301 1 6.14348 1 8C1 9.85652 1.7375 11.637 3.05025 12.9497C4.36301 14.2625 6.14348 15 8 15ZM8 9V11H7V8H8C8.39556 8 8.78224 7.8827 9.11114 7.66294C9.44004 7.44318 9.69638 7.13082 9.84776 6.76537C9.99913 6.39991 10.0387 5.99778 9.96157 5.60982C9.8844 5.22186 9.69392 4.86549 9.41421 4.58579C9.13451 4.30608 8.77814 4.1156 8.39018 4.03843C8.00222 3.96126 7.60009 4.00087 7.23463 4.15224C6.86918 4.30362 6.55682 4.55996 6.33706 4.88886C6.1173 5.21776 6 5.60444 6 6H5C5 5.40666 5.17595 4.82664 5.50559 4.33329C5.83524 3.83994 6.30377 3.45542 6.85195 3.22836C7.40013 3.0013 8.00333 2.94189 8.58527 3.05764C9.16721 3.1734 9.70176 3.45912 10.1213 3.87868C10.5409 4.29824 10.8266 4.83279 10.9424 5.41473C11.0581 5.99667 10.9987 6.59987 10.7716 7.14805C10.5446 7.69623 10.1601 8.16476 9.66671 8.49441C9.17336 8.82405 8.59334 9 8 9ZM7 12H8V13H7V12Z" fill="#8B94AE"/>
</svg>
