<svg width="23" height="24" viewBox="0 0 23 24" fill="none" xmlns="http://www.w3.org/2000/svg">
<path d="M16.8188 8C16.8188 6.4087 16.2282 4.88258 15.1768 3.75736C14.1254 2.63214 12.6995 2 11.2126 2C9.72573 2 8.29976 2.63214 7.24838 3.75736C6.197 4.88258 5.60635 6.4087 5.60635 8C5.60635 15 2.80322 17 2.80322 17H19.622C19.622 17 16.8188 15 16.8188 8Z" stroke="#8B94AE" stroke-linecap="round" stroke-linejoin="round"/>
<path d="M14 20C13.7459 20.6083 13.3813 21.1132 12.9425 21.4642C12.5038 21.8153 12.0063 22 11.5 22C10.9937 22 10.4962 21.8153 10.0575 21.4642C9.61872 21.1132 9.25406 20.6083 9 20" stroke="#8B94AE" stroke-linecap="round" stroke-linejoin="round"/>
</svg>
