<svg width="17" height="16" viewBox="0 0 17 16" fill="none" xmlns="http://www.w3.org/2000/svg">
<path d="M8.38382 3.98723C8.00235 3.98723 7.62945 4.10453 7.31227 4.32429C6.99509 4.54405 6.74788 4.85641 6.6019 5.22186C6.45591 5.58731 6.41772 5.98945 6.49214 6.37741C6.56656 6.76537 6.75025 7.12174 7.01999 7.40144C7.28973 7.68115 7.6334 7.87163 8.00754 7.9488C8.38168 8.02597 8.76949 7.98637 9.12192 7.83499C9.47435 7.68361 9.77558 7.42727 9.98751 7.09837C10.1994 6.76947 10.3126 6.38279 10.3126 5.98723C10.312 5.45698 10.1086 4.94862 9.747 4.57368C9.38542 4.19874 8.89518 3.98783 8.38382 3.98723ZM8.38382 6.98723C8.19309 6.98723 8.00663 6.92858 7.84804 6.8187C7.68945 6.70882 7.56585 6.55264 7.49286 6.36991C7.41987 6.18719 7.40077 5.98612 7.43798 5.79214C7.47519 5.59816 7.56704 5.41998 7.70191 5.28012C7.83678 5.14027 8.00861 5.04503 8.19568 5.00644C8.38275 4.96786 8.57665 4.98766 8.75287 5.06335C8.92908 5.13904 9.0797 5.26721 9.18567 5.43166C9.29163 5.59611 9.34819 5.78945 9.34819 5.98723C9.3479 6.25235 9.2462 6.50653 9.06541 6.694C8.88462 6.88147 8.6395 6.98692 8.38382 6.98723Z" fill="#556182"/>
<path d="M12.0898 2.14108C11.1734 1.19109 9.95016 0.626761 8.65612 0.557002C7.36209 0.487244 6.08901 0.917003 5.08258 1.76334C4.07615 2.60967 3.40772 3.81258 3.2063 5.1399C3.00488 6.46722 3.28475 7.82486 3.9919 8.9508L7.63562 14.7512C7.7167 14.8803 7.82757 14.9863 7.95817 15.0597C8.08878 15.1331 8.23498 15.1716 8.38353 15.1716C8.53209 15.1716 8.67829 15.1331 8.80889 15.0597C8.93949 14.9863 9.05036 14.8803 9.13145 14.7512L12.7753 8.9508C13.4314 7.90633 13.7214 6.65973 13.5966 5.41993C13.4718 4.18014 12.9398 3.02251 12.0898 2.14108ZM11.9673 8.40495L8.38355 14.1096L4.7998 8.40495C3.70283 6.65873 3.9381 4.32186 5.35922 2.84817C5.75638 2.43633 6.22787 2.10964 6.74679 1.88675C7.26571 1.66387 7.82188 1.54915 8.38355 1.54915C8.94522 1.54915 9.50139 1.66387 10.0203 1.88675C10.5392 2.10964 11.0107 2.43633 11.4079 2.84817C12.829 4.32186 13.0642 6.65873 11.9673 8.40495Z" fill="#556182"/>
</svg>
