<svg width="20" height="16" viewBox="0 0 20 16" fill="none" xmlns="http://www.w3.org/2000/svg">
<path d="M19.026 1.82552C18.3409 2.13625 17.6147 2.33851 16.8716 2.42552C17.6569 1.95099 18.2422 1.18852 18.512 0.288523C17.7788 0.741581 16.975 1.05866 16.1368 1.22552C15.7929 0.846305 15.3792 0.542489 14.9201 0.332068C14.4611 0.121647 13.9659 0.00889808 13.464 0.000505731C12.9622 -0.00788662 12.4638 0.0882474 11.9984 0.283209C11.533 0.478171 11.11 0.767997 10.7546 1.13552C10.401 1.49129 10.1215 1.9184 9.93324 2.39051C9.74499 2.86262 9.65201 3.36972 9.66004 3.88052C9.66234 4.17952 9.69466 4.47746 9.75648 4.76952C8.25518 4.69583 6.78699 4.28648 5.45249 3.56952C4.13532 2.87285 2.97314 1.89834 2.04055 0.708521C1.71681 1.28484 1.54146 1.9378 1.53132 2.60467C1.52119 3.27155 1.67662 3.92992 1.98268 4.51652C2.27354 5.07299 2.69139 5.54714 3.19972 5.89752C2.60597 5.87589 2.02589 5.70683 1.50821 5.40452V5.45252C1.49629 6.35497 1.79863 7.2316 2.35975 7.92152C2.90297 8.61528 3.66366 9.08948 4.50934 9.26152C4.18794 9.3491 3.85702 9.39346 3.52471 9.39352C3.28798 9.39173 3.0517 9.37167 2.81783 9.33352C3.05825 10.1039 3.5246 10.7773 4.15181 11.2597C4.77901 11.7422 5.53579 12.0095 6.31657 12.0245C4.99791 13.1151 3.35685 13.7007 1.67023 13.6825C1.36873 13.6846 1.06736 13.6689 0.767578 13.6355C2.47688 14.7881 4.47538 15.394 6.51426 15.3775C7.7888 15.387 9.05512 15.1653 10.256 14.7225C11.3469 14.3308 12.36 13.7365 13.2456 12.9685C14.0709 12.2365 14.7903 11.3851 15.3816 10.4405C15.9662 9.51877 16.4172 8.51306 16.7202 7.45552C17.0103 6.44444 17.1591 5.39541 17.1619 4.34052C17.1619 4.11652 17.158 3.94985 17.1503 3.84052C17.8833 3.28646 18.5179 2.60468 19.026 1.82552Z" fill="#556182"/>
</svg>
