<svg width="37" height="30" viewBox="0 0 37 30" fill="none" xmlns="http://www.w3.org/2000/svg">
<path d="M24.3333 29V25.8889C24.3333 24.2387 23.6778 22.656 22.5109 21.4891C21.344 20.3222 19.7613 19.6667 18.1111 19.6667H7.22222C5.57199 19.6667 3.98934 20.3222 2.82245 21.4891C1.65555 22.656 1 24.2387 1 25.8889V29" stroke="#556182" stroke-width="2" stroke-linecap="round" stroke-linejoin="round"/>
<path d="M12.6667 13.4444C16.1031 13.4444 18.8889 10.6587 18.8889 7.22222C18.8889 3.78578 16.1031 1 12.6667 1C9.23024 1 6.44446 3.78578 6.44446 7.22222C6.44446 10.6587 9.23024 13.4444 12.6667 13.4444Z" stroke="#556182" stroke-width="2" stroke-linecap="round" stroke-linejoin="round"/>
<path d="M25.8889 13.4444L29 16.5556L35.2222 10.3333" stroke="#556182" stroke-width="2" stroke-linecap="round" stroke-linejoin="round"/>
</svg>
