<svg width="36" height="36" viewBox="0 0 36 36" fill="none" xmlns="http://www.w3.org/2000/svg">
<path d="M31.6 12.9H16.3C14.4223 12.9 12.9 14.4222 12.9 16.3V31.6C12.9 33.4778 14.4223 35 16.3 35H31.6C33.4778 35 35 33.4778 35 31.6V16.3C35 14.4222 33.4778 12.9 31.6 12.9Z" stroke="#556182" stroke-width="2" stroke-linecap="round" stroke-linejoin="round"/>
<path d="M6.1 23.1H4.4C3.49826 23.1 2.63346 22.7418 1.99584 22.1042C1.35821 21.4665 1 20.6017 1 19.7V4.4C1 3.49826 1.35821 2.63346 1.99584 1.99584C2.63346 1.35821 3.49826 1 4.4 1H19.7C20.6017 1 21.4665 1.35821 22.1042 1.99584C22.7418 2.63346 23.1 3.49826 23.1 4.4V6.1" stroke="#556182" stroke-width="2" stroke-linecap="round" stroke-linejoin="round"/>
</svg>
