<svg width="18" height="18" viewBox="0 0 18 18" fill="none" xmlns="http://www.w3.org/2000/svg">
<path d="M4.15819 5.5625H0.449219V17.1125H4.15819V5.5625Z" fill="#556182"/>
<path d="M16.3329 6.61749C15.9406 6.17832 15.4612 5.8326 14.9276 5.6042C14.3939 5.37579 13.8189 5.27012 13.2421 5.29447C12.8067 5.28924 12.373 5.35022 11.9547 5.47547C11.6008 5.57913 11.2691 5.75115 10.9768 5.98248C10.5468 6.3151 10.1824 6.7303 9.90346 7.20549V5.56349H6.20703L6.2186 6.12348C6.22631 6.49682 6.23016 7.64681 6.23016 9.57348C6.23016 11.5001 6.22277 14.0138 6.20799 17.1145H9.90636V10.6635C9.89548 10.3438 9.93722 10.0246 10.0298 9.71948C10.1817 9.32858 10.4273 8.98437 10.7434 8.71948C11.081 8.44541 11.5011 8.30375 11.9296 8.31948C12.204 8.2984 12.479 8.3511 12.7281 8.4725C12.9771 8.5939 13.1917 8.77989 13.3511 9.01248C13.6838 9.59008 13.8424 10.2577 13.8063 10.9295V17.1065H17.5046V10.4865C17.5988 9.08971 17.1802 7.70768 16.3329 6.61749Z" fill="#556182"/>
<path d="M2.32677 0.00249615C1.77067 -0.0227548 1.22739 0.180242 0.814635 0.567496C0.625877 0.74901 0.476628 0.970186 0.376849 1.21626C0.27707 1.46234 0.229056 1.72765 0.236013 1.9945C0.229643 2.25897 0.27633 2.52194 0.373112 2.76672C0.469895 3.01151 0.614663 3.23277 0.798241 3.4165C0.995861 3.61001 1.22903 3.7603 1.48384 3.8584C1.73866 3.9565 2.00992 4.0004 2.28144 3.9875H2.30362C2.86404 4.0134 3.41154 3.8081 3.82636 3.4165C4.01418 3.23585 4.16217 3.01527 4.2602 2.76985C4.35823 2.52443 4.404 2.25995 4.39438 1.9945C4.3982 1.72849 4.34934 1.46451 4.25081 1.21888C4.15227 0.973253 4.00617 0.75121 3.82154 0.566496C3.62103 0.374207 3.38557 0.22529 3.12891 0.128451C2.87226 0.0316117 2.59956 -0.0112071 2.32677 0.00249615Z" fill="#556182"/>
</svg>
