<svg width="20" height="18" viewBox="0 0 20 18" fill="none" xmlns="http://www.w3.org/2000/svg">
<path d="M19 3H14.6667V1.66667C14.6655 0.746582 13.9201 0.00113933 13 0H7C6.07992 0.00113933 5.33447 0.746582 5.33333 1.66667V3H1C0.447754 3 0 3.44775 0 4V11.4199C0.00211588 11.8428 0.268555 12.2189 0.666667 12.361V17C0.666667 17.5522 1.11442 18 1.66667 18H18.3333C18.8856 18 19.3333 17.5522 19.3333 17V12.3613C19.7314 12.2191 19.998 11.8428 20 11.4199V4C20 3.44775 19.5522 3 19 3ZM6 1.66667C6 1.11442 6.44775 0.666667 7 0.666667H13C13.5522 0.666667 14 1.11442 14 1.66667V3H13.3333V1.66667C13.3333 1.48258 13.1841 1.33333 13 1.33333H7C6.81592 1.33333 6.66667 1.48258 6.66667 1.66667V3H6V1.66667ZM12.6667 3H7.33333V2H12.6667V3ZM18.6667 17C18.6667 17.1841 18.5174 17.3333 18.3333 17.3333H1.66667C1.48258 17.3333 1.33333 17.1841 1.33333 17V12.4756L8.66667 13.487V14.3333C8.66667 14.8856 9.11442 15.3333 9.66667 15.3333H10.3333C10.8856 15.3333 11.3333 14.8856 11.3333 14.3333V13.487L18.6667 12.4756V17ZM10.6667 14.3333C10.6667 14.5174 10.5174 14.6667 10.3333 14.6667H9.66667C9.48258 14.6667 9.33333 14.5174 9.33333 14.3333V12.3333C9.33333 12.1493 9.48258 12 9.66667 12H10.3333C10.5174 12 10.6667 12.1493 10.6667 12.3333V14.3333ZM19.3333 11.4199C19.3335 11.5861 19.2113 11.7271 19.0467 11.7503L18.9543 11.763L11.3333 12.814V12.3333C11.3333 11.7811 10.8856 11.3333 10.3333 11.3333H9.66667C9.11442 11.3333 8.66667 11.7811 8.66667 12.3333V12.814L0.953613 11.7503C0.789062 11.7272 0.666504 11.5863 0.666667 11.4199V4C0.666667 3.81592 0.815918 3.66667 1 3.66667H19C19.1841 3.66667 19.3333 3.81592 19.3333 4V11.4199Z" fill="#556182"/>
</svg>
