<svg width="76" height="76" viewBox="0 0 76 76" fill="none" xmlns="http://www.w3.org/2000/svg">
<path d="M45.1874 28.5112L52.4454 21.3978M56.5929 17.333L52.4454 21.3978L56.5929 17.333ZM36.6644 36.8644C37.7351 37.8999 38.5863 39.1327 39.1689 40.4919C39.7515 41.851 40.0541 43.3097 40.0591 44.784C40.0641 46.2582 39.7716 47.7189 39.1983 49.0819C38.625 50.4448 37.7822 51.6832 36.7186 52.7256C35.6549 53.7681 34.3914 54.594 33.0007 55.1559C31.61 55.7178 30.1197 56.0045 28.6155 55.9996C27.1112 55.9947 25.6229 55.6982 24.2361 55.1272C22.8493 54.5561 21.5914 53.7219 20.5349 52.6725C18.4573 50.5643 17.3077 47.7406 17.3337 44.8097C17.3597 41.8788 18.5592 39.0752 20.6738 37.0026C22.7885 34.9301 25.6492 33.7545 28.6396 33.729C31.6301 33.7036 34.5112 34.8303 36.6623 36.8665L36.6644 36.8644ZM36.6644 36.8644L45.1874 28.5112L36.6644 36.8644ZM45.1874 28.5112L51.4085 34.6085L58.6666 27.495L52.4454 21.3978L45.1874 28.5112Z" stroke="#624181" stroke-width="2" stroke-linecap="round" stroke-linejoin="round"/>
<circle opacity="0.2" cx="38" cy="38" r="38" fill="#BB6BD9"/>
</svg>
