<svg width="74" height="74" viewBox="0 0 74 74" fill="none" xmlns="http://www.w3.org/2000/svg">
<g clip-path="url(#clip0)">
<path d="M57.8027 9.21191H6.93632C3.10545 9.21191 0 12.3174 0 16.1482V53.1419C0 56.9728 3.10545 60.0783 6.93632 60.0783H9.24843V71.6388C9.24857 72.5745 9.81258 73.4178 10.6773 73.7752C10.9578 73.8898 11.2577 73.9493 11.5605 73.9509C12.1741 73.9521 12.7631 73.7092 13.1975 73.2758L26.3904 60.0783H62.4269C66.2578 60.0783 69.3632 56.9728 69.3632 53.1419V18.4603L57.8027 9.21191Z" fill="#EFF3FC"/>
<path d="M73.8763 14.3449C73.6067 13.5133 72.8909 12.9049 72.0266 12.7727L61.0395 11.1773L56.1563 1.25378C55.4909 0.104517 54.0196 -0.287674 52.8705 0.377779C52.5071 0.588181 52.2051 0.8902 51.9945 1.25378L47.1114 11.1773L36.1612 12.7727C34.8975 12.9562 34.0219 14.1295 34.2055 15.3932C34.2783 15.8945 34.5137 16.3581 34.8757 16.7125L42.8062 24.4396L40.9565 35.3435C40.8088 36.2118 41.1675 37.0887 41.8814 37.6047C42.274 37.8992 42.7501 38.0612 43.2409 38.0672C43.6152 38.0677 43.9838 37.9755 44.3137 37.799L54.1032 32.6337L63.9019 37.7805C65.0314 38.3761 66.4299 37.9433 67.0255 36.8139C67.2634 36.3628 67.3455 35.8459 67.2591 35.3435L65.4094 24.4396L73.3353 16.7125C73.949 16.0891 74.1584 15.1728 73.8763 14.3449Z" fill="#F2C94C"/>
<path d="M11.5605 73.9509C11.2574 73.9516 10.9571 73.892 10.6773 73.7752C9.81258 73.4178 9.24857 72.5745 9.24843 71.6388V60.0783H6.93632C3.10545 60.0783 0 56.9728 0 53.142V16.1482C0 12.3174 3.10545 9.21191 6.93632 9.21191H30.0574C31.3344 9.21191 32.3695 10.247 32.3695 11.524C32.3695 12.801 31.3344 13.8361 30.0574 13.8361H6.93632C5.65932 13.8361 4.62421 14.8712 4.62421 16.1482V53.142C4.62421 54.419 5.65932 55.4541 6.93632 55.4541H11.5605C12.8375 55.4541 13.8726 56.4892 13.8726 57.7662V66.0574L23.7962 56.1292C24.2306 55.6958 24.8196 55.4529 25.4332 55.4541H62.4269C63.7039 55.4541 64.739 54.419 64.739 53.142V43.8935C64.739 42.6165 65.7741 41.5814 67.0511 41.5814C68.3281 41.5814 69.3632 42.6165 69.3632 43.8935V53.142C69.3632 56.9728 66.2578 60.0783 62.4269 60.0783H26.3904L13.1975 73.2758C12.7631 73.709 12.1741 73.9519 11.5605 73.9509Z" fill="#556182"/>
<path d="M43.0317 37.9995C42.541 37.9936 42.0648 37.8316 41.6722 37.5371C40.9583 37.0211 40.5997 36.1442 40.7473 35.2759L42.597 24.3674L34.6942 16.6634C33.782 15.7699 33.7668 14.3061 34.6604 13.3938C35.0149 13.032 35.4785 12.7964 35.9798 12.7236L46.9299 11.1282L51.8316 1.20466C52.492 0.0553981 53.9589 -0.340839 55.1081 0.319412C55.4763 0.53097 55.7818 0.836457 55.9934 1.20466L60.858 11.1282L71.8082 12.7236C73.0716 12.9094 73.9452 14.0841 73.7593 15.3475C73.6858 15.8477 73.4504 16.3099 73.0891 16.6634L65.1817 24.3905L67.0314 35.2944C67.2477 36.5529 66.4031 37.7485 65.1445 37.9649C64.6421 38.0513 64.1252 37.9692 63.6742 37.7313L53.9217 32.5846L44.1045 37.7313C43.7745 37.9075 43.406 37.9997 43.0317 37.9995ZM41.2791 16.6218L46.7218 21.9258C47.266 22.4581 47.5134 23.2242 47.3831 23.9743L46.1022 31.4609L52.8258 27.928C53.4972 27.567 54.3047 27.567 54.976 27.928L61.7043 31.4609L60.4187 23.9604C60.2897 23.2096 60.5387 22.4434 61.0846 21.9119L66.5273 16.6079L59.0084 15.5259C58.2549 15.4176 57.6029 14.9455 57.265 14.2634L53.9217 7.44735L50.5368 14.2496C50.1998 14.9305 49.5498 15.4024 48.7981 15.512L41.2791 16.6218Z" fill="#556182"/>
</g>
<defs>
<clipPath id="clip0">
<rect width="74" height="74" fill="white"/>
</clipPath>
</defs>
</svg>
