<svg width="71" height="71" viewBox="0 0 71 71" fill="none" xmlns="http://www.w3.org/2000/svg">
<g clip-path="url(#clip0)">
<path d="M65.9099 3.94922H5.09009C2.28337 3.94922 0 6.23744 0 9.05012V62.8296C0 65.1568 1.88608 67.0502 4.20412 67.0502H66.7957C69.1139 67.0502 70.9999 65.1569 70.9999 62.8296V9.05012C71 6.23744 68.7166 3.94922 65.9099 3.94922ZM2.77344 9.05012C2.77344 7.76685 3.81264 6.72279 5.09009 6.72279H65.9099C67.1874 6.72279 68.2266 7.76685 68.2266 9.05012V17.2917H2.77344V9.05012ZM68.2266 62.8296C68.2266 63.6275 67.5848 64.2768 66.7959 64.2768H4.20412C3.41507 64.2768 2.77344 63.6275 2.77344 62.8296V20.065H68.2266V62.8296Z" fill="#020288"/>
<path d="M45.6195 10.6201H43.7566C42.9908 10.6201 42.3699 11.2411 42.3699 12.0068C42.3699 12.7726 42.9908 13.3936 43.7566 13.3936H45.6195C46.3852 13.3936 47.0062 12.7726 47.0062 12.0068C47.0062 11.241 46.3852 10.6201 45.6195 10.6201Z" fill="#020288"/>
<path d="M54.2351 10.6201H52.3723C51.6066 10.6201 50.9856 11.2411 50.9856 12.0068C50.9856 12.7726 51.6066 13.3936 52.3723 13.3936H54.2351C55.001 13.3936 55.6218 12.7726 55.6218 12.0068C55.6218 11.241 55.001 10.6201 54.2351 10.6201Z" fill="#020288"/>
<path d="M62.8508 10.6201H60.988C60.2223 10.6201 59.6013 11.2411 59.6013 12.0068C59.6013 12.7726 60.2223 13.3936 60.988 13.3936H62.8508C63.6166 13.3936 64.2375 12.7726 64.2375 12.0068C64.2375 11.241 63.6167 10.6201 62.8508 10.6201Z" fill="#020288"/>
<path d="M23.3269 10.6201H9.88281C9.11707 10.6201 8.49609 11.2411 8.49609 12.0068C8.49609 12.7726 9.11707 13.3936 9.88281 13.3936H23.3269C24.0927 13.3936 24.7136 12.7726 24.7136 12.0068C24.7136 11.241 24.0927 10.6201 23.3269 10.6201Z" fill="#020288"/>
<path d="M35.5001 60.1017C45.3329 60.1017 53.3039 52.1307 53.3039 42.2979C53.3039 32.4652 45.3329 24.4941 35.5001 24.4941C25.6673 24.4941 17.6963 32.4652 17.6963 42.2979C17.6963 52.1307 25.6673 60.1017 35.5001 60.1017Z" fill="#E2C4FF"/>
<path d="M41.0455 42.1843C42.0449 40.9551 42.6445 39.3886 42.6445 37.6846C42.6445 33.7452 39.4397 30.54 35.5001 30.54C31.5606 30.54 28.3558 33.745 28.3558 37.6846C28.3558 39.3881 28.9551 40.9543 29.9539 42.1833C28.002 43.2436 26.6812 45.3169 26.6812 47.6614V52.4143C26.6812 53.18 27.3021 53.801 28.0679 53.801H42.9322C43.698 53.801 44.319 53.18 44.319 52.4143V47.6614C44.3191 45.3215 42.997 43.2463 41.0455 42.1843ZM35.5001 33.3135C37.9102 33.3135 39.8711 35.2743 39.8711 37.6846C39.8711 40.0947 37.9102 42.0555 35.5001 42.0555C33.09 42.0555 31.1292 40.0947 31.1292 37.6846C31.1292 35.2743 33.09 33.3135 35.5001 33.3135ZM41.5457 51.0276H29.4547V47.6614C29.4547 45.8728 30.8396 44.3691 32.6149 44.2202C33.4977 44.6115 34.4741 44.8289 35.5003 44.8289C36.5264 44.8289 37.5028 44.6115 38.3856 44.2202C40.1594 44.3688 41.5458 45.8763 41.5458 47.6614V51.0276H41.5457Z" fill="#020288"/>
</g>
<defs>
<clipPath id="clip0">
<rect width="71" height="71" fill="white"/>
</clipPath>
</defs>
</svg>
