<svg width="76" height="76" viewBox="0 0 76 76" fill="none" xmlns="http://www.w3.org/2000/svg">
<path d="M53.5313 27.0371C52.6295 26.1353 52.1275 24.936 52.1275 23.653C52.1275 20.1852 49.3012 17.3589 45.8334 17.3589C44.5597 17.3589 43.3511 16.8569 42.4493 15.9551C39.9949 13.5007 36.0065 13.5007 33.5521 15.9551C32.6503 16.8569 31.451 17.3589 30.168 17.3589C26.7002 17.3589 23.8739 20.1852 23.8739 23.653C23.8739 24.9267 23.3812 26.1353 22.4701 27.0371C21.2801 28.2271 20.6293 29.8076 20.6293 31.4903C20.6293 33.1731 21.2801 34.7536 22.4701 35.9436C23.3719 36.8454 23.8739 38.0447 23.8739 39.3277C23.8739 42.1819 25.7798 44.5898 28.383 45.3614L24.7292 59.0094L30.2424 55.9414L33.4777 61.3616L36.8525 48.7641C37.2337 48.8292 37.6149 48.8664 37.9961 48.8664C38.3772 48.8664 38.7584 48.8292 39.1396 48.7641L42.5237 61.3523L45.759 55.9321L51.2722 59.0001L47.6184 45.3521C50.2216 44.5805 52.1275 42.1726 52.1275 39.3184C52.1275 38.0447 52.6295 36.8361 53.5313 35.9343C55.9857 33.4892 55.9857 29.4915 53.5313 27.0371ZM32.9571 57.5126L30.8002 53.9054L27.1279 55.9507L29.8984 45.6125C30.0006 45.6218 30.0936 45.6218 30.1866 45.6218C31.4603 45.6218 32.6689 46.1238 33.5707 47.0256C33.7194 47.1744 33.8682 47.3045 34.0262 47.4347C34.0727 47.4719 34.1192 47.509 34.1657 47.5462C34.2773 47.6299 34.3888 47.7136 34.5097 47.7973C34.5748 47.8437 34.6491 47.8809 34.7142 47.9274C34.8165 47.9832 34.9095 48.0483 35.0117 48.1041C35.0954 48.1505 35.1884 48.197 35.272 48.2342C35.3092 48.2528 35.365 48.2807 35.4208 48.2993L32.9571 57.5126ZM48.9014 55.9507L45.2291 53.9054L43.0722 57.5126L40.6085 48.2993C40.6643 48.2714 40.7108 48.2435 40.7666 48.2249C40.8595 48.1784 40.9432 48.1412 41.0362 48.0855C41.1384 48.0297 41.2314 47.9739 41.3244 47.9181C41.3988 47.8716 41.4638 47.8344 41.5382 47.788C41.6498 47.7136 41.752 47.6299 41.8636 47.5462C41.9194 47.509 41.9752 47.4719 42.0217 47.4254C42.1797 47.2952 42.3285 47.1651 42.4772 47.0163C43.379 46.1145 44.5783 45.6125 45.8613 45.6125C45.9357 45.6218 46.0287 45.6125 46.1309 45.6125L48.9014 55.9507ZM52.4622 34.8744C51.2722 36.0645 50.6214 37.6449 50.6214 39.3277C50.6214 41.6334 48.9851 43.5578 46.8096 44.0134L46.5679 44.0506C46.4377 44.0692 46.3262 44.0878 46.2053 44.0971C46.0844 44.1063 45.9543 44.1156 45.8334 44.1156C45.2012 44.1156 44.5876 44.2086 44.0019 44.3853C43.0257 44.6828 42.1239 45.2127 41.3895 45.9565C41.2593 46.0866 41.1291 46.1982 40.9897 46.3097C40.9432 46.3469 40.8967 46.3748 40.8502 46.412C40.7573 46.4864 40.655 46.5515 40.5527 46.6165C40.5062 46.6444 40.4505 46.6816 40.3947 46.7095C40.2831 46.7746 40.1716 46.8304 40.06 46.8862C40.0135 46.9047 39.9763 46.9233 39.9298 46.9512C39.7904 47.0163 39.6416 47.0721 39.5022 47.1186C39.4743 47.1279 39.4371 47.1465 39.4092 47.1558L39.3534 47.1744C38.4795 47.4254 37.5405 47.4254 36.6666 47.1744L36.5922 47.1558C36.5643 47.1465 36.5457 47.1372 36.5178 47.1279C36.3691 47.0814 36.2203 47.0163 36.0716 46.9605C36.0344 46.9419 35.9879 46.9233 35.9507 46.9047C35.8299 46.849 35.7183 46.7839 35.6067 46.7188C35.5602 46.6909 35.5138 46.663 35.4673 46.6351C35.3557 46.5701 35.2534 46.4957 35.1512 46.4213C35.114 46.3934 35.0675 46.3655 35.0303 46.3283C34.8909 46.2168 34.7607 46.0959 34.6305 45.975C33.8868 45.2313 32.9943 44.7014 32.0181 44.4039C31.4324 44.2272 30.8188 44.1342 30.1866 44.1342C30.0564 44.1342 29.9356 44.1249 29.8147 44.1156C29.7031 44.1064 29.5823 44.0878 29.4521 44.0692L29.2104 44.032C27.0349 43.5764 25.3986 41.6519 25.3986 39.3463C25.3986 37.6635 24.7478 36.083 23.5578 34.893C22.656 33.9912 22.154 32.7919 22.154 31.5089C22.154 30.2352 22.656 29.0266 23.5578 28.1248C24.7478 26.9348 25.3986 25.3543 25.3986 23.6716C25.3986 21.0312 27.5462 18.8929 30.1773 18.8929C31.86 18.8929 33.4405 18.2421 34.6305 17.0521C35.5602 16.1224 36.7874 15.6576 38.0146 15.6576C39.2419 15.6576 40.4691 16.1224 41.3988 17.0521C42.5888 18.2421 44.1693 18.8929 45.852 18.8929C48.4924 18.8929 50.6307 21.0405 50.6307 23.6716C50.6307 25.3543 51.2815 26.9348 52.4715 28.1248C54.3309 29.9749 54.3309 33.0057 52.4622 34.8744Z" fill="#F2994A"/>
<path d="M38.005 20.167C31.7575 20.167 26.672 25.2524 26.672 31.5C26.672 37.7476 31.7575 42.8238 38.005 42.8238C44.2526 42.8238 49.3381 37.7383 49.3381 31.4907C49.3381 25.2431 44.2526 20.167 38.005 20.167ZM38.005 41.3083C32.5942 41.3083 28.1874 36.9016 28.1874 31.4907C28.1874 26.0799 32.5942 21.6731 38.005 21.6731C43.4159 21.6731 47.8227 26.0799 47.8227 31.4907C47.8227 36.9016 43.4159 41.3083 38.005 41.3083Z" fill="#F2994A"/>
<path d="M38.0048 23.7646L36.3221 28.9524H30.8647L35.2808 32.1598L33.5981 37.3476L38.0141 34.1401L42.4302 37.3476L40.7381 32.1598L45.1542 28.9524H39.6969L38.0048 23.7646ZM39.5481 33.3963L38.0048 32.2714L36.4615 33.3963L37.0472 31.5834L35.5039 30.4585H37.4098L37.9955 28.6456L38.5812 30.4585H40.4871L38.9438 31.5834L39.5481 33.3963Z" fill="#F2994A"/>
<circle opacity="0.2" cx="38" cy="38" r="38" fill="#F2994A"/>
</svg>
