<svg width="67" height="67" viewBox="0 0 67 67" fill="none" xmlns="http://www.w3.org/2000/svg">
<g clip-path="url(#clip0)">
<path fill-rule="evenodd" clip-rule="evenodd" d="M33.4504 0.981445C15.5303 1.00827 1.00827 15.5303 0.981445 33.4504V33.5V33.5496C0.989951 39.2398 2.46147 44.5867 5.03796 49.236V62.3545H18.4938C22.9836 64.6943 28.0867 66.0186 33.5 66.0186C51.4595 66.0186 66.0186 51.4595 66.0186 33.5C66.0186 15.5571 51.4864 1.00827 33.5496 0.981445H33.4504ZM14.1944 49.8125V26.699H24.0089V28.6617H28.2546L33.4135 20.1978V13.0783H36.5015C38.1998 13.0783 39.5895 14.4679 39.5895 16.1662V26.3918H48.419C50.1174 26.3918 51.507 27.7814 51.507 29.4799C51.507 31.53 49.903 32.5679 48.0141 32.5679C49.6796 32.5679 51.0421 33.9305 51.0421 35.596C51.0421 37.5786 49.4891 38.6239 47.6484 38.6239C49.284 38.6239 50.6223 39.9621 50.6223 41.5978C50.6223 44.1936 48.4842 44.5718 46.4866 44.5718C48.1222 44.5718 49.4605 45.9099 49.4605 47.5455C49.4605 49.1813 48.1222 50.5194 46.4866 50.5194H34.3393L30.5089 47.8496H24.0088V49.8125H14.1944Z" fill="#D9692A"/>
<path fill-rule="evenodd" clip-rule="evenodd" d="M14.1941 26.6992V49.8128H24.0085C24.0087 42.1083 24.0087 34.4037 24.0085 26.6992H14.1941Z" fill="#AFD1F2"/>
<path fill-rule="evenodd" clip-rule="evenodd" d="M24.0085 28.6616V47.8494H30.5087L34.3391 50.5192H46.4864C48.122 50.5192 49.4603 49.181 49.4603 47.5453C49.4603 45.9097 48.122 44.5715 46.4864 44.5715C48.484 44.5715 50.6221 44.1933 50.6221 41.5976C50.6221 39.962 49.2838 38.6237 47.6482 38.6237C49.4888 38.6237 51.0419 37.5784 51.0419 35.5957C51.0419 33.9303 49.6794 32.5677 48.0139 32.5677C49.9027 32.5677 51.5068 31.5298 51.5068 29.4796C51.5068 27.7812 50.1172 26.3916 48.4188 26.3916H39.5893V16.166C39.5893 14.4676 38.1997 13.0781 36.5013 13.0781H33.4133V20.1977L28.2544 28.6616H24.0085Z" fill="#FEDBAD"/>
<path fill-rule="evenodd" clip-rule="evenodd" d="M14.1941 26.6992H17.1384V49.8128H14.1941V26.6992Z" fill="#99C5F2"/>
<path fill-rule="evenodd" clip-rule="evenodd" d="M24.0085 28.6615V47.8493H26.9529V31.6062H29.4037L36.3575 20.1975V13.0781H33.4131V20.1975L28.2543 28.6615H24.0085Z" fill="#FAB684"/>
<path fill-rule="evenodd" clip-rule="evenodd" d="M0.981455 33.4514C0.977267 38.9905 2.35208 44.3902 5.0381 49.2371V62.3555H7.98243V49.2371C-3.31453 28.8514 10.2165 2.12103 34.9718 1.01736C16.5063 0.193998 1.0092 14.8868 0.981455 33.4514Z" fill="#D9692A"/>
<path d="M63.0742 33.5H61.1113C61.1113 19.8118 50.9053 8.05832 37.3713 6.16007L37.6441 4.21629C44.6397 5.19747 51.0693 8.67781 55.7487 14.016C60.4726 19.405 63.0742 26.3246 63.0742 33.5ZM35.4857 5.96025C34.8243 5.91275 34.1563 5.88867 33.5 5.88867V3.92578C34.203 3.92578 34.9184 3.95156 35.6265 4.00246L35.4857 5.96025Z" fill="white"/>
<path d="M21.0642 39.458H19.1013V33.5693H21.0642V39.458ZM21.0642 31.6064H19.1013V29.6436H21.0642V31.6064Z" fill="white"/>
<path d="M13.8705 59.4102H11.9076V57.4473H13.8705V59.4102ZM9.94458 59.4102H7.98169V57.4473H9.94458V59.4102Z" fill="white"/>
<path d="M33.5 65.0376C28.4399 65.0376 23.4077 63.809 18.9474 61.4846L18.7342 61.3735H6.01953V48.9829L5.89652 48.7609C3.32317 44.1171 1.96289 38.8402 1.96289 33.5005C1.96289 25.159 5.18962 17.2943 11.0488 11.3552L9.65153 9.97656C3.4276 16.2854 0 24.6397 0 33.5005C0 39.0866 1.40177 44.6088 4.05664 49.4882V63.3364H18.2554C22.9411 65.7343 28.2063 67.0005 33.5 67.0005C42.0699 67.0005 50.2244 63.7654 56.4615 57.8911L55.1157 56.4623C49.2442 61.9922 41.5676 65.0376 33.5 65.0376Z" fill="black"/>
<path d="M57.1876 9.81197C50.8603 3.48465 42.4477 0 33.4995 0C25.2185 0 17.2681 3.04719 11.113 8.58006L12.4252 10.0398C18.2195 4.83133 25.7039 1.96289 33.4995 1.96289C50.8892 1.96289 65.0367 16.1104 65.0367 33.5C65.0367 41.5672 61.9913 49.2438 56.4613 55.1157L57.8903 56.4615C63.7644 50.224 66.9995 42.0693 66.9995 33.5C66.9995 24.5518 63.5149 16.1393 57.1876 9.81197Z" fill="black"/>
<path d="M52.4882 29.4796C52.4882 27.2358 50.6626 25.4102 48.4186 25.4102H36.4939V27.373H48.4186C49.5802 27.373 50.5253 28.318 50.5253 29.4796C50.5253 31.4344 48.6031 31.5862 48.0138 31.5862H44.9185V33.5491H48.0138C49.1424 33.5491 50.0605 34.4672 50.0605 35.5957C50.0605 37.1047 48.8144 37.6422 47.6482 37.6422H44.9185V39.6051H47.6482C48.7469 39.6051 49.6407 40.4989 49.6407 41.5976C49.6407 42.8277 49.1131 43.5901 46.4864 43.5901H44.9185V45.5529H46.4864C47.5851 45.5529 48.4789 46.4467 48.4789 47.5454C48.4789 48.6441 47.5851 49.5379 46.4864 49.5379H41.3943V51.5008H46.4864C48.6675 51.5008 50.4418 49.7264 50.4418 47.5454C50.4418 46.5931 50.1034 45.7182 49.5407 45.0349C49.617 45.0001 49.6921 44.9632 49.7659 44.9236C50.6042 44.4757 51.6036 43.5351 51.6036 41.5977C51.6036 40.4995 51.1537 39.5045 50.4286 38.7871C51.4265 38.0788 52.0234 36.9554 52.0234 35.5959C52.0234 34.4795 51.5647 33.4682 50.826 32.7406C51.8654 32.0229 52.4882 30.8735 52.4882 29.4796Z" fill="black"/>
<path d="M13.2126 50.7942H24.99V48.8311H30.2004L34.0308 51.5009H39.4312V49.538H34.6474L30.817 46.8682H24.99V39.2373H23.0271V48.8313H15.1755V43.9242H13.2126V50.7942Z" fill="black"/>
<path d="M13.2126 25.7173V41.9608H15.1755V27.6802H23.0271V37.274H24.99V29.643H28.8055L34.3946 20.4731V14.0596H36.5012C37.6627 14.0596 38.6076 15.0045 38.6076 16.166V23.4473H40.5705V16.166C40.5705 13.9222 38.745 12.0967 36.5012 12.0967H32.4317V19.9221L27.7031 27.6801H24.99V25.7173H13.2126Z" fill="black"/>
</g>
<defs>
<clipPath id="clip0">
<rect width="67" height="67" fill="white"/>
</clipPath>
</defs>
</svg>
