<svg width="67" height="67" viewBox="0 0 67 67" fill="none" xmlns="http://www.w3.org/2000/svg">
<path d="M9.1768 14.4649C12.0971 14.4649 14.4644 12.0976 14.4644 9.17728C14.4644 6.257 12.0971 3.88965 9.1768 3.88965C6.25651 3.88965 3.88916 6.257 3.88916 9.17728C3.88916 12.0976 6.25651 14.4649 9.1768 14.4649Z" fill="#D9692A"/>
<path d="M11.6628 4.51074C12.0584 5.25193 12.2833 6.0978 12.2833 6.99668C12.2833 9.91693 9.91596 12.2843 6.9957 12.2843C6.09696 12.2843 5.25095 12.0594 4.50977 11.6638C5.39948 13.3307 7.15535 14.4655 9.17673 14.4655C12.097 14.4655 14.4644 12.0981 14.4644 9.17784C14.4645 7.15633 13.3297 5.40045 11.6628 4.51074Z" fill="#D9692A"/>
<path d="M33.4999 8.91283C35.6901 8.91283 37.4656 7.13733 37.4656 4.94714C37.4656 2.75695 35.6901 0.981445 33.4999 0.981445C31.3097 0.981445 29.5342 2.75695 29.5342 4.94714C29.5342 7.13733 31.3097 8.91283 33.4999 8.91283Z" fill="#D9692A"/>
<path d="M35.3642 1.44727C35.6609 2.00316 35.8297 2.63756 35.8297 3.31175C35.8297 5.50194 34.0542 7.27745 31.864 7.27745C31.1899 7.27745 30.5554 7.10877 29.9995 6.81211C30.6668 8.06208 31.9836 8.91319 33.4997 8.91319C35.6899 8.91319 37.4654 7.13769 37.4654 4.94749C37.4654 3.43136 36.6143 2.11452 35.3642 1.44727Z" fill="#D9692A"/>
<path d="M33.4999 66.0183C35.6901 66.0183 37.4656 64.2428 37.4656 62.0526C37.4656 59.8624 35.6901 58.0869 33.4999 58.0869C31.3097 58.0869 29.5342 59.8624 29.5342 62.0526C29.5342 64.2428 31.3097 66.0183 33.4999 66.0183Z" fill="#D9692A"/>
<path d="M35.3642 58.5527C35.6609 59.1086 35.8297 59.743 35.8297 60.4172C35.8297 62.6074 34.0542 64.3829 31.864 64.3829C31.1899 64.3829 30.5554 64.2142 29.9995 63.9176C30.6668 65.1677 31.9837 66.0188 33.4997 66.0188C35.6899 66.0188 37.4654 64.2433 37.4654 62.0531C37.4654 60.5368 36.6143 59.22 35.3642 58.5527Z" fill="#D9692A"/>
<path d="M62.0526 37.4656C64.2428 37.4656 66.0183 35.6901 66.0183 33.4999C66.0183 31.3097 64.2428 29.5342 62.0526 29.5342C59.8624 29.5342 58.0869 31.3097 58.0869 33.4999C58.0869 35.6901 59.8624 37.4656 62.0526 37.4656Z" fill="#D9692A"/>
<path d="M63.917 30C64.2136 30.5559 64.3824 31.1903 64.3824 31.8645C64.3824 34.0547 62.6069 35.8302 60.4167 35.8302C59.7427 35.8302 59.1081 35.6615 58.5522 35.3648C59.2195 36.6149 60.5365 37.466 62.0525 37.466C64.2427 37.466 66.0182 35.6905 66.0182 33.5004C66.0182 31.9841 65.1671 30.6673 63.917 30Z" fill="#D9692A"/>
<path d="M4.94714 37.4656C7.13733 37.4656 8.91283 35.6901 8.91283 33.4999C8.91283 31.3097 7.13733 29.5342 4.94714 29.5342C2.75695 29.5342 0.981445 31.3097 0.981445 33.4999C0.981445 35.6901 2.75695 37.4656 4.94714 37.4656Z" fill="#D9692A"/>
<path d="M6.81198 30C7.10863 30.5559 7.27744 31.1903 7.27744 31.8645C7.27744 34.0547 5.50194 35.8302 3.31175 35.8302C2.63769 35.8302 2.00316 35.6615 1.44727 35.3648C2.11452 36.6149 3.43149 37.466 4.94749 37.466C7.13768 37.466 8.91318 35.6905 8.91318 33.5004C8.91331 31.9841 8.06221 30.6673 6.81198 30Z" fill="#D9692A"/>
<path d="M33.5001 33.5002C37.1504 33.5002 40.1095 30.541 40.1095 26.8907C40.1095 23.2404 37.1504 20.2812 33.5001 20.2812C29.8498 20.2812 26.8906 23.2404 26.8906 26.8907C26.8906 30.541 29.8498 33.5002 33.5001 33.5002Z" fill="#F1D0A5"/>
<path d="M36.7875 21.1572C37.344 22.1257 37.664 23.2474 37.664 24.4447C37.664 28.095 34.7049 31.0541 31.0545 31.0541C29.8573 31.0541 28.7356 30.7342 27.7671 30.1776C28.9075 32.1621 31.047 33.4996 33.5 33.4996C37.1504 33.4996 40.1095 30.5405 40.1095 26.8902C40.1095 24.4371 38.772 22.2977 36.7875 21.1572Z" fill="#F1B986"/>
<path d="M22.396 38.7875V44.6038H44.6038V38.7875C44.6038 35.8672 42.2364 33.5 39.3161 33.5H27.6835C24.7634 33.5 22.396 35.8674 22.396 38.7875Z" fill="#B8C1D9"/>
<path d="M39.3161 33.5H36.1436C39.0638 33.5 41.4311 35.8674 41.4311 38.7875V44.6038H44.6036V38.7875C44.6038 35.8674 42.2364 33.5 39.3161 33.5Z" fill="#556182"/>
<path d="M57.8228 14.4649C60.7431 14.4649 63.1104 12.0976 63.1104 9.17728C63.1104 6.257 60.7431 3.88965 57.8228 3.88965C54.9025 3.88965 52.5352 6.257 52.5352 9.17728C52.5352 12.0976 54.9025 14.4649 57.8228 14.4649Z" fill="#D9692A"/>
<path d="M60.3092 4.51074C60.7047 5.25193 60.9297 6.0978 60.9297 6.99668C60.9297 9.91693 58.5623 12.2843 55.6422 12.2843C54.7434 12.2843 53.8974 12.0594 53.1562 11.6638C54.046 13.3307 55.8018 14.4655 57.8232 14.4655C60.7435 14.4655 63.1109 12.0981 63.1109 9.17784C63.1107 7.15633 61.976 5.40045 60.3092 4.51074Z" fill="#D9692A"/>
<path d="M57.8228 63.1104C60.7431 63.1104 63.1104 60.7431 63.1104 57.8228C63.1104 54.9025 60.7431 52.5352 57.8228 52.5352C54.9025 52.5352 52.5352 54.9025 52.5352 57.8228C52.5352 60.7431 54.9025 63.1104 57.8228 63.1104Z" fill="#D9692A"/>
<path d="M60.3092 53.1562C60.7047 53.8974 60.9297 54.7433 60.9297 55.6422C60.9297 58.5624 58.5623 60.9297 55.6422 60.9297C54.7434 60.9297 53.8974 60.7047 53.1562 60.3092C54.046 61.976 55.8018 63.1109 57.8232 63.1109C60.7435 63.1109 63.1109 60.7435 63.1109 57.8232C63.1107 55.8018 61.976 54.0461 60.3092 53.1562Z" fill="#D9692A"/>
<path d="M9.1768 63.1104C12.0971 63.1104 14.4644 60.7431 14.4644 57.8228C14.4644 54.9025 12.0971 52.5352 9.1768 52.5352C6.25651 52.5352 3.88916 54.9025 3.88916 57.8228C3.88916 60.7431 6.25651 63.1104 9.1768 63.1104Z" fill="#D9692A"/>
<path d="M11.6628 53.1562C12.0584 53.8974 12.2833 54.7433 12.2833 55.6422C12.2833 58.5624 9.91596 60.9297 6.9957 60.9297C6.09696 60.9297 5.25095 60.7047 4.50977 60.3092C5.39948 61.976 7.15535 63.1109 9.17673 63.1109C12.097 63.1109 14.4644 60.7435 14.4644 57.8232C14.4645 55.8018 13.3297 54.0461 11.6628 53.1562Z" fill="#D9692A"/>
<path d="M54.2861 34.4814H57.204C57.6606 36.7407 59.6611 38.4471 62.053 38.4471C64.7808 38.4471 67 36.2279 67 33.5C67 30.7721 64.7808 28.5529 62.0529 28.5529C59.661 28.5529 57.6604 30.2593 57.2039 32.5186H54.286C54.0526 27.5193 52.0479 22.9754 48.8854 19.5025L54.1412 14.2468C55.1758 15.0001 56.4479 15.4462 57.8228 15.4462C61.2796 15.4462 64.0918 12.6339 64.0918 9.17717C64.0918 5.72039 61.2796 2.90822 57.8228 2.90822C54.3661 2.90822 51.5539 5.72052 51.5539 9.17717C51.5539 10.5521 51.9999 11.8242 52.7533 12.8588L47.4975 18.1145C44.0246 14.9521 39.4807 12.9472 34.4814 12.714V9.79613C36.7407 9.33956 38.4471 7.33899 38.4471 4.94714C38.4471 2.21924 36.2279 0 33.5 0C30.7721 0 28.5529 2.21924 28.5529 4.94714C28.5529 7.33899 30.2593 9.33956 32.5186 9.79613V12.7139C27.5193 12.9472 22.9754 14.952 19.5025 18.1143L14.2471 12.859C15.0005 11.8243 15.4466 10.5521 15.4466 9.17717C15.4466 7.0897 14.4127 5.14578 12.6809 3.97721C12.2313 3.67414 11.6214 3.79244 11.3184 4.24181C11.0152 4.69118 11.1336 5.30111 11.5829 5.60431C12.7732 6.4074 13.4836 7.74308 13.4836 9.17717C13.4836 11.5517 11.5516 13.4838 9.17704 13.4838C6.80246 13.4838 4.87059 11.5517 4.87059 9.17717C4.87059 7.25955 6.15759 5.55511 8.00035 5.03233C8.52182 4.88433 8.82463 4.34165 8.67663 3.82018C8.52863 3.2987 7.98569 2.99629 7.46461 3.1439C4.78147 3.90524 2.9077 6.3862 2.9077 9.17717C2.9077 12.6342 5.72012 15.4466 9.17717 15.4466C10.5522 15.4466 11.8245 15.0005 12.859 14.2471L18.1145 19.5024C14.952 22.9752 12.9472 27.5192 12.7139 32.5184H9.79613C9.33956 30.2591 7.33899 28.5527 4.94714 28.5527C2.21924 28.5529 0 30.7721 0 33.5C0 36.2279 2.21924 38.4471 4.94714 38.4471C7.33899 38.4471 9.33956 36.7407 9.79613 34.4814H12.714C12.9474 39.4807 14.9521 44.0246 18.1146 47.4975L12.8588 52.7532C11.8242 51.9999 10.5521 51.5538 9.17717 51.5538C5.72039 51.5538 2.90822 54.3661 2.90822 57.8228C2.90822 61.2796 5.72039 64.0918 9.17717 64.0918C12.6339 64.0918 15.4461 61.2795 15.4461 57.8228C15.4461 56.4479 15.0001 55.1758 14.2467 54.1412L19.5025 48.8855C22.9754 52.0479 27.5193 54.0528 32.5186 54.286V57.2037C30.2593 57.6603 28.5529 59.6609 28.5529 62.0527C28.5529 64.7808 30.7721 67 33.5 67C36.2279 67 38.4471 64.7808 38.4471 62.0529C38.4471 59.661 36.7407 57.6604 34.4814 57.2039V54.2861C39.4807 54.0528 44.0246 52.048 47.4975 48.8857L52.7529 54.141C51.9995 55.1757 51.5534 56.4479 51.5534 57.8228C51.5534 61.2797 54.3658 64.0923 57.8228 64.0923C61.2799 64.0923 64.0923 61.2799 64.0923 57.8228C64.0923 57.1442 63.9842 56.4759 63.771 55.8361C63.5995 55.322 63.0435 55.044 62.5297 55.2153C62.0154 55.3868 61.7375 55.9425 61.9089 56.4568C62.0552 56.8958 62.1295 57.3555 62.1295 57.8227C62.1295 60.1973 60.1975 62.1293 57.823 62.1293C55.4484 62.1293 53.5164 60.1974 53.5164 57.8227C53.5164 55.448 55.4484 53.5161 57.823 53.5161C58.3664 53.5161 58.8964 53.6161 59.3981 53.8133C59.9021 54.0116 60.4722 53.7633 60.6706 53.2589C60.8688 52.7544 60.6206 52.1848 60.1161 51.9864C59.3848 51.699 58.6134 51.5532 57.8231 51.5532C56.448 51.5532 55.1758 51.9993 54.1412 52.7528L48.8858 47.4975C52.0479 44.0246 54.0528 39.4807 54.2861 34.4814ZM62.0529 30.5158C63.6984 30.5158 65.0371 31.8544 65.0371 33.5C65.0371 35.1456 63.6984 36.4842 62.0529 36.4842C60.4073 36.4842 59.0686 35.1456 59.0686 33.5C59.0686 31.8544 60.4074 30.5158 62.0529 30.5158ZM57.8228 4.87111C60.1973 4.87111 62.1289 6.80286 62.1289 9.17717C62.1289 11.5516 60.1971 13.4834 57.8228 13.4834C55.4485 13.4834 53.5168 11.5516 53.5168 9.17717C53.5168 6.80272 55.4485 4.87111 57.8228 4.87111ZM30.5158 4.94714C30.5158 3.30158 31.8546 1.96289 33.5 1.96289C35.1454 1.96289 36.4842 3.30158 36.4842 4.94714C36.4842 6.5927 35.1454 7.93139 33.5 7.93139C31.8546 7.93139 30.5158 6.59256 30.5158 4.94714ZM4.94714 36.4842C3.30158 36.4842 1.96289 35.1456 1.96289 33.5C1.96289 31.8544 3.30158 30.5158 4.94714 30.5158C6.5927 30.5158 7.93126 31.8544 7.93126 33.5C7.93126 35.1456 6.59256 36.4842 4.94714 36.4842ZM33.5 14.6531C43.8922 14.6531 52.3469 23.1078 52.3469 33.5C52.3469 43.8922 43.8922 52.3469 33.5 52.3469C23.1078 52.3469 14.6531 43.8923 14.6531 33.5C14.6531 23.1077 23.1078 14.6531 33.5 14.6531ZM9.17717 62.1289C6.80272 62.1289 4.87111 60.1971 4.87111 57.8228C4.87111 55.4484 6.80286 53.5166 9.17717 53.5166C11.5515 53.5166 13.4832 55.4484 13.4832 57.8228C13.4832 60.1973 11.5515 62.1289 9.17717 62.1289ZM36.4842 62.0529C36.4842 63.6984 35.1454 65.0371 33.5 65.0371C31.8546 65.0371 30.5158 63.6984 30.5158 62.0529C30.5158 60.4073 31.8546 59.0686 33.5 59.0686C35.1454 59.0686 36.4842 60.4074 36.4842 62.0529Z" fill="black"/>
<path d="M22.3972 45.585H27.9398C27.9428 45.585 27.9456 45.5854 27.9486 45.5854C27.9517 45.5854 27.9545 45.585 27.9575 45.585H31.2106C31.7527 45.585 32.192 45.1456 32.192 44.6036C32.192 44.0615 31.7527 43.6221 31.2106 43.6221H28.9301V41.9602C28.9301 41.4182 28.4908 40.9788 27.9486 40.9788C27.4065 40.9788 26.9672 41.4182 26.9672 41.9602V43.6221H23.3786V38.7882C23.3786 36.4136 25.31 34.4816 27.6838 34.4816H39.3172C41.6911 34.4816 43.6223 36.4136 43.6223 38.7882V43.6221H40.0338V41.9602C40.0338 41.4182 39.5945 40.9788 39.0523 40.9788C38.5102 40.9788 38.0709 41.4182 38.0709 41.9602V43.6221H35.7907C35.2485 43.6221 34.8092 44.0615 34.8092 44.6036C34.8092 45.1456 35.2485 45.585 35.7907 45.585H39.0437C39.0467 45.585 39.0496 45.5854 39.0526 45.5854C39.0556 45.5854 39.0585 45.585 39.0615 45.585H44.604C45.1462 45.585 45.5855 45.1456 45.5855 44.6036V38.7882C45.5855 35.3311 42.7737 32.5187 39.3175 32.5187H38.5888C40.1249 31.1287 41.0916 29.1205 41.0916 26.8907C41.0916 22.705 37.6864 19.2998 33.5008 19.2998C29.3151 19.2998 25.9099 22.705 25.9099 26.8907C25.9099 29.1205 26.8766 31.1287 28.4127 32.5187H27.6841C24.2278 32.5187 21.416 35.3311 21.416 38.7882V44.6036C21.4158 45.1456 21.8552 45.585 22.3972 45.585ZM27.8726 26.8907C27.8726 23.7875 30.3973 21.2627 33.5006 21.2627C36.604 21.2627 39.1286 23.7874 39.1286 26.8907C39.1286 29.994 36.604 32.5187 33.5006 32.5187C30.3973 32.5187 27.8726 29.994 27.8726 26.8907Z" fill="black"/>
</svg>
