<svg width="64" height="64" viewBox="0 0 64 64" fill="none" xmlns="http://www.w3.org/2000/svg">
<path d="M14.6527 0.9375H46.4576C48.5015 0.9375 50.1584 2.59438 50.1584 4.63825V59.3619C50.1584 61.4058 48.5015 63.0626 46.4576 63.0626H4.98737C2.9435 63.0626 1.28662 61.4058 1.28662 59.3619V14.3038C1.28662 13.3223 1.6765 12.3809 2.37062 11.6869L12.036 2.0215C12.73 1.32737 13.6712 0.9375 14.6527 0.9375Z" fill="#F4FBFF"/>
<path d="M46.4579 0.9375H38.5112C40.5551 0.9375 42.212 2.59438 42.212 4.63825V59.3619C42.212 61.4058 40.5551 63.0626 38.5112 63.0626H46.4579C48.5017 63.0626 50.1586 61.4058 50.1586 59.3619V4.63838C50.1587 2.59438 48.5017 0.9375 46.4579 0.9375Z" fill="#E4F6FF"/>
<path d="M2.37064 11.6864L12.036 2.02103C12.3525 1.70453 12.7204 1.45141 13.12 1.26953V10.4759C13.12 11.743 12.0928 12.7703 10.8256 12.7703H1.61914C1.80102 12.3707 2.05414 12.0028 2.37064 11.6864Z" fill="#E28086"/>
<path d="M41.0477 12.7711H21.8017C21.1588 12.7711 20.6377 12.25 20.6377 11.6071V8.56537C20.6377 7.92249 21.1588 7.40137 21.8017 7.40137H41.0477C41.6906 7.40137 42.2117 7.92249 42.2117 8.56537V11.6071C42.2117 12.25 41.6904 12.7711 41.0477 12.7711Z" fill="#CBE2FF"/>
<path d="M54.1482 55.9861L50.7103 53.8697C50.3721 53.6615 49.9453 53.6615 49.6071 53.8697L46.1692 55.9861C45.4682 56.4177 44.5654 55.9134 44.5654 55.0901V41.4746H55.7521V55.09C55.7519 55.9132 54.8492 56.4176 54.1482 55.9861Z" fill="#E8AE4D"/>
<path d="M52.3813 22.5917C53.0883 23.5054 54.2825 23.8934 55.3916 23.5698C57.1568 23.0547 58.9329 24.3452 58.9885 26.183C59.0234 27.3379 59.7615 28.3537 60.849 28.7438C62.5798 29.3647 63.2583 31.4527 62.2229 32.9722C61.5724 33.927 61.5724 35.1827 62.2229 36.1374C63.2581 37.6569 62.5798 39.745 60.849 40.3658C59.7615 40.7559 59.0234 41.7717 58.9885 42.9265C58.9329 44.7644 57.1568 46.0549 55.3916 45.5398C54.2825 45.2162 53.0884 45.6042 52.3813 46.5179C51.256 47.9721 49.0605 47.9721 47.9353 46.5179C47.2283 45.6042 46.034 45.2162 44.9249 45.5398C43.1598 46.0548 41.3836 44.7644 41.328 42.9265C41.2931 41.7717 40.555 40.7559 39.4675 40.3658C37.7368 39.7449 37.0583 37.6569 38.0936 36.1374C38.7441 35.1825 38.7441 33.9269 38.0936 32.9722C37.0584 31.4527 37.7368 29.3645 39.4675 28.7438C40.555 28.3537 41.2931 27.3379 41.328 26.183C41.3836 24.3452 43.1598 23.0547 44.9249 23.5698C46.034 23.8934 47.2281 23.5054 47.9353 22.5917C49.0605 21.1374 51.2559 21.1374 52.3813 22.5917Z" fill="#FFE07D"/>
<path d="M62.2231 36.1374C61.5726 35.1825 61.5726 33.9269 62.2231 32.9722C63.2584 31.4525 62.5799 29.3645 60.8492 28.7438C59.7617 28.3537 59.0236 27.3379 58.9887 26.183C58.9331 24.3452 57.1569 23.0547 55.3918 23.5698C54.2827 23.8934 53.0886 23.5054 52.3814 22.5917C51.2562 21.1374 49.0607 21.1374 47.9354 22.5917C47.7769 22.7964 47.5941 22.9748 47.3931 23.1247C51.7321 25.1013 54.7483 29.4758 54.7483 34.5548C54.7483 39.6338 51.7321 44.0084 47.3931 45.9849C47.5941 46.1348 47.7771 46.3132 47.9354 46.5179C49.0607 47.9721 51.2562 47.9721 52.3814 46.5179C53.0886 45.6042 54.2827 45.2162 55.3918 45.5398C57.1569 46.0549 58.9331 44.7644 58.9887 42.9265C59.0237 41.7717 59.7617 40.7559 60.8492 40.3658C62.5799 39.7449 63.2583 37.6569 62.2231 36.1374Z" fill="#FFD064"/>
<path d="M50.1581 41.4745C53.9796 41.4745 57.0775 38.3766 57.0775 34.5551C57.0775 30.7336 53.9796 27.6357 50.1581 27.6357C46.3367 27.6357 43.2388 30.7336 43.2388 34.5551C43.2388 38.3766 46.3367 41.4745 50.1581 41.4745Z" fill="#E8AE4D"/>
<path d="M57.0773 34.5545C57.0773 31.7719 55.4348 29.373 53.0664 28.2744C54.1358 30.1217 54.7478 32.2667 54.7478 34.5545C54.7478 36.8424 54.1357 38.9874 53.0664 40.8347C55.4348 39.736 57.0773 37.337 57.0773 34.5545Z" fill="#E5A32E"/>
<path d="M2.37064 11.6864L12.036 2.02103C12.3525 1.70453 12.7204 1.45141 13.12 1.26953V10.4759C13.12 11.743 12.0928 12.7703 10.8256 12.7703H1.61914C1.80102 12.3707 2.05414 12.0028 2.37064 11.6864Z" fill="#E28086"/>
<path d="M32.3465 22.6885H8.34851C7.83076 22.6885 7.41113 23.1082 7.41113 23.6259C7.41113 24.1436 7.83076 24.5632 8.34851 24.5632H32.3466C32.8644 24.5632 33.284 24.1435 33.284 23.6259C33.284 23.1082 32.8644 22.6885 32.3465 22.6885Z" fill="black"/>
<path d="M32.3465 29.2754H8.34851C7.83076 29.2754 7.41113 29.6951 7.41113 30.2128C7.41113 30.7304 7.83076 31.1501 8.34851 31.1501H32.3466C32.8644 31.1501 33.284 30.7304 33.284 30.2128C33.284 29.6951 32.8644 29.2754 32.3465 29.2754Z" fill="black"/>
<path d="M32.3465 35.8623H8.34851C7.83076 35.8623 7.41113 36.2821 7.41113 36.7997C7.41113 37.3173 7.83076 37.7371 8.34851 37.7371H32.3466C32.8644 37.7371 33.284 37.3173 33.284 36.7997C33.284 36.2821 32.8644 35.8623 32.3465 35.8623Z" fill="black"/>
<path d="M33.284 43.3866C33.284 42.8688 32.8644 42.4492 32.3466 42.4492H8.34851C7.83076 42.4492 7.41113 42.869 7.41113 43.3866C7.41113 43.9042 7.83076 44.324 8.34851 44.324H32.3466C32.8644 44.324 33.284 43.9043 33.284 43.3866Z" fill="black"/>
<path d="M8.34851 52.1025C7.83076 52.1025 7.41113 52.5223 7.41113 53.0399C7.41113 53.5575 7.83076 53.9773 8.34851 53.9773H20.3783C20.896 53.9773 21.3156 53.5575 21.3156 53.0399C21.3156 52.5223 20.896 52.1025 20.3783 52.1025H8.34851Z" fill="black"/>
<path d="M43.1489 11.6061V8.56439C43.1489 7.40564 42.2063 6.46289 41.0474 6.46289H21.8016C20.6428 6.46289 19.7002 7.40564 19.7002 8.56439V11.6061C19.7002 12.7649 20.6428 13.7075 21.8016 13.7075H23.4268C23.9446 13.7075 24.3642 13.2878 24.3642 12.7701C24.3642 12.2524 23.9446 11.8328 23.4268 11.8328H21.8016C21.6767 11.8328 21.5751 11.7311 21.5751 11.6063V8.56439C21.5751 8.43952 21.6767 8.33777 21.8016 8.33777H41.0474C41.1724 8.33777 41.2741 8.43939 41.2741 8.56439V11.6061C41.2741 11.731 41.1724 11.8326 41.0474 11.8326H27.8093C27.2916 11.8326 26.8719 12.2524 26.8719 12.77C26.8719 13.2878 27.2916 13.7074 27.8093 13.7074H41.0476C42.2063 13.7076 43.1489 12.7649 43.1489 11.6061Z" fill="black"/>
<path d="M50.1584 57.162C49.6406 57.162 49.221 57.5818 49.221 58.0994V59.3618C49.221 60.8854 47.9814 62.1251 46.4575 62.1251H4.98725C3.46362 62.1251 2.22387 60.8855 2.22387 59.3618V14.3035C2.22387 14.1006 2.24762 13.9016 2.29 13.708H10.8254C12.6074 13.708 14.0571 12.2582 14.0571 10.4762V1.941C14.2507 1.89863 14.4496 1.87487 14.6525 1.87487H46.4574C47.9811 1.87487 49.2209 3.1145 49.2209 4.63825V17.1185C49.2209 17.6362 49.6405 18.0559 50.1582 18.0559C50.676 18.0559 51.0956 17.6361 51.0956 17.1185V4.63812C51.0957 2.08075 49.015 0 46.4575 0H14.6526C13.4137 0 12.2489 0.4825 11.3729 1.3585L1.7075 11.0239C0.831496 11.8999 0.349121 13.0646 0.349121 14.3036V59.3619C0.349121 61.9194 2.42975 64 4.98725 64H46.4575C49.015 64 51.0957 61.9193 51.0957 59.3619V58.0995C51.0957 57.5817 50.6761 57.162 50.1584 57.162ZM12.1824 3.2005V10.4762C12.1824 11.2245 11.5736 11.8333 10.8254 11.8333H3.54962L12.1824 3.2005Z" fill="black"/>
<path d="M62.9974 33.5C63.6554 32.5341 63.8257 31.3427 63.4646 30.2312C63.1034 29.1197 62.2653 28.256 61.1653 27.8615C60.4356 27.5997 59.9487 26.9297 59.9255 26.1547C59.8901 24.9866 59.3275 23.9226 58.3818 23.2356C57.4365 22.5487 56.2505 22.3426 55.129 22.6699C54.3842 22.8871 53.5971 22.6311 53.1226 22.018C52.4075 21.0936 51.327 20.5635 50.1582 20.5635C48.9896 20.5635 47.909 21.0936 47.1937 22.018C46.7192 22.6312 45.9316 22.8869 45.1875 22.6699C44.0658 22.3424 42.88 22.5487 41.9343 23.2356C40.9888 23.9226 40.4265 24.9865 40.391 26.1546C40.3676 26.9296 39.8808 27.5995 39.151 27.8614C38.051 28.2559 37.2128 29.1197 36.8518 30.2311C36.4907 31.3426 36.661 32.5341 37.319 33.4999C37.7555 34.1407 37.7555 34.9687 37.319 35.6095C36.661 36.5754 36.4907 37.7667 36.8518 38.8782C37.2128 39.9897 38.051 40.8535 39.151 41.2481C39.8808 41.51 40.3677 42.1799 40.391 42.9549C40.4236 44.0294 40.916 45.039 41.7422 45.7246C42.2873 46.1771 42.9422 46.4602 43.6276 46.5549V55.0896C43.6276 55.8097 44.0182 56.4754 44.6468 56.8265C45.2747 57.1774 46.0466 57.1617 46.6602 56.7839L50.0983 54.6674C50.1543 54.6327 50.1877 54.6484 50.2186 54.6674L53.6565 56.7839C54.2698 57.1614 55.0415 57.1776 55.67 56.8264C56.2987 56.4751 56.6892 55.8095 56.6892 55.0895V46.5546C57.3743 46.4601 58.0292 46.177 58.5743 45.7246C59.4007 45.039 59.8932 44.0295 59.9258 42.9547C59.9491 42.1797 60.4359 41.5097 61.1657 41.248C62.2658 40.8535 63.1039 39.9896 63.4649 38.8781C63.8261 37.7666 63.6558 36.5752 62.9978 35.6094C62.5608 34.9689 62.5608 34.1409 62.9974 33.5ZM54.6391 55.1874L51.2011 53.0709C50.562 52.6775 49.755 52.6769 49.1152 53.0709L45.6772 55.1872C45.599 55.2349 45.5023 55.18 45.5023 55.0895V46.3769C46.1468 46.3022 46.7858 46.5645 47.1937 47.0916C47.9091 48.0159 48.9896 48.546 50.1583 48.546C51.327 48.546 52.4075 48.0159 53.1226 47.0916C53.5306 46.5644 54.1697 46.3022 54.8141 46.3769V55.0895C54.8141 55.1806 54.7162 55.235 54.6391 55.1874ZM61.4481 36.6654C61.7771 37.1481 61.8621 37.7435 61.6816 38.299C61.5011 38.8545 61.0822 39.2862 60.5323 39.4835C59.0721 40.0072 58.0983 41.3476 58.0515 42.8982C58.0348 43.4434 57.7952 43.9347 57.3768 44.282C56.9065 44.6724 56.2695 44.8196 55.6542 44.6401C54.1651 44.2056 52.5892 44.7176 51.6397 45.9444C51.2823 46.4062 50.7422 46.6712 50.1581 46.6712C49.5741 46.6712 49.034 46.4064 48.6763 45.9444C47.9515 45.0074 46.8613 44.4874 45.7235 44.4874C45.3712 44.4874 45.0142 44.5372 44.6622 44.64C44.041 44.821 43.4058 44.6692 42.9392 44.2819C42.5208 43.9346 42.2812 43.4432 42.2648 42.8982C42.2178 41.3476 41.2441 40.0072 39.7837 39.4834C39.234 39.2861 38.8152 38.8545 38.6346 38.299C38.4541 37.7435 38.5391 37.148 38.8681 36.6652C39.7415 35.3831 39.7415 33.7265 38.8681 32.4444C38.5391 31.9616 38.4541 31.3661 38.6346 30.8105C38.8151 30.255 39.234 29.8232 39.7837 29.6261C41.2441 29.1022 42.2178 27.7619 42.2648 26.2112C42.2825 25.6274 42.5635 25.0956 43.0361 24.7524C43.5085 24.409 44.101 24.306 44.6621 24.4695C46.1508 24.9041 47.7271 24.392 48.6763 23.1652C49.0338 22.7032 49.5738 22.4382 50.1581 22.4382C50.7422 22.4382 51.2822 22.7031 51.6397 23.1651C52.5891 24.392 54.1646 24.904 55.6541 24.4695C56.2148 24.3057 56.8073 24.4089 57.28 24.7522C57.7526 25.0955 58.0338 25.6274 58.0513 26.2111C58.0983 27.7617 59.0721 29.1022 60.5323 29.626C61.0822 29.8231 61.5009 30.2549 61.6816 30.8104C61.8621 31.3659 61.7771 31.9615 61.4481 32.4441C60.5744 33.7264 60.5744 35.3832 61.4481 36.6654Z" fill="black"/>
<path d="M50.1585 26.6982C45.8263 26.6982 42.3018 30.2227 42.3018 34.555C42.3018 38.8872 45.8263 42.4117 50.1585 42.4117C54.4906 42.4117 58.0151 38.8872 58.0151 34.555C58.0151 30.2227 54.4906 26.6982 50.1585 26.6982ZM50.1585 40.537C46.86 40.537 44.1765 37.8535 44.1765 34.5551C44.1765 31.2567 46.86 28.5731 50.1585 28.5731C53.457 28.5731 56.1404 31.2566 56.1404 34.5551C56.1404 37.8536 53.4569 40.537 50.1585 40.537Z" fill="black"/>
</svg>
