<svg width="76" height="76" viewBox="0 0 76 76" fill="none" xmlns="http://www.w3.org/2000/svg">
<circle opacity="0.2" cx="38" cy="38" r="38" fill="#2F80ED"/>
<path d="M45.0005 48.333C45.0005 48.6866 44.86 49.0258 44.61 49.2758C44.3599 49.5259 44.0208 49.6663 43.6672 49.6663H25.0005C24.7072 49.6663 24.4272 49.933 24.1872 50.1063L19.6672 53.6663V32.333C19.6672 31.9794 19.8076 31.6402 20.0577 31.3902C20.3077 31.1402 20.6469 30.9997 21.0005 30.9997H26.1472V28.333H21.0005C19.9396 28.333 18.9222 28.7544 18.1721 29.5046C17.4219 30.2547 17.0005 31.2721 17.0005 32.333V56.333C17.0025 56.5806 17.0734 56.8228 17.2053 57.0324C17.3371 57.242 17.5248 57.4107 17.7472 57.5197C17.9614 57.6171 18.1976 57.6561 18.4318 57.6327C18.666 57.6092 18.8898 57.5243 19.0805 57.3863L25.9472 52.333H43.8672C44.3725 52.3479 44.8755 52.259 45.3451 52.0716C45.8147 51.8842 46.2407 51.6025 46.597 51.2437C46.9532 50.885 47.232 50.4569 47.4161 49.9861C47.6002 49.5152 47.6856 49.0116 47.6672 48.5063V46.9997H45.0005V48.333Z" fill="#556182"/>
<path d="M55.6672 19H33.0005C31.9396 19 30.9222 19.4214 30.1721 20.1716C29.4219 20.9217 29.0005 21.9391 29.0005 23V39C29.0005 40.0609 29.4219 41.0783 30.1721 41.8284C30.9222 42.5786 31.9396 43 33.0005 43H51.0672L57.4405 47.9467C57.63 48.0867 57.8532 48.1741 58.0874 48.1999C58.3216 48.2256 58.5584 48.1889 58.7738 48.0933C59.0007 47.9853 59.1925 47.8153 59.3269 47.603C59.4614 47.3906 59.5331 47.1446 59.5338 46.8933V23C59.5344 21.9618 59.1313 20.9641 58.4098 20.2177C57.6882 19.4713 56.7047 19.0346 55.6672 19ZM57.0005 44.2533L52.3338 40.6133C52.1011 40.4327 51.8151 40.3342 51.5205 40.3333H33.0005C32.6469 40.3333 32.3077 40.1929 32.0577 39.9428C31.8076 39.6928 31.6672 39.3536 31.6672 39V23C31.6672 22.6464 31.8076 22.3072 32.0577 22.0572C32.3077 21.8071 32.6469 21.6667 33.0005 21.6667H55.6672C56.0236 21.699 56.3558 21.8606 56.6014 22.1209C56.847 22.3812 56.9889 22.7223 57.0005 23.08V44.2533Z" fill="#556182"/>
</svg>
