<svg width="76" height="76" viewBox="0 0 76 76" fill="none" xmlns="http://www.w3.org/2000/svg">
<circle opacity="0.2" cx="38" cy="38" r="38" fill="#27AE60"/>
<path d="M50.9998 53.6667V49.7778C50.9998 47.715 50.2038 45.7367 48.7869 44.2781C47.3699 42.8194 45.4481 42 43.4443 42H30.2221C28.2182 42 26.2964 42.8194 24.8795 44.2781C23.4625 45.7367 22.6665 47.715 22.6665 49.7778V53.6667" stroke="#219653" stroke-width="2" stroke-linecap="round" stroke-linejoin="round"/>
<path d="M36.8324 34.2225C41.0052 34.2225 44.388 30.7403 44.388 26.4448C44.388 22.1492 41.0052 18.667 36.8324 18.667C32.6596 18.667 29.2769 22.1492 29.2769 26.4448C29.2769 30.7403 32.6596 34.2225 36.8324 34.2225Z" stroke="#219653" stroke-width="2" stroke-linecap="round" stroke-linejoin="round"/>
<path d="M49.333 34L55.5552 40L67.9997 28" stroke="#219653" stroke-width="2" stroke-linecap="round" stroke-linejoin="round"/>
</svg>
