<svg width="76" height="76" viewBox="0 0 76 76" fill="none" xmlns="http://www.w3.org/2000/svg">
<circle opacity="0.2" cx="38" cy="38" r="38" fill="#E42F2F"/>
<path d="M53.4706 28.6445H22.916C20.8066 28.6445 19.0967 30.3545 19.0967 32.4639V51.5605C19.0967 53.6698 20.8066 55.3798 22.916 55.3798H53.4706C55.58 55.3798 57.2899 53.6698 57.2899 51.5605V32.4639C57.2899 30.3545 55.58 28.6445 53.4706 28.6445Z" stroke="#D64141" stroke-width="1.5" stroke-linecap="round" stroke-linejoin="round"/>
<path d="M45.8327 55.3798V24.8252C45.8327 23.8122 45.4303 22.8408 44.7141 22.1245C43.9978 21.4083 43.0263 21.0059 42.0134 21.0059H34.3747C33.3618 21.0059 32.3903 21.4083 31.6741 22.1245C30.9578 22.8408 30.5554 23.8122 30.5554 24.8252V55.3798" stroke="#D64141" stroke-width="1.5" stroke-linecap="round" stroke-linejoin="round"/>
</svg>
