<svg width="72" height="72" viewBox="0 0 72 72" fill="none" xmlns="http://www.w3.org/2000/svg">
<g clip-path="url(#clip0)">
<path d="M37.8246 3.64964C37.9674 3.93019 38.0394 4.24055 38.0357 4.55583C38.0394 5.68181 37.1295 6.59672 36.0048 6.60164C34.8788 6.6053 33.9628 5.69545 33.959 4.57073C33.9577 4.25039 34.0323 3.93511 34.175 3.64964L35.9997 0L37.8246 3.64964Z" fill="#EF5122"/>
<path d="M38.4826 11.1719H33.5171V21.103H38.4826V11.1719Z" fill="#FFCB5A"/>
<path d="M52.138 13.6553H49.6553V21.1036H52.138V13.6553Z" fill="#5B5B5B"/>
<path d="M49.2908 13.2878L54.2563 8.32227L52.5008 6.56673L47.5353 11.5323L49.2908 13.2878Z" fill="#CACACA"/>
<path d="M52.5013 13.2868L54.2568 11.5312L49.2913 6.56572L47.5358 8.32126L52.5013 13.2868Z" fill="#CACACA"/>
<path d="M22.345 13.6553H19.8623V21.1036H22.345V13.6553Z" fill="#5B5B5B"/>
<path d="M19.5003 13.2917L24.4658 8.32617L22.7103 6.57063L17.7447 11.5362L19.5003 13.2917Z" fill="#CACACA"/>
<path d="M22.7088 13.2917L24.4644 11.5361L19.4988 6.5706L17.7433 8.32614L22.7088 13.2917Z" fill="#CACACA"/>
<path d="M69.5174 67.0342L65.7933 71.9996H6.20708L2.48291 67.0342H7.44852H32.276H34.7587H37.2416H39.7243H64.5518H69.5174Z" fill="#5B5B5B"/>
<path d="M67.0344 44.6897V50.2759C67.0344 51.9902 65.6453 53.3793 63.931 53.3793C62.2166 53.3793 60.8275 51.9902 60.8275 50.2759C60.8275 51.9902 59.4384 53.3793 57.7241 53.3793C56.0097 53.3793 54.6206 51.9902 54.6206 50.2759C54.6206 51.9902 53.2315 53.3793 51.5171 53.3793C49.8028 53.3793 48.4137 51.9902 48.4137 50.2759C48.4137 51.9902 47.0246 53.3793 45.3102 53.3793C43.5959 53.3793 42.2068 51.9902 42.2068 50.2759C42.2068 51.9902 40.8177 53.3793 39.1033 53.3793C37.389 53.3793 35.9999 51.9902 35.9999 50.2759C35.9999 51.9902 34.6108 53.3793 32.8964 53.3793C31.1821 53.3793 29.793 51.9902 29.793 50.2759C29.793 51.9902 28.4039 53.3793 26.6895 53.3793C24.9752 53.3793 23.5861 51.9902 23.5861 50.2759C23.5861 51.9902 22.197 53.3793 20.4826 53.3793C18.7683 53.3793 17.3792 51.9902 17.3792 50.2759C17.3792 51.9902 15.9901 53.3793 14.2757 53.3793C12.5613 53.3793 11.1723 51.9902 11.1723 50.2759C11.1723 51.9902 9.78316 53.3793 8.0688 53.3793C7.86026 53.3781 7.65297 53.357 7.44808 53.3173C6.00063 53.0268 4.96043 51.7531 4.96535 50.2759V44.6897C4.96535 44.0044 5.52152 43.4482 6.20679 43.4482H65.793C66.4782 43.4484 67.0344 44.0044 67.0344 44.6897Z" fill="#D6EAF1"/>
<path d="M64.5516 60.8281V67.035H39.7241H37.2413H34.7585H32.2757H7.44824V60.8281H64.5516Z" fill="#FFCB5A"/>
<path d="M64.5516 53.3788V60.8272H7.44824V53.3168C7.65313 53.3566 7.86041 53.3777 8.06896 53.3788C9.78332 53.3788 11.1724 51.9897 11.1724 50.2754C11.1724 51.9897 12.5615 53.3788 14.2759 53.3788C15.9902 53.3788 17.3793 51.9897 17.3793 50.2754C17.3793 51.9897 18.7684 53.3788 20.4828 53.3788C22.1971 53.3788 23.5862 51.9897 23.5862 50.2754C23.5862 51.9897 24.9753 53.3788 26.6897 53.3788C28.404 53.3788 29.7931 51.9897 29.7931 50.2754C29.7931 51.9897 31.1822 53.3788 32.8966 53.3788C34.6109 53.3788 35.9999 51.9897 35.9999 50.2754C35.9999 51.9897 37.389 53.3788 39.1034 53.3788C40.8177 53.3788 42.2068 51.9897 42.2068 50.2754C42.2068 51.9897 43.5959 53.3788 45.3103 53.3788C47.0246 53.3788 48.4137 51.9897 48.4137 50.2754C48.4137 51.9897 49.8028 53.3788 51.5172 53.3788C53.2315 53.3788 54.6206 51.9897 54.6206 50.2754C54.6206 51.9897 56.0097 53.3788 57.7241 53.3788C59.4384 53.3788 60.8275 51.9897 60.8275 50.2754C60.8226 51.9836 62.203 53.3739 63.9111 53.3788C63.9173 53.3788 63.9248 53.3788 63.931 53.3788H64.5516Z" fill="#AA5634"/>
<path d="M60.8276 22.345V27.9311C60.8276 29.6455 59.4385 31.0346 57.7242 31.0346C56.0098 31.0346 54.6207 29.6455 54.6207 27.9311C54.6207 29.6455 53.2316 31.0346 51.5173 31.0346C49.8029 31.0346 48.4138 29.6455 48.4138 27.9311C48.4138 29.6455 47.0247 31.0346 45.3104 31.0346C43.596 31.0346 42.2069 29.6455 42.2069 27.9311C42.2069 29.6455 40.8178 31.0346 39.1035 31.0346C37.3891 31.0346 36 29.6455 36 27.9311C36 29.6455 34.6109 31.0346 32.8966 31.0346C31.1822 31.0346 29.7931 29.6455 29.7931 27.9311C29.7931 29.6455 28.404 31.0346 26.6896 31.0346C24.9753 31.0346 23.5862 29.6455 23.5862 27.9311C23.5862 29.6455 22.1971 31.0346 20.4827 31.0346C18.7684 31.0346 17.3793 29.6455 17.3793 27.9311C17.3793 29.6455 15.9902 31.0346 14.2758 31.0346C14.0673 31.0333 13.86 31.0122 13.6551 30.9726C12.2077 30.682 11.1675 29.4084 11.1724 27.9311V22.345C11.1724 21.6597 11.7286 21.1035 12.4138 21.1035H59.5862C60.2715 21.1035 60.8276 21.6597 60.8276 22.345Z" fill="#D6EAF1"/>
<path d="M58.3451 37.2415V43.4484H13.6553V34.7588C16.8207 34.7588 16.8207 37.2415 19.9987 37.2415C23.1767 37.2415 23.1642 34.7588 26.3422 34.7588C29.5202 34.7588 29.5076 37.2415 32.6856 37.2415C35.8636 37.2415 35.8511 34.7588 39.0291 34.7588C42.2071 34.7588 42.1946 37.2415 45.3725 37.2415C48.5505 37.2415 48.538 34.7588 51.716 34.7588C54.894 34.7588 54.8815 37.2415 58.0594 37.2415H58.3451Z" fill="#168DE2"/>
<path d="M58.3449 31.0341V37.241H58.0594C54.8815 37.241 54.8815 34.7583 51.716 34.7583C48.5505 34.7583 48.538 37.241 45.3725 37.241C42.2071 37.241 42.1946 34.7583 39.0291 34.7583C35.8636 34.7583 35.8511 37.241 32.6856 37.241C29.5202 37.241 29.5076 34.7583 26.3422 34.7583C23.1767 34.7583 23.1642 37.241 19.9987 37.241C16.8333 37.241 16.8207 34.7583 13.6553 34.7583V30.9721C13.8602 31.0118 14.0674 31.033 14.276 31.0341C15.9904 31.0341 17.3794 29.645 17.3794 27.9307C17.3794 29.645 18.7685 31.0341 20.4829 31.0341C22.1973 31.0341 23.5864 29.645 23.5864 27.9307C23.5864 29.645 24.9754 31.0341 26.6898 31.0341C28.4042 31.0341 29.7933 29.645 29.7933 27.9307C29.7933 29.645 31.1824 31.0341 32.8967 31.0341C34.6111 31.0341 36 29.645 36 27.9307C36 29.645 37.3891 31.0341 39.1035 31.0341C40.8178 31.0341 42.2069 29.645 42.2069 27.9307C42.2069 29.645 43.596 31.0341 45.3104 31.0341C47.0247 31.0341 48.4138 29.645 48.4138 27.9307C48.4138 29.645 49.8029 31.0341 51.5173 31.0341C53.2316 31.0341 54.6207 29.645 54.6207 27.9307C54.6158 29.6388 55.9962 31.0292 57.7044 31.0341C57.7106 31.0341 57.718 31.0341 57.7242 31.0341H58.3449Z" fill="#62BEFF"/>
</g>
<defs>
<clipPath id="clip0">
<rect width="72" height="72" fill="white"/>
</clipPath>
</defs>
</svg>
