<svg width="49" height="49" viewBox="0 0 49 49" fill="none" xmlns="http://www.w3.org/2000/svg">
<circle opacity="0.2" cx="24.5" cy="24.5" r="24.5" fill="#B8C1D9"/>
<g clip-path="url(#clip0)">
<path d="M35.3442 32.2872L30.2841 28.9127C29.642 28.4879 28.7812 28.6277 28.3065 29.2339L26.8325 31.1291C26.6431 31.3788 26.2988 31.4513 26.0248 31.299L25.7444 31.1445C24.8149 30.6379 23.6585 30.0071 21.3284 27.6762C18.9983 25.3453 18.3663 24.188 17.8597 23.2602L17.706 22.9799C17.5516 22.7059 17.6227 22.3601 17.8726 22.1691L19.7665 20.6956C20.3724 20.2209 20.5124 19.3603 20.0881 18.718L16.7136 13.6579C16.2787 13.0038 15.4063 12.8075 14.7331 13.2121L12.6172 14.4832C11.9523 14.874 11.4646 15.5071 11.2561 16.2496C10.4942 19.0258 11.0674 23.8172 18.1255 30.8762C23.7401 36.4903 27.9199 38.0001 30.7928 38.0001C31.454 38.0029 32.1126 37.9169 32.7509 37.7443C33.4936 37.5362 34.1267 37.0483 34.5173 36.3833L35.7896 34.2686C36.1949 33.5953 35.9986 32.7223 35.3442 32.2872ZM35.0718 33.8411L33.8024 35.9571C33.5219 36.4371 33.0665 36.79 32.5317 36.942C29.9688 37.6456 25.4911 37.0628 18.715 30.2867C11.9389 23.5106 11.3561 19.0333 12.0598 16.47C12.2119 15.9345 12.5653 15.4786 13.0459 15.1977L15.1618 13.9283C15.4539 13.7525 15.8326 13.8377 16.0213 14.1216L17.8543 16.8736L19.3929 19.1812C19.5771 19.4598 19.5166 19.8333 19.2537 20.0394L17.3594 21.5129C16.783 21.9538 16.6183 22.7513 16.9733 23.3844L17.1237 23.6576C17.6561 24.6342 18.3181 25.849 20.7348 28.2653C23.1516 30.6816 24.366 31.3436 25.342 31.876L25.6157 32.0268C26.2487 32.3817 27.0463 32.2171 27.4871 31.6406L28.9606 29.7463C29.1669 29.4836 29.5402 29.4232 29.8189 29.6072L34.8785 32.9817C35.1626 33.1703 35.2478 33.5491 35.0718 33.8411Z" fill="#556182"/>
<path d="M25.1661 17.1686C29.0757 17.173 32.244 20.3413 32.2484 24.2509C32.2484 24.481 32.4349 24.6675 32.665 24.6675C32.8951 24.6675 33.0816 24.481 33.0816 24.2509C33.0767 19.8813 29.5357 16.3402 25.1661 16.3354C24.936 16.3354 24.7495 16.5219 24.7495 16.752C24.7495 16.9821 24.936 17.1686 25.1661 17.1686Z" fill="#556182"/>
<path d="M25.1661 19.6686C27.6958 19.6716 29.7458 21.7216 29.7488 24.2513C29.7488 24.4814 29.9353 24.6679 30.1654 24.6679C30.3955 24.6679 30.5819 24.4814 30.5819 24.2513C30.5785 21.2616 28.1557 18.8389 25.1661 18.8354C24.936 18.8354 24.7495 19.0219 24.7495 19.252C24.7495 19.4821 24.936 19.6686 25.1661 19.6686Z" fill="#556182"/>
<path d="M25.1661 22.1681C26.3159 22.1695 27.2477 23.1013 27.2491 24.2512C27.2491 24.4813 27.4357 24.6678 27.6657 24.6678C27.8958 24.6678 28.0823 24.4813 28.0823 24.2512C28.0805 22.6414 26.7759 21.3368 25.1661 21.335C24.936 21.335 24.7495 21.5215 24.7495 21.7515C24.7495 21.9816 24.936 22.1681 25.1661 22.1681Z" fill="#556182"/>
</g>
<defs>
<clipPath id="clip0">
<rect width="25" height="25" fill="white" transform="translate(11 13)"/>
</clipPath>
</defs>
</svg>
