<svg width="33" height="25" viewBox="0 0 33 25" fill="none" xmlns="http://www.w3.org/2000/svg">
<path d="M28.3602 11.4369C27.2896 10.893 25.2822 10.8867 25.1972 10.8867C24.9427 10.8867 24.7363 11.0964 24.7363 11.3551C24.7363 11.6137 24.9427 11.8234 25.1972 11.8234C25.7152 11.8235 27.2192 11.9045 27.948 12.2748C28.0142 12.3084 28.0845 12.3243 28.1537 12.3243C28.3228 12.3243 28.4856 12.2294 28.5663 12.0653C28.6802 11.834 28.5879 11.5526 28.3602 11.4369Z" fill="#556182"/>
<path d="M30.6576 18.105L28.754 17.5524C28.6719 17.5285 28.6145 17.4512 28.6145 17.3643V16.7187C28.7693 16.6097 28.9171 16.4877 29.0552 16.3515C29.7244 15.6915 30.0929 14.8064 30.0929 13.8589V12.968L30.277 12.594C30.479 12.1834 30.5857 11.7238 30.5857 11.2648V8.85126C30.5857 8.59261 30.3794 8.38291 30.1248 8.38291H25.6895C24.0767 8.38291 22.7645 9.71626 22.7645 11.3551V11.383C22.7645 11.7647 22.8533 12.1469 23.0213 12.4882L23.2573 12.968V13.7329C23.2573 14.9452 23.8453 16.033 24.7358 16.6876L24.7359 17.3642C24.7359 17.4686 24.7359 17.5118 24.3553 17.6223L23.4265 17.892L20.7397 16.8992C20.7493 16.7704 20.7065 16.6393 20.6141 16.5406L19.7555 15.624V14.0854C19.8463 14.0094 19.9357 13.9313 20.0224 13.8488C21.1056 12.8171 21.7267 11.3607 21.7267 9.85277V8.62396C22.0538 7.90077 22.2195 7.13549 22.2195 6.34736V1.33981C22.2195 1.08115 22.0132 0.87146 21.7586 0.87146H14.8592C12.4312 0.87146 10.4559 2.87873 10.4559 5.34591V6.34748C10.4559 7.13561 10.6216 7.90089 10.9487 8.62408V9.68135C10.9487 11.4321 11.7148 13.0094 12.9199 14.0492V15.6241L12.0614 16.5407C11.9689 16.6394 11.9261 16.7704 11.9357 16.8993L9.09995 17.947C8.89445 18.023 8.70351 18.1258 8.53014 18.2504L8.08485 18.0242C9.41041 17.4378 9.83033 16.6132 9.85049 16.5723C9.91538 16.4405 9.91538 16.2852 9.85049 16.1534C9.5182 15.4781 9.47795 14.2404 9.44563 13.2458C9.43487 12.9148 9.42467 12.602 9.40519 12.3234C9.24805 10.077 7.5674 8.38291 5.49578 8.38291C3.42417 8.38291 1.74346 10.077 1.58638 12.3234C1.5669 12.602 1.5567 12.9148 1.54594 13.246C1.51362 14.2404 1.4733 15.478 1.14108 16.1533C1.07619 16.2852 1.07619 16.4404 1.14108 16.5722C1.16124 16.6132 1.58029 17.4361 2.9085 18.0231L1.67162 18.6515C1.01037 18.9877 0.599609 19.6631 0.599609 20.4142V23.8743C0.599609 24.1329 0.805972 24.3426 1.06052 24.3426C1.31506 24.3426 1.52142 24.1329 1.52142 23.8743V20.4142C1.52142 20.0201 1.73694 19.6657 2.08385 19.4894L3.62408 18.7069L4.15983 19.2242C4.53446 19.586 5.01503 19.7668 5.49578 19.7668C5.97642 19.7668 6.45723 19.5859 6.83174 19.2242L7.36743 18.7069L7.86964 18.9621C7.63316 19.3466 7.49894 19.7974 7.49894 20.2697V23.8744C7.49894 24.1331 7.70531 24.3428 7.95985 24.3428C8.21439 24.3428 8.42076 24.1331 8.42076 23.8744V20.2697C8.42076 19.6268 8.82027 19.0471 9.41496 18.8274L12.4048 17.7227L13.6495 19.6198C13.8086 19.8624 14.0635 20.0179 14.349 20.0467C14.3808 20.0498 14.4125 20.0514 14.4441 20.0514C14.6959 20.0514 14.9371 19.9507 15.1174 19.7675L15.8767 18.9959V23.8745C15.8767 24.1331 16.0831 24.3428 16.3376 24.3428C16.5922 24.3428 16.7986 24.1331 16.7986 23.8745V18.9959L17.5579 19.7675C17.7381 19.9507 17.9793 20.0515 18.2312 20.0515C18.2628 20.0515 18.2945 20.0499 18.3262 20.0467C18.6118 20.018 18.8667 19.8624 19.0258 19.6199L20.2705 17.7228L23.2603 18.8275C23.855 19.0473 24.2545 19.6269 24.2545 20.2698V23.8745C24.2545 24.1332 24.4609 24.3429 24.7154 24.3429C24.97 24.3429 25.1764 24.1332 25.1764 23.8745V20.2698C25.1764 19.6187 24.9217 19.0079 24.4946 18.5563L24.6085 18.5232C24.7234 18.4899 24.8801 18.4442 25.0374 18.3659L26.2142 19.5616V23.8745C26.2142 24.1332 26.4206 24.3429 26.6751 24.3429C26.9296 24.3429 27.136 24.1332 27.136 23.8745V19.5616L28.3046 18.3742C28.3667 18.4063 28.432 18.4334 28.5007 18.4533L30.4043 19.0059C30.8388 19.1321 31.1423 19.5409 31.1423 20.0001V23.8745C31.1423 24.1332 31.3487 24.3429 31.6032 24.3429C31.8578 24.3429 32.0641 24.1332 32.0641 23.8745V20.0001C32.0641 19.1248 31.4857 18.3455 30.6576 18.105ZM3.55648 17.2778C2.69434 16.9626 2.26188 16.5423 2.07727 16.3128C2.20313 15.9785 2.28474 15.5956 2.33999 15.1913C2.59417 15.8106 3.01986 16.3393 3.55648 16.7165V17.2778ZM6.19685 18.5453C5.80373 18.9249 5.1879 18.9248 4.7949 18.5453L4.36626 18.1314C4.43859 17.9937 4.47835 17.8376 4.47835 17.674V17.1748C4.79988 17.2769 5.14169 17.332 5.49591 17.332C5.8497 17.332 6.19132 17.2767 6.5134 17.1751L6.51334 17.674C6.51334 17.8376 6.55304 17.9937 6.62543 18.1315L6.19685 18.5453ZM5.49603 16.3953C4.1197 16.3953 3.00007 15.2575 3.00007 13.8591C3.00007 13.6004 2.79371 13.3907 2.53916 13.3907C2.51335 13.3907 2.48816 13.3934 2.46351 13.3976C2.46487 13.3573 2.46616 13.317 2.46751 13.2771C2.47777 12.955 2.48767 12.6509 2.50592 12.39C2.56479 11.5484 2.89572 10.773 3.43775 10.2063C3.98463 9.63458 4.71556 9.31973 5.49591 9.31973C6.27625 9.31973 7.00713 9.63458 7.55407 10.2063C8.09609 10.773 8.42702 11.5484 8.4859 12.39C8.50409 12.6508 8.51404 12.9549 8.52449 13.2769C8.52541 13.3045 8.52633 13.3326 8.52726 13.3604C8.02579 12.5754 7.25135 11.9968 6.25069 11.6701C5.32623 11.3683 4.53114 11.3869 4.49758 11.3878C4.37689 11.3913 4.26234 11.4426 4.17858 11.5309L3.34698 12.4073C3.1703 12.5935 3.17558 12.89 3.35884 13.0695C3.5421 13.249 3.83388 13.2436 4.01056 13.0574L4.70253 12.3283C5.29846 12.3579 7.21564 12.5844 7.96126 14.2528C7.77364 15.4822 6.73372 16.3953 5.49603 16.3953ZM7.43509 17.2794L7.43515 16.7208C7.97134 16.3457 8.39765 15.818 8.65201 15.194C8.70726 15.5973 8.78881 15.9794 8.91442 16.3129C8.73085 16.5402 8.29637 16.9643 7.43509 17.2794ZM11.8705 9.68129V8.5193C11.8705 8.44879 11.8548 8.37917 11.8246 8.31566C11.5281 7.69157 11.3777 7.02939 11.3777 6.34748V5.34597C11.3777 3.39522 12.9395 1.80821 14.8592 1.80821H21.2977V6.34755C21.2977 7.02946 21.1474 7.69164 20.8508 8.31572C20.8206 8.37923 20.8049 8.44886 20.8049 8.51936V9.85289C20.8049 11.1212 20.3032 12.2977 19.392 13.1655C19.2783 13.2738 19.1602 13.3753 19.0382 13.4699C19.0355 13.4718 19.0329 13.4738 19.0303 13.4758C18.1767 14.1343 17.1313 14.4543 16.0395 14.3824C13.7017 14.2286 11.8705 12.1637 11.8705 9.68129ZM14.4656 19.1051C14.4624 19.1083 14.455 19.116 14.4399 19.1144C14.4249 19.1129 14.419 19.104 14.4165 19.1001L12.9831 16.9152L13.4444 16.4227L15.6189 17.9331L14.4656 19.1051ZM16.3377 17.2977L13.8417 15.5641V14.6898C14.4876 15.0446 15.2107 15.2665 15.9798 15.3171C16.1013 15.325 16.2221 15.329 16.3424 15.329C17.2238 15.329 18.0719 15.1149 18.8337 14.7086V15.5641L16.3377 17.2977ZM18.2589 19.1002C18.2564 19.1041 18.2505 19.113 18.2355 19.1145C18.2204 19.1165 18.213 19.1084 18.2098 19.1052L17.0565 17.9333L19.231 16.4228L19.6924 16.9154L18.2589 19.1002ZM26.6751 18.7051L25.6291 17.6423C25.6474 17.5581 25.6577 17.4658 25.6577 17.3641L25.6576 17.1665C25.9478 17.2632 26.2538 17.3207 26.5703 17.3303C26.6058 17.3314 26.6411 17.3319 26.6764 17.3319C27.0262 17.3319 27.3677 17.2782 27.6927 17.1758V17.3643C27.6927 17.4578 27.7042 17.5493 27.726 17.6373L26.6751 18.7051ZM28.4132 15.6793C27.9247 16.161 27.2794 16.4154 26.598 16.3941C25.2642 16.3534 24.1791 15.1596 24.1791 13.733V12.8575C24.1791 12.7847 24.1625 12.713 24.1305 12.648L23.8457 12.0694C23.7415 11.8574 23.6863 11.6201 23.6863 11.3831V11.3552C23.6863 10.2328 24.585 9.31967 25.6895 9.31967H29.6639V11.2649C29.6639 11.5792 29.5908 11.894 29.4525 12.1752L29.2198 12.648C29.1878 12.7131 29.1711 12.7847 29.1711 12.8575V13.859C29.1711 14.5509 28.902 15.1973 28.4132 15.6793Z" fill="#556182"/>
<path d="M20.112 6.51705C18.3688 4.7457 14.7215 5.08434 13.2342 5.31215C12.7657 5.3839 12.4258 5.78674 12.4258 6.27001V7.34895C12.4258 7.6076 12.6321 7.8173 12.8867 7.8173C13.1412 7.8173 13.3476 7.6076 13.3476 7.34895V6.26995C13.3476 6.25402 13.3579 6.24041 13.3717 6.23829C13.9658 6.1473 15.1446 6.00692 16.366 6.08966C17.8033 6.18689 18.8444 6.55351 19.4602 7.17935C19.6402 7.36225 19.932 7.36225 20.112 7.17935C20.292 6.99644 20.292 6.69989 20.112 6.51705Z" fill="#556182"/>
</svg>
