<svg width="42" height="43" viewBox="0 0 42 43" fill="none" xmlns="http://www.w3.org/2000/svg">
<ellipse cx="21" cy="21.8708" rx="21" ry="21.1293" fill="white"/>
<rect x="7.98828" y="17.4731" width="7.46957" height="1.49464" rx="0.747322" fill="#556182"/>
<rect x="7.98828" y="20.4624" width="4.48174" height="1.49464" rx="0.747322" fill="#556182"/>
<path d="M29.5354 15.5639H24.4372C24.2326 14.1007 23.5342 12.7542 22.4432 11.7364C21.2429 10.6166 19.6776 10 18.0356 10H11.4647C7.90002 10.0001 5 12.9015 5 16.4678V18.9212C5 21.5547 6.57325 23.9035 9.00803 24.9051C9.2326 24.9992 9.50197 24.8921 9.59667 24.6593C9.69142 24.4288 9.58141 24.1652 9.35103 24.0704C7.25586 23.2085 5.90203 21.1873 5.90203 18.9212V16.4678C5.90203 13.3991 8.39741 10.9025 11.4646 10.9025H18.0356C20.7672 10.9025 23.0891 12.914 23.524 15.5639H22.9645C19.3998 15.5639 16.4998 18.4653 16.4998 22.0317V24.4851V24.4866H13.4978C13.3367 24.4866 13.1878 24.5726 13.1072 24.7122L11.5987 27.3263C11.5609 27.3917 11.5009 27.4015 11.4685 27.4015C11.4361 27.4015 11.3761 27.3918 11.3383 27.3263L10.6709 26.1696C10.5463 25.9538 10.2705 25.8798 10.0548 26.0044C9.83904 26.129 9.76511 26.405 9.88971 26.6209L10.5572 27.7775C10.7474 28.1071 11.0881 28.3039 11.4685 28.304C11.849 28.304 12.1897 28.1072 12.3799 27.7775L13.7582 25.389H16.5632C17.004 28.529 19.7064 30.9529 22.9644 30.9529H27.215L28.6201 33.3878C28.8103 33.7175 29.151 33.9143 29.5315 33.9143C29.912 33.9143 30.2527 33.7175 30.4429 33.3878L32.1716 30.3922C32.9324 30.0523 33.6121 29.5742 34.1939 28.9694C34.3666 28.7898 34.3611 28.5041 34.1817 28.3313C34.0022 28.1584 33.7167 28.1639 33.5439 28.3435C33.0121 28.8964 32.3855 29.3262 31.6814 29.621C31.5904 29.6591 31.5144 29.7261 31.465 29.8117L29.6616 32.9366C29.6239 33.002 29.5639 33.0118 29.5315 33.0118C29.4991 33.0118 29.4391 33.002 29.4013 32.9365L27.866 30.276C27.7854 30.1364 27.6365 30.0504 27.4754 30.0504H22.9644C19.8972 30.0504 17.4018 27.5537 17.4018 24.4851V22.0317C17.4018 18.9629 19.8972 16.4664 22.9644 16.4664H29.5354C32.6026 16.4664 35.098 18.963 35.098 22.0317V24.4851C35.098 25.2924 34.9292 26.0707 34.5962 26.7984C34.4926 27.025 34.5921 27.2928 34.8186 27.3964C35.0451 27.5001 35.3127 27.4006 35.4164 27.1739C35.8036 26.3275 36 25.4228 36 24.485V22.0316C36.0001 18.4653 33.1 15.5639 29.5354 15.5639Z" fill="#556182"/>
<rect x="19.9385" y="18.9678" width="11.9513" height="1.49464" rx="0.747321" fill="#556182"/>
<rect x="7.98828" y="14.4839" width="11.9513" height="1.49464" rx="0.747321" fill="#556182"/>
<rect x="19.9385" y="21.9573" width="11.9513" height="1.49464" rx="0.747321" fill="#556182"/>
<rect x="19.9385" y="24.9465" width="11.9513" height="1.49464" rx="0.747321" fill="#556182"/>
</svg>
