<svg width="37" height="37" viewBox="0 0 37 37" fill="none" xmlns="http://www.w3.org/2000/svg">
<g clip-path="url(#clip0)">
<path d="M36.0291 28.5451L28.5402 23.5509C27.5898 22.9222 26.3159 23.1291 25.6133 24.0262L23.4318 26.831C23.1515 27.2007 22.6418 27.3079 22.2363 27.0826L21.8213 26.8539C20.4457 26.1041 18.7342 25.1706 15.2856 21.7209C11.8371 18.2711 10.9018 16.5583 10.152 15.1852L9.92448 14.7702C9.69608 14.3647 9.80128 13.853 10.1711 13.5704L12.974 11.3896C13.8708 10.6869 14.078 9.41334 13.45 8.46268L8.45575 0.973751C7.81218 0.00567965 6.52098 -0.28493 5.52466 0.313991L2.39306 2.19515C1.40909 2.77362 0.687193 3.71048 0.378737 4.8094C-0.748945 8.91825 0.099399 16.0095 10.5454 26.4568C18.855 34.7657 25.0411 37.0002 29.2931 37.0002C30.2716 37.0044 31.2463 36.8771 32.191 36.6216C33.2901 36.3135 34.2271 35.5916 34.8052 34.6073L36.6883 31.4776C37.2881 30.4811 36.9976 29.1891 36.0291 28.5451ZM35.6258 30.8449L33.7471 33.9765C33.332 34.6869 32.6581 35.2093 31.8666 35.4341C28.0734 36.4755 21.4465 35.613 11.4178 25.5843C1.38922 15.5557 0.526715 8.92938 1.56813 5.13563C1.79327 4.34314 2.31625 3.66835 3.02753 3.2526L6.15913 1.3739C6.59143 1.11378 7.15184 1.23987 7.4311 1.65996L10.1441 5.73304L12.4211 9.14824C12.6938 9.56059 12.6042 10.1133 12.2152 10.4184L9.41161 12.5992C8.55843 13.2516 8.31478 14.432 8.84008 15.3689L9.06269 15.7734C9.85071 17.2186 10.8304 19.0165 14.4072 22.5927C17.9839 26.1688 19.7813 27.1486 21.2259 27.9365L21.6309 28.1597C22.5677 28.6849 23.7482 28.4414 24.4006 27.5882L26.5814 24.7846C26.8866 24.3958 27.4391 24.3063 27.8516 24.5787L35.3399 29.573C35.7602 29.852 35.8863 30.4127 35.6258 30.8449Z" fill="white"/>
<path d="M20.9651 6.16963C26.7513 6.17606 31.4404 10.8652 31.4469 16.6514C31.4469 16.992 31.7229 17.268 32.0634 17.268C32.404 17.268 32.68 16.992 32.68 16.6514C32.6728 10.1844 27.4321 4.9436 20.9651 4.93652C20.6245 4.93652 20.3485 5.21254 20.3485 5.55307C20.3485 5.89361 20.6245 6.16963 20.9651 6.16963Z" fill="white"/>
<path d="M20.9651 9.86909C24.709 9.8735 27.743 12.9075 27.7474 16.6514C27.7474 16.992 28.0235 17.268 28.364 17.268C28.7045 17.268 28.9805 16.992 28.9805 16.6514C28.9754 12.2267 25.3897 8.64104 20.9651 8.63599C20.6245 8.63599 20.3485 8.912 20.3485 9.25254C20.3485 9.59308 20.6245 9.86909 20.9651 9.86909Z" fill="white"/>
<path d="M20.9651 13.5688C22.6668 13.5708 24.0459 14.9499 24.048 16.6517C24.048 16.9922 24.3241 17.2682 24.6645 17.2682C25.005 17.2682 25.2811 16.9922 25.2811 16.6517C25.2783 14.2692 23.3476 12.3384 20.9651 12.3357C20.6245 12.3357 20.3485 12.6117 20.3485 12.9522C20.3485 13.2928 20.6245 13.5688 20.9651 13.5688Z" fill="white"/>
</g>
<defs>
<clipPath id="clip0">
<rect width="37" height="37" fill="white"/>
</clipPath>
</defs>
</svg>
