<svg width="23" height="34" viewBox="0 0 23 34" fill="none" xmlns="http://www.w3.org/2000/svg">
<path d="M11.1337 1.37207C10.0651 1.37207 9.0403 1.8425 8.2847 2.67987C7.5291 3.51724 7.10461 4.65296 7.10461 5.83719V17.7442C7.10461 18.9284 7.5291 20.0641 8.2847 20.9015C9.0403 21.7388 10.0651 22.2093 11.1337 22.2093C12.2023 22.2093 13.2271 21.7388 13.9827 20.9015C14.7383 20.0641 15.1628 18.9284 15.1628 17.7442V5.83719C15.1628 4.65296 14.7383 3.51724 13.9827 2.67987C13.2271 1.8425 12.2023 1.37207 11.1337 1.37207V1.37207Z" stroke="white" stroke-linecap="round" stroke-linejoin="round"/>
<path d="M21.7558 14.7673V17.7441C21.7558 20.5073 20.6752 23.1573 18.7519 25.1111C16.8286 27.065 14.22 28.1627 11.5 28.1627C8.77994 28.1627 6.17134 27.065 4.248 25.1111C2.32466 23.1573 1.24414 20.5073 1.24414 17.7441V14.7673" stroke="white" stroke-linecap="round" stroke-linejoin="round"/>
<path d="M11.5 28.1628V33.3721" stroke="white" stroke-linecap="round" stroke-linejoin="round"/>
<path d="M5.63953 33.3721H17.3605" stroke="white" stroke-linecap="round" stroke-linejoin="round"/>
</svg>
