<svg width="23" height="20" viewBox="0 0 23 20" fill="none" xmlns="http://www.w3.org/2000/svg">
<path d="M4.14735 15.4311H3.11577C2.56859 15.4311 2.04381 15.2079 1.6569 14.8107C1.26998 14.4134 1.05261 13.8747 1.05261 13.3129V2.72174C1.05261 2.15995 1.26998 1.62117 1.6569 1.22393C2.04381 0.826685 2.56859 0.603516 3.11577 0.603516H19.621C20.1682 0.603516 20.693 0.826685 21.0799 1.22393C21.4668 1.62117 21.6842 2.15995 21.6842 2.72174V13.3129C21.6842 13.8747 21.4668 14.4134 21.0799 14.8107C20.693 15.2079 20.1682 15.4311 19.621 15.4311H18.5895" stroke="white" stroke-linecap="round" stroke-linejoin="round"/>
<path d="M11.3683 13.207L16.5262 19.1381H6.21045L11.3683 13.207Z" stroke="white" stroke-linecap="round" stroke-linejoin="round"/>
</svg>
