<svg width="64" height="64" viewBox="0 0 64 64" fill="none" xmlns="http://www.w3.org/2000/svg">
<circle cx="32" cy="32" r="32" fill="#EB5757"/>
<path d="M52.0817 31.8224C46.6327 26.6582 39.4995 23.814 31.9998 23.814C24.5001 23.814 17.3669 26.6582 11.9006 31.838C11.4231 32.3138 11.1626 32.951 11.1626 33.6334C11.1626 34.3228 11.437 34.9774 11.8988 35.4115L16.0246 39.539C16.9779 40.4888 18.69 40.461 19.5756 39.5789C20.8658 38.3843 22.288 37.3962 23.7899 36.6444C24.7224 36.1929 25.0541 35.0937 25.0541 34.2151V29.6553C27.2681 29.0597 29.7859 29.0058 31.9998 29.0058C34.3457 29.0058 36.7993 29.0597 38.9455 29.6501V34.2151C38.9455 35.3681 39.4109 36.2832 40.1818 36.6566C41.7515 37.4415 43.1772 38.4278 44.417 39.5894C44.891 40.0374 45.5318 40.2927 46.1777 40.2927C46.8602 40.2927 47.4974 40.0322 47.9732 39.5547L52.099 35.4289C52.5748 34.9549 52.837 34.3176 52.837 33.6334C52.837 32.951 52.5765 32.3138 52.0817 31.8224ZM50.8714 34.1995L46.7456 38.3253C46.4574 38.6135 45.9313 38.6274 45.6065 38.3236C44.2417 37.0456 42.6772 35.9621 40.9494 35.099C40.8417 35.0469 40.682 34.7292 40.682 34.2151V29.0058C40.682 28.6325 40.4424 28.3009 40.0881 28.1828C37.5616 27.3406 34.7069 27.2694 31.9998 27.2694C29.449 27.2694 26.5109 27.3407 23.9185 28.1794C23.5607 28.2957 23.3177 28.6291 23.3177 29.0059V34.2152C23.3177 34.691 23.1527 35.0262 23.026 35.0869C21.3677 35.9169 19.8101 36.9987 18.3741 38.3271C18.1015 38.6015 17.5493 38.6049 17.2541 38.3115L13.1092 34.1666C12.9754 34.0398 12.8991 33.8471 12.8991 33.6335C12.8991 33.4147 12.9807 33.2133 13.111 33.083C18.2368 28.2245 24.9447 25.5504 31.9998 25.5504C39.0549 25.5504 45.7628 28.2245 50.8714 33.0657C51.019 33.2133 51.1006 33.4147 51.1006 33.6335C51.1006 33.8523 51.019 34.0537 50.8714 34.1995Z" fill="white"/>
</svg>
