<svg width="19" height="19" viewBox="0 0 19 19" fill="none" xmlns="http://www.w3.org/2000/svg">
<circle cx="9.5" cy="9.5" r="9.5" fill="white"/>
<path d="M9.38992 4.86047C9.06765 4.86047 8.75858 5.00013 8.5307 5.24873C8.30283 5.49732 8.1748 5.83449 8.1748 6.18606V9.72094C8.1748 10.0725 8.30283 10.4097 8.5307 10.6583C8.75858 10.9069 9.06765 11.0465 9.38992 11.0465C9.71219 11.0465 10.0213 10.9069 10.2491 10.6583C10.477 10.4097 10.605 10.0725 10.605 9.72094V6.18606C10.605 5.83449 10.477 5.49732 10.2491 5.24873C10.0213 5.00013 9.71219 4.86047 9.38992 4.86047V4.86047Z" stroke="#556182" stroke-width="0.5" stroke-linecap="round" stroke-linejoin="round"/>
<path d="M12.5933 8.83716V9.72088C12.5933 10.5412 12.2674 11.3279 11.6873 11.908C11.1073 12.488 10.3206 12.8139 9.50025 12.8139C8.67993 12.8139 7.89321 12.488 7.31315 11.908C6.7331 11.3279 6.40723 10.5412 6.40723 9.72088V8.83716" stroke="#556182" stroke-width="0.5" stroke-linecap="round" stroke-linejoin="round"/>
<path d="M9.5 12.814V14.3605" stroke="#556182" stroke-width="0.5" stroke-linecap="round" stroke-linejoin="round"/>
<path d="M7.73242 14.3605H11.2673" stroke="#556182" stroke-width="0.5" stroke-linecap="round" stroke-linejoin="round"/>
</svg>
