<svg width="15" height="12" viewBox="0 0 15 12" fill="none" xmlns="http://www.w3.org/2000/svg">
<path d="M9.86363 11.6364V10.4545C9.86363 9.82766 9.6146 9.22646 9.17134 8.78319C8.72807 8.33993 8.12687 8.0909 7.5 8.0909H3.36363C2.73676 8.0909 2.13556 8.33993 1.69229 8.78319C1.24903 9.22646 1 9.82766 1 10.4545V11.6364" stroke="#B8C1D9" stroke-width="0.5" stroke-linecap="round" stroke-linejoin="round"/>
<path d="M5.43175 5.72727C6.73715 5.72727 7.79538 4.66903 7.79538 3.36363C7.79538 2.05824 6.73715 1 5.43175 1C4.12635 1 3.06812 2.05824 3.06812 3.36363C3.06812 4.66903 4.12635 5.72727 5.43175 5.72727Z" stroke="#B8C1D9" stroke-width="0.5" stroke-linecap="round" stroke-linejoin="round"/>
<path d="M10.4546 5.72727L11.6364 6.90909L14 4.54545" stroke="#B8C1D9" stroke-width="0.5" stroke-linecap="round" stroke-linejoin="round"/>
</svg>
