<svg width="13" height="17" viewBox="0 0 13 17" fill="none" xmlns="http://www.w3.org/2000/svg">
<path d="M10.9505 10.8379L10.0114 10.5621L7.96843 9.22774V8.92199C8.55993 8.47583 8.96612 7.79386 9.04162 7.01215C9.33828 6.9644 9.56556 6.70661 9.56556 6.39674V5.55596C9.56556 5.55271 9.56521 5.54952 9.56506 5.54627V4.48121C9.68324 4.39658 9.75825 4.25874 9.75825 4.10412V3.12943L11.1682 2.88927C11.3999 2.8498 11.5665 2.66577 11.5829 2.4313C11.5992 2.19684 11.4597 1.99146 11.2357 1.92024L6.48272 0.40843C6.38353 0.376867 6.27878 0.376898 6.17965 0.408398L1.42656 1.92024C1.20259 1.99146 1.06309 2.19684 1.07944 2.43127C1.08981 2.58024 1.161 2.70868 1.27087 2.7928V4.0674H1.25925C0.991593 4.0674 0.773843 4.28515 0.773843 4.5528V5.18549L0.4605 7.02461C0.406344 7.34271 0.651343 7.63386 0.974781 7.63386H2.03569C2.3584 7.63386 2.60425 7.34339 2.54997 7.02458L2.23662 5.18549V4.5528C2.23662 4.28515 2.01887 4.0674 1.75122 4.0674H1.73962V2.93105L2.90506 3.12955V4.10412C2.90506 4.25808 2.97972 4.39571 3.09734 4.48046L3.09778 5.55605V6.39674C3.09778 6.70665 3.32506 6.9644 3.62172 7.01215C3.69719 7.79343 4.10294 8.47508 4.69387 8.92127V9.22846L2.65131 10.5626L1.71303 10.838C0.709 11.1327 6.24656e-05 12.0545 6.24656e-05 13.126V13.8245C6.24656e-05 13.9539 0.104969 14.0589 0.234437 14.0589C0.363906 14.0589 0.468812 13.954 0.468812 13.8245V13.126C0.468812 12.2815 1.03472 11.5256 1.84506 11.2878L2.71931 11.0311L6.212 13.1065C6.2829 13.1487 6.37672 13.1509 6.45143 13.1065L9.94434 11.031L10.8185 11.2876C11.6287 11.5255 12.1946 12.2814 12.1946 13.1258V15.3895C12.1946 15.6799 11.9584 15.9161 11.6681 15.9161H10.635V14.9058C10.635 14.7764 10.5301 14.6715 10.4007 14.6715C10.2712 14.6715 10.1663 14.7764 10.1663 14.9058V15.9161H2.49603V14.9058C2.49603 14.7764 2.39112 14.6715 2.26166 14.6715C2.13219 14.6715 2.02728 14.7764 2.02728 14.9058V15.9161H0.995312C0.704968 15.9161 0.46875 15.6799 0.46875 15.3895V14.9201C0.46875 14.7906 0.363844 14.6857 0.234375 14.6857C0.104906 14.6857 0 14.7906 0 14.9201V15.3895C0 15.9383 0.446468 16.3848 0.995281 16.3848H11.668C12.2168 16.3848 12.6633 15.9383 12.6633 15.3895V13.1258C12.6633 12.0795 11.9785 11.1397 10.9505 10.8379ZM2.03566 7.16511H0.974781C0.941999 7.16511 0.916999 7.13583 0.922562 7.1033L1.206 5.43968H1.80444L2.08787 7.10327C2.09341 7.13574 2.06859 7.16511 2.03566 7.16511ZM1.76787 4.5528V4.97096H1.24253V4.5528C1.24253 4.54358 1.25 4.53612 1.25922 4.53612H1.75116C1.76041 4.53608 1.76787 4.54358 1.76787 4.5528ZM5.49343 12.0464L5.58672 12.1897L3.19394 10.768L4.71272 9.77592C4.78159 10.584 5.04797 11.3617 5.49343 12.0464ZM5.49181 11.0346C6.04347 11.113 6.61953 11.1131 7.1715 11.0346C7.06484 11.2971 6.9334 11.5503 6.777 11.7908L6.33165 12.4753L5.88631 11.7908C5.7299 11.5503 5.59847 11.2971 5.49181 11.0346ZM7.16987 12.0464C7.61534 11.3617 7.88171 10.584 7.95056 9.77592L9.46934 10.7679L7.07659 12.1897L7.16987 12.0464ZM8.54084 4.56849H9.09634V5.32155H8.82062C8.66634 5.32155 8.54081 5.19605 8.54081 5.04177V4.56849H8.54084ZM1.56862 2.36693L6.32178 0.855054C6.32787 0.853117 6.33443 0.853086 6.34062 0.855086L11.0937 2.36693C11.1036 2.37005 11.117 2.3743 11.1153 2.39871C11.1136 2.42308 11.0997 2.42543 11.0895 2.42718L9.518 2.69483L8.928 2.62187C8.79962 2.60596 8.68256 2.69727 8.66665 2.82571C8.65078 2.95418 8.74206 3.07118 8.8705 3.08705L9.28956 3.1389V4.09977L3.37378 4.09955V3.13887L5.799 2.83877C6.15225 2.79512 6.51037 2.79512 6.86337 2.83877L7.78128 2.9523C7.90971 2.96821 8.02675 2.87693 8.04265 2.74849C8.05856 2.62002 7.96728 2.50302 7.83884 2.48712L6.92093 2.37358C6.52978 2.32518 6.1329 2.32518 5.74147 2.37358L3.14478 2.6949L1.57281 2.42718C1.56262 2.42543 1.54872 2.42308 1.547 2.39871C1.54531 2.3743 1.55878 2.37002 1.56862 2.36693ZM3.56637 5.32155L3.56606 4.56849H4.12247V5.0418C4.12247 5.19605 3.99697 5.32158 3.84265 5.32158H3.56637V5.32155ZM4.08222 6.89168C4.07015 6.70083 3.91153 6.55133 3.72112 6.55133C3.63584 6.55133 3.56647 6.48196 3.56647 6.39671V5.7903H3.84265C4.25537 5.7903 4.59119 5.45452 4.59119 5.0418V4.56849H8.07209V5.0418C8.07209 5.45452 8.4079 5.7903 8.82062 5.7903H9.09681V6.39671C9.09681 6.48196 9.02743 6.55133 8.94215 6.55133C8.75175 6.55133 8.59312 6.70083 8.58106 6.89171C8.5064 8.07511 7.51834 9.00214 6.33162 9.00214C5.1449 9.00214 4.15687 8.07511 4.08222 6.89168ZM6.33165 9.47086C6.7485 9.47086 7.14468 9.37555 7.49971 9.20608V9.35461C7.49971 9.75533 7.44565 10.1506 7.34156 10.5319C6.70462 10.6533 5.98453 10.6582 5.32175 10.5319C5.21765 10.1506 5.16359 9.75536 5.16359 9.35461C5.16359 9.34964 5.1629 9.3448 5.16259 9.33989C5.16253 9.33893 5.16262 9.33796 5.16256 9.33699V9.20561C5.51784 9.37536 5.9144 9.47086 6.33165 9.47086Z" fill="#8B94AE"/>
</svg>
