<svg width="16" height="13" viewBox="0 0 16 13" fill="none" xmlns="http://www.w3.org/2000/svg">
<path d="M14.1162 5.75733C13.5718 5.48075 12.551 5.47754 12.5078 5.47754C12.3784 5.47754 12.2734 5.58417 12.2734 5.7157C12.2734 5.84722 12.3784 5.95386 12.5078 5.95386C12.7712 5.95389 13.536 5.9951 13.9066 6.18338C13.9402 6.20049 13.976 6.20856 14.0112 6.20856C14.0972 6.20856 14.18 6.16029 14.221 6.07687C14.2789 5.95922 14.232 5.81617 14.1162 5.75733Z" fill="#8B94AE"/>
<path d="M15.2847 9.14819L14.3168 8.86716C14.275 8.85503 14.2458 8.81572 14.2458 8.77155V8.44324C14.3246 8.3878 14.3997 8.32575 14.4699 8.25649C14.8102 7.92091 14.9976 7.47079 14.9976 6.98902V6.53598L15.0912 6.3458C15.1939 6.13701 15.2482 5.90327 15.2482 5.66988V4.44257C15.2482 4.31104 15.1433 4.20441 15.0138 4.20441H12.7584C11.9383 4.20441 11.2711 4.88243 11.2711 5.71579V5.72999C11.2711 5.92407 11.3162 6.11844 11.4016 6.29201L11.5217 6.53594V6.92494C11.5217 7.54142 11.8206 8.09455 12.2735 8.4274L12.2735 8.77149C12.2735 8.82455 12.2735 8.84652 12.08 8.90273L11.6077 9.03984L10.2414 8.53501C10.2463 8.4695 10.2246 8.40288 10.1775 8.35268L9.74094 7.88659V7.10416C9.78709 7.06551 9.83259 7.02582 9.87669 6.98384C10.4275 6.45926 10.7433 5.71862 10.7433 4.95184V4.32698C10.9097 3.95923 10.9939 3.57008 10.9939 3.16931V0.622924C10.9939 0.491397 10.889 0.384766 10.7596 0.384766H7.25116C6.01647 0.384766 5.012 1.40548 5.012 2.66006V3.16937C5.012 3.57015 5.09628 3.9593 5.26259 4.32704V4.86468C5.26259 5.75494 5.65216 6.557 6.265 7.08577V7.88662L5.82841 8.35271C5.78137 8.40291 5.75962 8.46953 5.76453 8.53504L4.3225 9.06785C4.218 9.10646 4.12091 9.15876 4.03275 9.22211L3.80631 9.10707C4.48038 8.80892 4.69391 8.38961 4.70416 8.36878C4.73716 8.30174 4.73716 8.2228 4.70416 8.15577C4.53519 7.81238 4.51472 7.18297 4.49828 6.67725C4.49281 6.50889 4.48763 6.34983 4.47772 6.20821C4.39781 5.06587 3.54319 4.20441 2.48975 4.20441C1.43631 4.20441 0.581656 5.06584 0.501781 6.20821C0.491875 6.34986 0.486688 6.50892 0.481219 6.67731C0.464781 7.183 0.444281 7.81234 0.275344 8.15574C0.242344 8.22277 0.242344 8.30171 0.275344 8.36875C0.285594 8.38958 0.498687 8.80804 1.17409 9.10653L0.545125 9.42607C0.208875 9.59704 0 9.94046 0 10.3224V12.0819C0 12.2134 0.104937 12.3201 0.234375 12.3201C0.363813 12.3201 0.46875 12.2134 0.46875 12.0819V10.3224C0.46875 10.122 0.578344 9.9418 0.75475 9.85215L1.53797 9.45424L1.81041 9.71732C2.00091 9.90128 2.24528 9.99321 2.48975 9.99321C2.73416 9.99321 2.97866 9.90121 3.16909 9.71732L3.4415 9.45427L3.69688 9.58402C3.57663 9.77953 3.50837 10.0088 3.50837 10.249V12.082C3.50837 12.2135 3.61331 12.3201 3.74275 12.3201C3.87219 12.3201 3.97712 12.2135 3.97712 12.082V10.249C3.97712 9.92201 4.18028 9.62727 4.48269 9.51552L6.00306 8.95376L6.63597 9.91849C6.71688 10.0418 6.84653 10.1209 6.99169 10.1355C7.00787 10.1371 7.02397 10.1379 7.04003 10.1379C7.16809 10.1379 7.29075 10.0867 7.38244 9.99359L7.76856 9.60123V12.082C7.76856 12.2135 7.8735 12.3202 8.00294 12.3202C8.13237 12.3202 8.23731 12.2135 8.23731 12.082V9.60123L8.62344 9.99359C8.71509 10.0868 8.83775 10.138 8.96584 10.138C8.98188 10.138 8.998 10.1372 9.01416 10.1356C9.15934 10.121 9.289 10.0419 9.36991 9.91852L10.0028 8.95382L11.5232 9.51559C11.8256 9.62733 12.0288 9.92208 12.0288 10.249V12.082C12.0288 12.2136 12.1337 12.3202 12.2631 12.3202C12.3926 12.3202 12.4975 12.2136 12.4975 12.082V10.249C12.4975 9.91788 12.368 9.60733 12.1508 9.37765L12.2087 9.36085C12.2672 9.34389 12.3468 9.32068 12.4268 9.28083L13.0253 9.88889V12.082C13.0253 12.2136 13.1302 12.3202 13.2596 12.3202C13.3891 12.3202 13.494 12.2136 13.494 12.082V9.88889L14.0883 9.28505C14.1198 9.30137 14.153 9.31515 14.188 9.32528L15.156 9.60631C15.3769 9.67045 15.5312 9.87835 15.5312 10.1119V12.082C15.5312 12.2136 15.6362 12.3202 15.7656 12.3202C15.8951 12.3202 16 12.2136 16 12.082V10.1119C16 9.66674 15.7059 9.27047 15.2847 9.14819ZM1.50359 8.72754C1.06519 8.56724 0.845281 8.35354 0.751406 8.23684C0.815406 8.06682 0.856906 7.87211 0.885 7.66656C1.01425 7.98147 1.23072 8.2503 1.50359 8.4421V8.72754ZM2.84625 9.37209C2.64634 9.56509 2.33319 9.56506 2.13334 9.37206L1.91537 9.16159C1.95216 9.09157 1.97238 9.01219 1.97238 8.92902V8.67517C2.13587 8.72709 2.30969 8.7551 2.48981 8.7551C2.66972 8.7551 2.84344 8.72697 3.00722 8.67533L3.00719 8.92899C3.00719 9.01219 3.02737 9.0916 3.06419 9.16165L2.84625 9.37209ZM2.48988 8.27878C1.79 8.27878 1.22066 7.70022 1.22066 6.98908C1.22066 6.85755 1.11572 6.75092 0.986281 6.75092C0.973156 6.75092 0.960344 6.75229 0.947812 6.75442C0.9485 6.73393 0.949156 6.71342 0.949844 6.69313C0.955063 6.52937 0.960094 6.3747 0.969375 6.24203C0.999313 5.8141 1.16759 5.41978 1.44322 5.13164C1.72131 4.84089 2.093 4.68079 2.48981 4.68079C2.88663 4.68079 3.25828 4.84089 3.53641 5.13164C3.81203 5.41978 3.98031 5.8141 4.01025 6.24203C4.0195 6.37466 4.02456 6.52931 4.02987 6.69303C4.03034 6.7071 4.03081 6.72136 4.03128 6.73552C3.77628 6.3363 3.38247 6.0421 2.87363 5.87596C2.40353 5.72249 1.99922 5.73199 1.98216 5.73243C1.92078 5.73418 1.86253 5.76028 1.81994 5.80518L1.39706 6.25082C1.30722 6.34551 1.30991 6.49628 1.40309 6.58758C1.49628 6.67887 1.64466 6.67611 1.7345 6.58145L2.08637 6.21065C2.38941 6.2257 3.36431 6.34091 3.74347 7.18929C3.64806 7.81447 3.11925 8.27878 2.48988 8.27878ZM3.47591 8.72833L3.47594 8.44429C3.74859 8.25354 3.96538 7.98522 4.09472 7.66792C4.12281 7.87299 4.16428 8.06727 4.22816 8.2369C4.13481 8.35249 3.91387 8.5681 3.47591 8.72833ZM5.73134 4.86465V4.27376C5.73134 4.23791 5.72337 4.2025 5.70803 4.17021C5.55722 3.85286 5.48075 3.51613 5.48075 3.16937V2.6601C5.48075 1.66812 6.27497 0.861114 7.25116 0.861114H10.5252V3.16941C10.5252 3.51616 10.4487 3.85289 10.2979 4.17024C10.2826 4.20253 10.2746 4.23794 10.2746 4.27379V4.95191C10.2746 5.59687 10.0194 6.19509 9.55612 6.63638C9.49828 6.69145 9.43825 6.74308 9.37619 6.79119C9.37481 6.79214 9.3735 6.79319 9.37216 6.79417C8.93812 7.12902 8.4065 7.29176 7.85131 7.25521C6.66253 7.177 5.73134 6.12695 5.73134 4.86465ZM7.051 9.65674C7.04938 9.65839 7.04559 9.66229 7.03794 9.66147C7.03031 9.6607 7.02731 9.65617 7.02603 9.6542L6.29712 8.54317L6.53169 8.29273L7.63747 9.06077L7.051 9.65674ZM8.00297 8.73767L6.73375 7.8561V7.41154C7.06216 7.59194 7.42987 7.70476 7.82097 7.73048C7.88275 7.73455 7.94416 7.73655 8.00537 7.73655C8.45353 7.73655 8.88484 7.62769 9.27219 7.42107V7.8561L8.00297 8.73767ZM8.97991 9.65426C8.97863 9.65623 8.97563 9.66077 8.968 9.66153C8.96034 9.66252 8.95659 9.65842 8.95494 9.6568L8.36847 9.06086L9.47425 8.29279L9.70884 8.54324L8.97991 9.65426ZM13.2596 9.45332L12.7277 8.91289C12.737 8.87005 12.7423 8.82315 12.7423 8.77142L12.7422 8.67092C12.8898 8.72014 13.0454 8.74935 13.2063 8.75424C13.2244 8.75482 13.2423 8.75507 13.2603 8.75507C13.4382 8.75507 13.6118 8.72776 13.7771 8.67565V8.77155C13.7771 8.81905 13.7829 8.86561 13.794 8.91035L13.2596 9.45332ZM14.1435 7.91469C13.8951 8.15964 13.5669 8.28901 13.2204 8.27815C12.5422 8.25748 11.9904 7.65043 11.9904 6.925V6.47977C11.9904 6.44278 11.9819 6.40632 11.9657 6.37327L11.8209 6.07903C11.7678 5.97122 11.7398 5.85056 11.7398 5.73002V5.71582C11.7398 5.14507 12.1968 4.68076 12.7584 4.68076H14.7795V5.66991C14.7795 5.82976 14.7423 5.98983 14.6719 6.13282L14.5536 6.37327C14.5373 6.40635 14.5289 6.44278 14.5289 6.47977V6.98905C14.5289 7.34089 14.392 7.66961 14.1435 7.91469Z" fill="#8B94AE"/>
<path d="M9.92278 3.25608C9.03635 2.35533 7.18169 2.52753 6.42538 2.64337C6.18716 2.67986 6.01428 2.88471 6.01428 3.13046V3.67911C6.01428 3.81063 6.11922 3.91727 6.24866 3.91727C6.37809 3.91727 6.48303 3.81063 6.48303 3.67911V3.13042C6.48303 3.12233 6.48828 3.1154 6.49528 3.11432C6.79738 3.06806 7.39684 2.99667 8.01794 3.03875C8.74881 3.08819 9.27819 3.27462 9.59134 3.59286C9.68288 3.68587 9.83128 3.68587 9.92278 3.59286C10.0143 3.49985 10.0143 3.34905 9.92278 3.25608Z" fill="#8B94AE"/>
</svg>
