<svg width="12" height="16" viewBox="0 0 12 16" fill="none" xmlns="http://www.w3.org/2000/svg">
<path d="M11.1421 4.37623C10.8367 4.07084 10.6667 3.6647 10.6667 3.23022C10.6667 2.05588 9.70956 1.09878 8.53522 1.09878C8.1039 1.09878 7.69461 0.928768 7.38922 0.623377C6.55805 -0.207792 5.2074 -0.207792 4.37623 0.623377C4.07084 0.928768 3.6647 1.09878 3.23022 1.09878C2.05588 1.09878 1.09878 2.05588 1.09878 3.23022C1.09878 3.66155 0.931917 4.07084 0.623377 4.37623C0.220386 4.77922 0 5.31444 0 5.8843C0 6.45415 0.220386 6.98937 0.623377 7.39237C0.928768 7.69776 1.09878 8.1039 1.09878 8.53837C1.09878 9.50492 1.7442 10.3203 2.62574 10.5817L1.38843 15.2035L3.25541 14.1645L4.35104 16L5.4939 11.734C5.62298 11.756 5.75207 11.7686 5.88115 11.7686C6.01023 11.7686 6.13932 11.756 6.2684 11.734L7.4144 15.9969L8.51004 14.1614L10.377 15.2003L9.13971 10.5785C10.0213 10.3172 10.6667 9.50177 10.6667 8.53522C10.6667 8.1039 10.8367 7.69461 11.1421 7.38922C11.9732 6.5612 11.9732 5.2074 11.1421 4.37623ZM4.17473 14.6966L3.44431 13.475L2.20071 14.1677L3.13892 10.6667C3.17355 10.6698 3.20504 10.6698 3.23652 10.6698C3.66785 10.6698 4.07714 10.8398 4.38253 11.1452C4.4329 11.1956 4.48327 11.2397 4.5368 11.2837C4.55254 11.2963 4.56828 11.3089 4.58402 11.3215C4.6218 11.3499 4.65958 11.3782 4.70051 11.4065C4.72255 11.4223 4.74774 11.4349 4.76978 11.4506C4.80441 11.4695 4.83589 11.4915 4.87052 11.5104C4.89886 11.5262 4.93034 11.5419 4.95868 11.5545C4.97127 11.5608 4.99016 11.5702 5.00905 11.5765L4.17473 14.6966ZM9.57418 14.1677L8.33058 13.475L7.60016 14.6966L6.76584 11.5765C6.78473 11.5671 6.80047 11.5577 6.81936 11.5514C6.85085 11.5356 6.87918 11.523 6.91067 11.5041C6.9453 11.4852 6.97678 11.4664 7.00827 11.4475C7.03345 11.4317 7.05549 11.4191 7.08068 11.4034C7.11846 11.3782 7.15309 11.3499 7.19087 11.3215C7.20976 11.3089 7.22865 11.2963 7.24439 11.2806C7.29791 11.2365 7.34829 11.1924 7.39866 11.1421C7.70405 10.8367 8.11019 10.6667 8.54467 10.6667C8.56985 10.6698 8.60134 10.6667 8.63597 10.6667L9.57418 14.1677ZM10.78 7.0303C10.377 7.43329 10.1566 7.96852 10.1566 8.53837C10.1566 9.31917 9.60252 9.97088 8.8658 10.1251L8.78394 10.1377C8.73987 10.144 8.70209 10.1503 8.66116 10.1535C8.62023 10.1566 8.57615 10.1598 8.53522 10.1598C8.32113 10.1598 8.11334 10.1913 7.91499 10.2511C7.58442 10.3518 7.27902 10.5313 7.0303 10.7832C6.98623 10.8272 6.94215 10.865 6.89492 10.9028C6.87918 10.9154 6.86344 10.9248 6.8477 10.9374C6.81621 10.9626 6.78158 10.9847 6.74695 11.0067C6.73121 11.0161 6.71232 11.0287 6.69343 11.0382C6.65565 11.0602 6.61787 11.0791 6.58009 11.098C6.56434 11.1043 6.55175 11.1106 6.53601 11.12C6.48878 11.1421 6.43841 11.161 6.39118 11.1767C6.38174 11.1799 6.36915 11.1861 6.3597 11.1893L6.34081 11.1956C6.04486 11.2806 5.72688 11.2806 5.43093 11.1956L5.40575 11.1893C5.3963 11.1861 5.39 11.183 5.38056 11.1799C5.33018 11.1641 5.27981 11.1421 5.22944 11.1232C5.21684 11.1169 5.2011 11.1106 5.18851 11.1043C5.14758 11.0854 5.1098 11.0634 5.07202 11.0413C5.05628 11.0319 5.04054 11.0224 5.02479 11.013C4.98701 10.9909 4.95238 10.9658 4.91775 10.9406C4.90516 10.9311 4.88941 10.9217 4.87682 10.9091C4.82959 10.8713 4.78552 10.8304 4.74144 10.7895C4.48957 10.5376 4.18733 10.3581 3.85675 10.2574C3.6584 10.1976 3.45061 10.1661 3.23652 10.1661C3.19244 10.1661 3.15152 10.1629 3.11059 10.1598C3.07281 10.1566 3.03188 10.1503 2.9878 10.144L2.90594 10.1314C2.16922 9.97717 1.61511 9.32546 1.61511 8.54467C1.61511 7.97481 1.39473 7.43959 0.991736 7.0366C0.686344 6.73121 0.516332 6.32507 0.516332 5.89059C0.516332 5.45927 0.686344 5.04998 0.991736 4.74459C1.39473 4.3416 1.61511 3.80638 1.61511 3.23652C1.61511 2.34239 2.34238 1.61826 3.23337 1.61826C3.80323 1.61826 4.33845 1.39787 4.74144 0.994884C5.05628 0.680047 5.47186 0.522629 5.88745 0.522629C6.30303 0.522629 6.71861 0.680047 7.03345 0.994884C7.43644 1.39787 7.97166 1.61826 8.54152 1.61826C9.43566 1.61826 10.1598 2.34553 10.1598 3.23652C10.1598 3.80638 10.3802 4.3416 10.7832 4.74459C11.4128 5.37111 11.4128 6.39748 10.78 7.0303Z" fill="#8B94AE"/>
<path d="M5.88412 2.0498C3.76842 2.0498 2.04626 3.77196 2.04626 5.88766C2.04626 8.00337 3.76842 9.72237 5.88412 9.72237C7.99983 9.72237 9.72198 8.00022 9.72198 5.88452C9.72198 3.76881 7.99983 2.0498 5.88412 2.0498ZM5.88412 9.20919C4.05177 9.20919 2.55945 7.71686 2.55945 5.88452C2.55945 4.05217 4.05177 2.55984 5.88412 2.55984C7.71647 2.55984 9.2088 4.05217 9.2088 5.88452C9.2088 7.71686 7.71647 9.20919 5.88412 9.20919Z" fill="#8B94AE"/>
<path d="M5.88425 3.26758L5.3144 5.02437H3.46631L4.96178 6.11055L4.39193 7.86734L5.8874 6.78115L7.38288 7.86734L6.80987 6.11055L8.30535 5.02437H6.45726L5.88425 3.26758ZM6.40688 6.52929L5.88425 6.14833L5.36163 6.52929L5.55997 5.91535L5.03734 5.5344H5.68276L5.88111 4.92047L6.07945 5.5344H6.72487L6.20224 5.91535L6.40688 6.52929Z" fill="#8B94AE"/>
</svg>
