<svg width="21" height="16" viewBox="0 0 21 16" fill="none" xmlns="http://www.w3.org/2000/svg">
<path d="M4.25416 1.719C4.12722 1.81802 4.00561 1.92461 3.89076 2.03946C3.77063 2.15963 3.77063 2.35437 3.89076 2.47451C3.95085 2.53456 4.0296 2.56458 4.10831 2.56458C4.18702 2.56458 4.26577 2.53456 4.32585 2.47451C4.77235 2.02797 5.33369 1.71987 5.94917 1.58341C6.11503 1.54666 6.2197 1.38239 6.18291 1.21652C6.14616 1.0507 5.98202 0.946027 5.81603 0.982776C5.45189 1.06349 5.10375 1.19491 4.78051 1.37201L3.84782 0.47115C3.72568 0.353107 3.53089 0.356429 3.41289 0.478737C3.29485 0.600922 3.29825 0.795664 3.42048 0.913666L4.25416 1.719Z" fill="#8B94AE"/>
<path d="M6.51279 11.9653C6.28831 12.1898 6.16211 12.494 6.16773 12.8114C6.17339 13.1287 6.30464 13.4228 6.53732 13.6395C6.85683 13.9371 7.31546 14.0142 7.71364 13.8759C7.75371 14.1016 7.86072 14.3176 8.03467 14.4916C8.46135 14.9182 9.1404 14.9421 9.59539 14.5634C9.65367 14.7582 9.76302 14.9349 9.9165 15.0779C10.1379 15.2841 10.4186 15.3863 10.7003 15.3863C11.0023 15.3863 11.3056 15.2689 11.5383 15.0362L15.5544 11.0897C15.6756 10.9707 15.6773 10.7759 15.5583 10.6547C15.4392 10.5336 15.2444 10.5319 15.1232 10.6509L11.1051 14.5992C10.8925 14.812 10.5474 14.8247 10.3358 14.6277C10.2265 14.5258 10.1647 14.3877 10.1621 14.2388C10.1595 14.0898 10.216 13.9497 10.3214 13.8444C10.3367 13.8291 13.5556 10.6102 13.5556 10.6102C13.6757 10.49 13.6757 10.2953 13.5556 10.1752C13.4354 10.0551 13.2407 10.0551 13.1205 10.1752L9.23909 14.0566C9.13634 14.1594 8.99976 14.216 8.85444 14.216C8.70913 14.216 8.57255 14.1594 8.4698 14.0567C8.25767 13.8445 8.25767 13.4994 8.4698 13.2873C8.47948 13.2776 12.3513 9.40583 12.3513 9.40583C12.4714 9.28565 12.4714 9.09091 12.3513 8.97078C12.2311 8.85068 12.0363 8.85068 11.9162 8.97078L7.72586 13.161C7.51324 13.3737 7.16809 13.3864 6.95658 13.1893C6.84719 13.0875 6.7855 12.9494 6.78288 12.8005C6.78025 12.6515 6.83677 12.5114 6.94214 12.4061L10.7535 8.59479C10.8736 8.47461 10.8736 8.27987 10.7535 8.15974C10.6333 8.03964 10.4385 8.03964 10.3184 8.15974C10.3184 8.15974 7.25812 11.2201 7.24779 11.2304C7.0352 11.443 6.69006 11.4558 6.47854 11.2587C6.36915 11.1569 6.30742 11.0187 6.3048 10.8699C6.30217 10.7209 6.35869 10.5808 6.4641 10.4755L10.306 6.63355L11.1654 7.49373C11.4145 7.74343 11.7508 7.88198 12.1007 7.88198C12.1335 7.88198 12.1664 7.88079 12.1993 7.87833C12.5839 7.84966 12.9358 7.65512 13.1649 7.34451C13.5495 6.82304 13.4873 6.07755 13.0203 5.6105L11.383 3.97329C12.2084 3.44087 13.2282 3.30478 14.163 3.59603L13.9378 3.81591C13.8162 3.93461 13.8139 4.12939 13.9326 4.25088C13.9929 4.31265 14.0728 4.34362 14.1527 4.34362C14.2302 4.34362 14.3078 4.3145 14.3676 4.25609L15.6601 2.99409L16.2008 3.53479C16.3209 3.65493 16.5157 3.65497 16.6358 3.53483C16.756 3.4147 16.756 3.21992 16.6359 3.09982L15.8712 2.33513C15.8312 2.29514 15.8312 2.23009 15.8712 2.19014L16.3446 1.71678C16.3846 1.67671 16.4497 1.67679 16.4896 1.71678L19.8833 5.11048C19.9233 5.15047 19.9233 5.21553 19.8833 5.25547L19.4099 5.72883C19.3699 5.76882 19.3048 5.76882 19.2649 5.72883L17.6778 4.1417C17.5576 4.02165 17.3629 4.02156 17.2428 4.1417C17.1226 4.26187 17.1226 4.45662 17.2428 4.57675L18.562 5.89601L17.9962 6.45473C17.9505 6.49984 17.9201 6.55813 17.9091 6.62137C17.7334 7.64155 17.2496 8.56366 16.5097 9.28844L16.1743 9.618C16.0532 9.73707 16.0514 9.93185 16.1705 10.053C16.2307 10.1143 16.3103 10.145 16.3899 10.145C16.4677 10.145 16.5457 10.1156 16.6055 10.0568L16.9406 9.72759C17.7493 8.93546 18.2862 7.93341 18.4976 6.82419L19.0262 6.30223C19.1243 6.34936 19.2307 6.37368 19.3374 6.37368C19.5212 6.37368 19.705 6.30371 19.845 6.16384L20.3183 5.69048C20.5361 5.47269 20.5836 5.14892 20.4625 4.884L20.9085 4.44357C21.0294 4.32418 21.0307 4.12944 20.9113 4.00856C20.7919 3.88765 20.5971 3.8865 20.4763 4.00582L20.0599 4.41695L17.1663 1.5234L17.581 1.11853C17.7025 0.999833 17.7049 0.805092 17.5862 0.683563C17.4675 0.561952 17.2727 0.559655 17.1512 0.678354L16.6921 1.12653C16.4318 1.01891 16.1207 1.0705 15.9095 1.28169L15.4362 1.75505C15.2315 1.95976 15.1772 2.25811 15.2719 2.51322L14.6526 3.11783C13.4238 2.62023 12.0263 2.77572 10.9396 3.52979L9.4488 2.03904C8.8905 1.4807 8.18688 1.10713 7.41398 0.958777C7.24705 0.926456 7.08594 1.03605 7.05391 1.20286C7.02187 1.36971 7.13118 1.53094 7.29799 1.56293C7.94956 1.68803 8.54285 2.00307 9.01375 2.47405L12.5852 6.04547C12.8389 6.29919 12.8752 6.70061 12.6697 6.97923C12.5472 7.14534 12.3591 7.2494 12.1535 7.2647C11.9475 7.28028 11.7464 7.20506 11.6007 7.05897L9.01838 4.47413C8.92589 4.3816 8.78505 4.35756 8.66717 4.41445L8.46644 4.51117C7.14968 5.14613 5.57042 4.87813 4.53679 3.84446C4.41665 3.72433 4.22187 3.72428 4.10178 3.84442C3.9816 3.96459 3.9816 4.15934 4.10174 4.27943C5.32018 5.49792 7.18155 5.81378 8.73365 5.06533L8.73755 5.06348L9.87109 6.19813L9.3988 6.67043L8.9877 6.25933C8.86753 6.13923 8.67279 6.13923 8.55265 6.25933C8.43252 6.3795 8.43252 6.57424 8.55265 6.69438L8.96379 7.10548L8.1945 7.8748L7.74358 7.42388C7.62341 7.30379 7.42866 7.30379 7.30853 7.42388C7.1884 7.54405 7.1884 7.7388 7.30853 7.85893L7.75945 8.30985L6.99017 9.07918L6.5392 8.62822C6.41903 8.50812 6.22429 8.50812 6.10415 8.62822C5.98402 8.74839 5.98402 8.94313 6.10415 9.06327L6.55512 9.51423L6.02909 10.0403C5.93689 10.1325 5.86253 10.2373 5.80695 10.3506L3.04493 7.6365C2.30538 6.91213 1.82156 5.98998 1.64585 4.96976C1.63474 4.90557 1.60365 4.84651 1.55685 4.80119L0.521906 3.79737C0.399844 3.67921 0.205103 3.6822 0.0868144 3.80414C-0.0314742 3.92612 -0.0285211 4.12086 0.0934589 4.23911L1.05757 5.17418C1.26917 6.28287 1.80602 7.28439 2.61398 8.07578L5.72074 11.1286C5.77275 11.3494 5.88853 11.55 6.05916 11.7089C6.19131 11.832 6.34717 11.9174 6.51279 11.9653Z" fill="#8B94AE"/>
</svg>
