<svg width="16" height="17" viewBox="0 0 16 17" fill="none" xmlns="http://www.w3.org/2000/svg">
<path d="M8 0.384766C3.58872 0.384766 0 3.97348 0 8.38477C0 12.796 3.58872 16.3848 8 16.3848C12.4113 16.3848 16 12.796 16 8.38477C16 3.97348 12.4113 0.384766 8 0.384766ZM8 15.8238C3.89807 15.8238 0.561032 12.4866 0.561032 8.38485C0.561032 4.28308 3.89823 0.945879 8 0.945879C12.1018 0.945879 15.439 4.28308 15.439 8.38485C15.439 12.4866 12.102 15.8238 8 15.8238Z" fill="#8B94AE"/>
<path d="M7.83697 10.6173C7.69263 10.6144 7.56663 10.6647 7.45936 10.7681C7.35194 10.8712 7.29701 10.9947 7.29419 11.1391C7.29128 11.2896 7.34144 11.4186 7.44458 11.5261C7.54781 11.6334 7.67187 11.6884 7.81621 11.6913C7.9666 11.6939 8.09551 11.6441 8.20286 11.5405C8.31028 11.4374 8.36553 11.3106 8.36844 11.1601C8.37102 11.0157 8.3207 10.8901 8.21764 10.7826C8.11433 10.6755 7.98736 10.6201 7.83697 10.6173Z" fill="#8B94AE"/>
<path d="M9.47976 5.75464C9.1158 5.44053 8.62674 5.27729 8.01288 5.26542C7.7062 5.25952 7.42568 5.28763 7.1715 5.34837C6.91771 5.41 6.66571 5.51629 6.41597 5.6679C6.26363 5.75513 6.18642 5.86821 6.18367 6.00657C6.18173 6.10309 6.21622 6.18814 6.28706 6.26156C6.35773 6.3353 6.44133 6.37294 6.53753 6.37488C6.61571 6.3765 6.69148 6.35396 6.76457 6.30679C6.92296 6.21399 7.10341 6.14372 7.30606 6.0963C7.50871 6.04913 7.71516 6.02741 7.92581 6.03169C8.78642 6.04833 9.21039 6.38482 9.19762 7.04043C9.19447 7.209 9.13721 7.35842 9.02639 7.48871C8.91557 7.61899 8.7441 7.77229 8.51196 7.94805C8.29194 8.11856 8.11578 8.26976 7.98389 8.40279C7.85166 8.53582 7.73576 8.70382 7.63552 8.90647C7.53529 9.10913 7.48262 9.34578 7.47729 9.61636C7.47552 9.71272 7.51146 9.79608 7.58536 9.86667C7.65927 9.93751 7.75337 9.97402 7.86758 9.97644C7.97581 9.97854 8.06983 9.94542 8.14947 9.8779C8.22886 9.81038 8.26981 9.72847 8.27175 9.63211C8.27627 9.39158 8.34485 9.18973 8.47755 9.02682C8.60986 8.86374 8.80766 8.68217 9.07041 8.48243C9.27209 8.32993 9.43404 8.19295 9.55705 8.07203C9.67991 7.95144 9.78475 7.80282 9.8727 7.62674C9.96034 7.45082 10.0064 7.24543 10.011 7.01071C10.0209 6.48747 9.84403 6.06884 9.47976 5.75464Z" fill="#8B94AE"/>
<path d="M8.00002 1.76758C4.35162 1.76758 1.3833 4.73573 1.3833 8.3843C1.3833 8.53647 1.5068 8.65997 1.65897 8.65997C1.81114 8.65997 1.93464 8.53647 1.93464 8.3843C1.93464 5.03984 4.65548 2.319 7.99994 2.319C8.15212 2.319 8.27561 2.1955 8.27561 2.04333C8.27561 1.89116 8.15228 1.76758 8.00002 1.76758Z" fill="#8B94AE"/>
<path d="M12.4112 15.8281H8.55143C8.39926 15.8281 8.27576 15.9516 8.27576 16.1038C8.27576 16.256 8.39926 16.3795 8.55143 16.3795H12.4112C12.5634 16.3795 12.6869 16.256 12.6869 16.1038C12.6869 15.9517 12.5634 15.8281 12.4112 15.8281Z" fill="#8B94AE"/>
</svg>
