<svg width="11" height="21" viewBox="0 0 11 21" fill="none" xmlns="http://www.w3.org/2000/svg">
<path d="M9.47113 0H1.52887C1.12339 0 0.734513 0.161077 0.447795 0.447795C0.161077 0.734513 0 1.12339 0 1.52887L0 18.6326C0 19.0381 0.161077 19.4269 0.447795 19.7136C0.734513 20.0004 1.12339 20.1614 1.52887 20.1614H9.47113C9.87661 20.1614 10.2655 20.0004 10.5522 19.7136C10.8389 19.4269 11 19.0381 11 18.6326V1.52887C11 1.12339 10.8389 0.734513 10.5522 0.447795C10.2655 0.161077 9.87661 0 9.47113 0ZM0.613899 3.37292H10.3877V16.304H0.613115V3.37292H0.613899ZM1.52808 0.605274H9.47192C9.9784 0.605274 10.3892 1.01532 10.3892 1.52259V2.76137H0.611547V1.52887C0.610615 1.40781 0.633655 1.28777 0.679338 1.17566C0.72502 1.06355 0.792442 0.961587 0.877716 0.875657C0.96299 0.789727 1.06443 0.721526 1.17619 0.674986C1.28794 0.628446 1.40781 0.604487 1.52887 0.60449L1.52808 0.605274ZM9.47192 19.5554H1.52808C1.28479 19.5554 1.05147 19.4587 0.879439 19.2867C0.707409 19.1147 0.610763 18.8813 0.610763 18.6381V16.9148H10.3869V18.6326C10.3877 18.7534 10.3647 18.8731 10.3191 18.985C10.2735 19.0969 10.2063 19.1986 10.1213 19.2844C10.0363 19.3703 9.93513 19.4384 9.82369 19.4851C9.71226 19.5317 9.59271 19.5559 9.47192 19.5562V19.5554Z" fill="#8B94AE"/>
<path d="M5.49994 19.1571C5.97668 19.1571 6.36316 18.7706 6.36316 18.2939C6.36316 17.8171 5.97668 17.4307 5.49994 17.4307C5.0232 17.4307 4.63672 17.8171 4.63672 18.2939C4.63672 18.7706 5.0232 19.1571 5.49994 19.1571Z" fill="#8B94AE"/>
<path d="M4.29032 2.03575H6.70985C6.75341 2.04243 6.7979 2.03961 6.84027 2.02749C6.88265 2.01536 6.92189 1.99423 6.95533 1.96552C6.98877 1.93681 7.01561 1.90122 7.03401 1.86117C7.05241 1.82113 7.06194 1.77758 7.06194 1.73351C7.06194 1.68944 7.05241 1.64589 7.03401 1.60584C7.01561 1.5658 6.98877 1.5302 6.95533 1.5015C6.92189 1.47279 6.88265 1.45165 6.84027 1.43953C6.7979 1.42741 6.75341 1.42459 6.70985 1.43126H4.29032C4.24676 1.42459 4.20227 1.42741 4.1599 1.43953C4.11753 1.45165 4.07828 1.47279 4.04484 1.5015C4.0114 1.5302 3.98456 1.5658 3.96616 1.60584C3.94776 1.64589 3.93823 1.68944 3.93823 1.73351C3.93823 1.77758 3.94776 1.82113 3.96616 1.86117C3.98456 1.90122 4.0114 1.93681 4.04484 1.96552C4.07828 1.99423 4.11753 2.01536 4.1599 2.02749C4.20227 2.03961 4.24676 2.04243 4.29032 2.03575Z" fill="#8B94AE"/>
</svg>
