<svg width="13" height="17" viewBox="0 0 13 17" fill="none" xmlns="http://www.w3.org/2000/svg">
<path d="M12.1905 16.1014V12.9455C12.1879 11.6517 11.1454 10.6028 9.85699 10.5974H8.56839V9.53737C8.63487 9.48299 8.69633 9.42265 8.75202 9.35712C9.45961 8.63187 9.85532 7.65642 9.85364 6.64111V2.99088C10.1652 2.80483 10.3889 2.53569 10.5696 2.1946C10.7966 1.7666 10.9248 1.23137 10.9248 0.687588C10.9256 0.607854 10.8912 0.531785 10.831 0.479698C10.7709 0.427611 10.6909 0.404699 10.6124 0.417224L8.08718 0.815897C7.64948 0.88555 7.20189 0.861263 6.77423 0.744563L5.61783 0.430971C5.22684 0.323284 4.80846 0.406226 4.4876 0.654748C4.38171 0.735246 4.28861 0.831019 4.21117 0.939165C3.03028 1.61385 2.30002 2.87235 2.29789 4.23654V6.64111C2.29804 7.65703 2.69527 8.63233 3.40423 9.35712C3.46189 9.41654 3.5442 9.47367 3.58314 9.52881V10.5974H2.31462C1.02997 10.5974 0 11.6557 0 12.9455V16.1014C0 16.2526 0.107105 16.3848 0.257721 16.3848H11.9139C12.0671 16.3805 12.1894 16.2552 12.1905 16.1014ZM4.81667 1.08962C4.94827 0.988044 5.10939 0.932902 5.27537 0.932749C5.34277 0.932902 5.41001 0.941762 5.47513 0.95948L6.63183 1.27323C7.13358 1.41009 7.65845 1.4385 8.17192 1.35678L10.3674 1.01019C10.2719 1.99374 9.74365 2.51568 9.27841 2.67164C8.99498 2.71471 6.00243 3.16455 4.63381 3.16455C4.57067 3.16455 4.51909 3.11384 4.51788 3.05045V1.69206C4.51803 1.4553 4.62848 1.23229 4.81667 1.08947V1.08962ZM3.97262 1.77378V3.05045C3.97277 3.3781 4.21193 3.65625 4.53476 3.70421C3.99833 4.12229 3.42735 4.31353 2.84315 4.27442V4.23654C2.84725 3.29027 3.25909 2.39211 3.97262 1.77378ZM2.84315 6.64111V4.82248C2.88209 4.82508 2.94447 4.82676 2.99255 4.82676C4.0286 4.82676 4.83128 4.24021 5.36391 3.68405C6.83295 3.58889 8.91891 3.27866 9.30838 3.21878V6.64111C9.31097 7.5133 8.97201 8.35158 8.36467 8.97525C7.74973 9.60931 6.94128 9.95849 6.08246 9.95849C5.21862 9.95666 4.39282 9.60167 3.79522 8.97525C3.18561 8.3525 2.84375 7.51437 2.84315 6.64111ZM6.08048 10.5059C6.76708 10.5064 7.44013 10.3136 8.02313 9.94933V10.7502C6.88681 11.6702 5.26533 11.6708 4.1284 10.7514V9.94337C4.71337 10.3116 5.38993 10.5067 6.08048 10.5059ZM11.6452 15.8373H0.545261V12.9455C0.545261 11.9577 1.33075 11.1449 2.31462 11.1449H3.76038C5.10087 12.2789 7.06009 12.2789 8.40058 11.1449H9.85699C10.8444 11.1499 11.6429 11.954 11.6452 12.9455V15.8373Z" fill="#8B94AE"/>
</svg>
