<svg width="16" height="13" viewBox="0 0 16 13" fill="none" xmlns="http://www.w3.org/2000/svg">
<path d="M15.2258 0H0.774194C0.568949 0.000273114 0.372188 0.0819274 0.227058 0.227058C0.0819274 0.372188 0.000273114 0.568949 0 0.774194V9.54839C0.000273114 9.75363 0.0819274 9.95039 0.227058 10.0955C0.372188 10.2407 0.568949 10.3223 0.774194 10.3226H6.10935L5.74097 11.6129H4.64516C4.57672 11.6129 4.51108 11.6401 4.46268 11.6885C4.41429 11.7369 4.3871 11.8025 4.3871 11.871V12.3871H2.32258C2.25414 12.3871 2.1885 12.4143 2.1401 12.4627C2.09171 12.5111 2.06452 12.5767 2.06452 12.6452C2.06452 12.7136 2.09171 12.7792 2.1401 12.8276C2.1885 12.876 2.25414 12.9032 2.32258 12.9032H13.6774C13.7459 12.9032 13.8115 12.876 13.8599 12.8276C13.9083 12.7792 13.9355 12.7136 13.9355 12.6452C13.9355 12.5767 13.9083 12.5111 13.8599 12.4627C13.8115 12.4143 13.7459 12.3871 13.6774 12.3871H11.6129V11.871C11.6129 11.8025 11.5857 11.7369 11.5373 11.6885C11.4889 11.6401 11.4233 11.6129 11.3548 11.6129H10.259L9.89064 10.3226H15.2258C15.4311 10.3223 15.6278 10.2407 15.7729 10.0955C15.9181 9.95039 15.9997 9.75363 16 9.54839V0.774194C15.9997 0.568949 15.9181 0.372188 15.7729 0.227058C15.6278 0.0819274 15.4311 0.000273114 15.2258 0ZM11.0968 12.129V12.3871H4.90323V12.129H11.0968ZM6.27774 11.6129L6.64613 10.3226H9.35387L9.72226 11.6129H6.27774ZM15.4839 9.54839C15.4838 9.6168 15.4566 9.68239 15.4082 9.73076C15.3598 9.77914 15.2942 9.80636 15.2258 9.80645H0.774194C0.705779 9.80636 0.640194 9.77914 0.591818 9.73076C0.543442 9.68239 0.516223 9.6168 0.516129 9.54839V9.03226H15.4839V9.54839ZM15.4839 8.51613H0.516129V0.774194C0.516223 0.705779 0.543442 0.640194 0.591818 0.591818C0.640194 0.543442 0.705779 0.516223 0.774194 0.516129H15.2258C15.2942 0.516223 15.3598 0.543442 15.4082 0.591818C15.4566 0.640194 15.4838 0.705779 15.4839 0.774194V8.51613Z" fill="#8B94AE"/>
<path d="M12.1289 4.68939V3.35456C12.1288 3.30543 12.1148 3.25733 12.0884 3.2159C12.062 3.17447 12.0243 3.14144 11.9798 3.12069L8.10885 1.31423C8.07471 1.2983 8.03749 1.29004 7.99982 1.29004C7.96214 1.29004 7.92493 1.2983 7.89079 1.31423L4.01982 3.12069C3.97531 3.14145 3.93764 3.17449 3.91126 3.21591C3.88487 3.25734 3.87085 3.30544 3.87085 3.35456C3.87085 3.40367 3.88487 3.45177 3.91126 3.4932C3.93764 3.53463 3.97531 3.56766 4.01982 3.58843L5.41917 4.24133V7.22552C5.41917 7.29397 5.44636 7.35961 5.49476 7.408C5.54316 7.4564 5.6088 7.48359 5.67724 7.48359H10.3224C10.3908 7.48359 10.4565 7.4564 10.5049 7.408C10.5533 7.35961 10.5805 7.29397 10.5805 7.22552V4.24133L11.6127 3.75972V4.68939C11.4405 4.75027 11.2954 4.87006 11.203 5.02758C11.1106 5.18511 11.0769 5.37023 11.1077 5.55023C11.1386 5.73023 11.2321 5.89351 11.3718 6.01123C11.5114 6.12894 11.6882 6.1935 11.8708 6.1935C12.0534 6.1935 12.2302 6.12894 12.3698 6.01123C12.5094 5.89351 12.6029 5.73023 12.6338 5.55023C12.6647 5.37023 12.631 5.18511 12.5386 5.02758C12.4462 4.87006 12.301 4.75027 12.1289 4.68939ZM10.0643 6.96746H5.9353V4.4823L7.89079 5.39488C7.92493 5.41081 7.96214 5.41907 7.99982 5.41907C8.03749 5.41907 8.07471 5.41081 8.10885 5.39488L10.0643 4.4823V6.96746ZM7.99982 4.87617L4.73917 3.35456L7.99982 1.83294L11.2605 3.35456L7.99982 4.87617ZM11.8708 5.67714C11.8197 5.67714 11.7699 5.662 11.7274 5.63365C11.685 5.60529 11.6519 5.56498 11.6324 5.51783C11.6128 5.47067 11.6077 5.41879 11.6177 5.36873C11.6276 5.31867 11.6522 5.27268 11.6883 5.23659C11.7244 5.2005 11.7704 5.17592 11.8204 5.16597C11.8705 5.15601 11.9224 5.16112 11.9695 5.18065C12.0167 5.20018 12.057 5.23326 12.0854 5.2757C12.1137 5.31814 12.1289 5.36803 12.1289 5.41907C12.1288 5.48749 12.1015 5.55307 12.0532 5.60145C12.0048 5.64982 11.9392 5.67704 11.8708 5.67714Z" fill="#8B94AE"/>
</svg>
