<svg width="21" height="17" viewBox="0 0 21 17" fill="none" xmlns="http://www.w3.org/2000/svg">
<rect x="2" y="5.38477" width="5" height="1" rx="0.5" fill="#8B94AE"/>
<rect x="2" y="7.38477" width="3" height="1" rx="0.5" fill="#8B94AE"/>
<path d="M16.4236 4.10732H13.0109C12.874 3.12834 12.4065 2.22746 11.6762 1.54649C10.8727 0.797311 9.82494 0.384766 8.72579 0.384766H4.32733C1.94122 0.384806 0 2.32603 0 4.7121V6.35357C0 8.11549 1.05311 9.68697 2.68291 10.3571C2.83323 10.4201 3.01354 10.3484 3.07693 10.1927C3.14036 10.0385 3.06672 9.86205 2.9125 9.79866C1.51003 9.22202 0.603803 7.86972 0.603803 6.35357V4.7121C0.603803 2.65893 2.27417 0.988609 4.32729 0.988609H8.72579C10.5543 0.988609 12.1085 2.33438 12.3997 4.10732H12.0251C9.639 4.10732 7.69777 6.04855 7.69777 8.43466V10.0761V10.0771H5.6883C5.58045 10.0771 5.48079 10.1347 5.42685 10.2281L4.41706 11.977C4.39177 12.0208 4.35161 12.0274 4.32989 12.0274C4.3082 12.0274 4.26804 12.0208 4.24275 11.977L3.796 11.2032C3.71263 11.0588 3.52798 11.0093 3.38357 11.0926C3.23917 11.176 3.18968 11.3607 3.27309 11.5051L3.71988 12.2789C3.84718 12.4994 4.07524 12.6311 4.32993 12.6312C4.58457 12.6312 4.81267 12.4995 4.93997 12.2789L5.86258 10.6809H7.74021C8.0353 12.7817 9.8442 14.4035 12.0251 14.4035H14.8703L15.8109 16.0325C15.9382 16.2531 16.1663 16.3848 16.421 16.3848C16.6757 16.3848 16.9037 16.2531 17.031 16.0325L18.1882 14.0283C18.6975 13.8009 19.1524 13.481 19.5419 13.0763C19.6575 12.9562 19.6538 12.7651 19.5337 12.6494C19.4136 12.5338 19.2224 12.5375 19.1068 12.6576C18.7508 13.0275 18.3314 13.3151 17.8601 13.5123C17.7991 13.5378 17.7483 13.5827 17.7152 13.6399L16.5081 15.7306C16.4828 15.7744 16.4427 15.7809 16.421 15.7809C16.3993 15.7809 16.3591 15.7744 16.3338 15.7306L15.3061 13.9505C15.2522 13.8571 15.1525 13.7996 15.0446 13.7996H12.0251C9.9719 13.7996 8.30158 12.1292 8.30158 10.0761V8.43462C8.30158 6.38145 9.97194 4.71113 12.0251 4.71113H16.4236C18.4767 4.71113 20.1471 6.38149 20.1471 8.43462V10.0761C20.1471 10.6162 20.0341 11.1369 19.8112 11.6238C19.7418 11.7754 19.8084 11.9546 19.9601 12.024C20.1116 12.0933 20.2908 12.0267 20.3602 11.8751C20.6194 11.3088 20.7509 10.7035 20.7509 10.076V8.43458C20.7509 6.04855 18.8097 4.10732 16.4236 4.10732Z" fill="#8B94AE"/>
<rect x="10" y="6.38477" width="8" height="1" rx="0.5" fill="#8B94AE"/>
<rect x="2" y="3.38477" width="8" height="1" rx="0.5" fill="#8B94AE"/>
<rect x="10" y="8.38477" width="8" height="1" rx="0.5" fill="#8B94AE"/>
<rect x="10" y="10.3848" width="8" height="1" rx="0.5" fill="#8B94AE"/>
</svg>
