<svg width="170" height="157" viewBox="0 0 170 157" fill="none" xmlns="http://www.w3.org/2000/svg">
<path d="M84.6406 156.685C131.284 156.685 169.096 154.437 169.096 151.664C169.096 148.891 131.284 146.643 84.6406 146.643C37.9974 146.643 0.185547 148.891 0.185547 151.664C0.185547 154.437 37.9974 156.685 84.6406 156.685Z" fill="#F5F5F5"/>
<path d="M132.99 30.2236C132.99 30.6708 132.859 31.1077 132.614 31.4791C132.369 31.8505 132.022 32.1398 131.616 32.3103C131.21 32.4809 130.764 32.525 130.333 32.4372C129.902 32.3495 129.507 32.1337 129.197 31.8171C128.886 31.5006 128.675 31.0975 128.59 30.6588C128.505 30.2201 128.549 29.7655 128.717 29.3524C128.885 28.9394 129.17 28.5863 129.535 28.338C129.901 28.0896 130.33 27.957 130.769 27.957C131.061 27.957 131.35 28.0157 131.62 28.1297C131.89 28.2436 132.135 28.4106 132.341 28.6212C132.548 28.8317 132.711 29.0816 132.823 29.3565C132.934 29.6315 132.991 29.9261 132.99 30.2236Z" fill="#263238"/>
<path d="M131.466 32.2729C131.467 32.6908 131.346 33.0996 131.118 33.4475C130.891 33.7954 130.567 34.0667 130.188 34.227C129.809 34.3874 129.392 34.4296 128.989 34.3483C128.586 34.2669 128.217 34.0658 127.926 33.7702C127.636 33.4747 127.439 33.0981 127.359 32.6881C127.279 32.2782 127.32 31.8533 127.478 31.4673C127.635 31.0813 127.902 30.7516 128.243 30.52C128.585 30.2883 128.986 30.1651 129.397 30.166C129.945 30.1672 130.471 30.3895 130.859 30.7844C131.246 31.1793 131.465 31.7145 131.466 32.2729Z" fill="#263238"/>
<path d="M144.01 130.324L141.955 132.675L136.34 128.128L138.396 125.777L144.01 130.324Z" fill="#7F3E3B"/>
<path d="M141.58 132.553L143.889 129.892C143.927 129.847 143.981 129.819 144.039 129.814C144.098 129.808 144.156 129.825 144.202 129.861L146.38 131.595C146.488 131.693 146.554 131.831 146.563 131.978C146.572 132.125 146.523 132.27 146.428 132.38C145.609 133.268 145.174 133.68 144.154 134.838C143.531 135.556 141.924 137.162 141.057 138.151C140.19 139.14 139.263 138.24 139.541 137.743C140.792 135.525 141.31 134.195 141.38 133.068C141.391 132.879 141.461 132.699 141.58 132.553Z" fill="#263238"/>
<path opacity="0.2" d="M138.4 125.777L136.34 128.128L139.236 130.47L141.292 128.119L138.4 125.777Z" fill="black"/>
<path d="M120.215 69.0547C120.215 69.0547 115.733 93.4499 115.554 102.458C115.354 112.35 137.769 130.965 137.769 130.965L141.345 126.49C141.345 126.49 127.698 111.853 124.758 102.702C125.93 92.1503 131.226 68.1055 131.226 68.1055L120.215 69.0547Z" fill="#263238"/>
<path opacity="0.3" d="M124.353 85.112C123.521 89.3923 124.074 94.9278 125.246 99.0306C126.182 92.7544 127.859 84.2072 129.192 77.6914C127.724 77.7491 125.394 79.745 124.353 85.112Z" fill="black"/>
<path d="M141.563 126.478L137.642 131.193L135.525 130.066L140.365 124.961L141.563 126.478Z" fill="#6F3B79"/>
<path d="M141.267 133.752C141.445 133.536 141.602 133.301 141.733 133.051C141.74 133.039 141.744 133.025 141.744 133.011C141.744 132.997 141.74 132.983 141.733 132.971C141.724 132.961 141.712 132.953 141.699 132.948C141.686 132.943 141.672 132.942 141.659 132.945C141.545 132.976 140.513 133.233 140.352 133.623C140.336 133.668 140.331 133.715 140.338 133.762C140.345 133.808 140.363 133.852 140.391 133.89C140.428 133.951 140.48 134.001 140.542 134.035C140.604 134.07 140.673 134.087 140.744 134.085C140.952 134.042 141.138 133.924 141.267 133.752ZM141.524 133.131C141.236 133.628 140.953 133.925 140.748 133.938C140.702 133.937 140.657 133.924 140.617 133.9C140.577 133.876 140.545 133.842 140.522 133.801C140.507 133.783 140.498 133.762 140.494 133.739C140.49 133.717 140.492 133.694 140.5 133.672C140.561 133.464 141.101 133.251 141.511 133.131H141.524Z" fill="#6F3B79"/>
<path d="M141.702 133.063C141.704 133.053 141.704 133.042 141.702 133.032C141.708 133.022 141.711 133.011 141.711 132.999C141.711 132.987 141.708 132.976 141.702 132.966C141.676 132.939 141.057 132.283 140.626 132.314C140.57 132.317 140.516 132.334 140.468 132.363C140.42 132.391 140.378 132.43 140.347 132.478C140.308 132.527 140.287 132.588 140.287 132.651C140.287 132.714 140.308 132.775 140.347 132.824C140.552 133.108 141.34 133.196 141.68 133.085L141.702 133.063ZM140.482 132.535C140.521 132.491 140.576 132.464 140.635 132.46C140.892 132.46 141.288 132.766 141.506 132.974C141.138 133.035 140.761 132.951 140.452 132.739C140.426 132.704 140.404 132.651 140.452 132.562L140.482 132.535Z" fill="#6F3B79"/>
<path d="M121.421 44.6868C121.334 45.0372 121.264 45.2989 121.186 45.5961C121.108 45.8933 121.016 46.1683 120.929 46.4477C120.749 47.0125 120.557 47.5714 120.354 48.1243C119.945 49.2382 119.475 50.328 118.947 51.3888C117.874 53.6265 116.423 55.6548 114.661 57.3812C114.176 57.8289 113.661 58.241 113.119 58.6143C112.98 58.7074 112.758 58.8316 112.583 58.9381C112.409 59.0445 112.204 59.1155 112.013 59.2042C111.821 59.2929 111.629 59.3417 111.438 59.4038L110.871 59.5369C109.536 59.7592 108.169 59.6927 106.86 59.3417C105.698 59.0567 104.568 58.6494 103.488 58.1264C102.961 57.878 102.452 57.603 101.951 57.3147C101.45 57.0264 100.971 56.7292 100.465 56.3744L101.554 54.2852C102.016 54.436 102.534 54.609 103.027 54.7554C103.519 54.9018 104.033 55.0304 104.529 55.159C105.494 55.4056 106.475 55.5776 107.465 55.6735C108.296 55.7723 109.138 55.7122 109.948 55.4961L110.17 55.4074C110.231 55.3719 110.301 55.3453 110.362 55.3098L110.519 55.2078C110.571 55.1635 110.593 55.1546 110.675 55.0881C111.016 54.815 111.337 54.5187 111.638 54.201C112.922 52.7401 113.973 51.0833 114.752 49.2909C115.188 48.3727 115.567 47.4102 115.933 46.4433C116.111 45.9598 116.281 45.4674 116.438 44.9751L116.665 44.2388C116.739 44.0037 116.817 43.7332 116.869 43.5469L121.421 44.6868Z" fill="#7F3E3B"/>
<path d="M112.596 51.4327L117.78 54.7061C117.78 54.7061 117.949 54.4799 118.215 54.0896C118.416 53.8057 118.677 53.4243 118.977 52.9807C120.672 50.4702 123.076 45.9416 122.924 43.8391C122.693 40.7121 119.465 40.5303 116.155 44.0432C114.726 45.5557 114.116 47.9198 113.45 49.4101C113.228 49.898 113.045 50.3283 112.901 50.6609L112.596 51.4327Z" fill="#6F3B79"/>
<path d="M134.911 147.688H131.818L131.418 140.396H134.51L134.911 147.688Z" fill="#7F3E3B"/>
<path d="M131.657 147.324H135.142C135.171 147.323 135.199 147.328 135.226 147.338C135.253 147.348 135.278 147.363 135.299 147.383C135.32 147.403 135.337 147.427 135.349 147.453C135.361 147.48 135.367 147.508 135.369 147.537L135.538 150.341C135.538 150.487 135.482 150.628 135.381 150.733C135.28 150.837 135.142 150.897 134.998 150.899C133.787 150.899 133.208 150.806 131.679 150.806C130.743 150.806 128.02 150.904 126.722 150.904C125.424 150.904 125.463 149.595 126.012 149.48C128.478 148.948 130.259 148.216 131.135 147.52C131.283 147.398 131.467 147.329 131.657 147.324Z" fill="#263238"/>
<path opacity="0.2" d="M134.51 140.396H131.418L131.627 144.158H134.719L134.51 140.396Z" fill="black"/>
<path d="M126.217 68.3768C126.217 68.3768 124.91 92.1821 125.96 101.151C127.093 110.975 130.316 143.248 130.316 143.248H135.978C135.978 143.248 135.386 111.264 135.147 101.483C134.89 90.8692 136.867 67.4453 136.867 67.4453L126.217 68.3768Z" fill="#263238"/>
<path d="M136.183 143.248H129.88L129.532 140.697L136.488 141.096L136.183 143.248Z" fill="#6F3B79"/>
<path d="M130.56 147.874C130.837 147.867 131.114 147.828 131.383 147.759C131.397 147.757 131.411 147.75 131.421 147.74C131.431 147.73 131.438 147.716 131.44 147.701C131.442 147.688 131.44 147.674 131.435 147.661C131.429 147.649 131.42 147.638 131.409 147.63C131.309 147.559 130.433 146.947 130.059 147.098C130.016 147.116 129.978 147.144 129.948 147.181C129.919 147.217 129.898 147.26 129.889 147.307C129.868 147.375 129.866 147.449 129.882 147.519C129.898 147.589 129.932 147.653 129.98 147.706C130.146 147.834 130.353 147.894 130.56 147.874ZM131.187 147.652C130.634 147.768 130.224 147.75 130.081 147.604C130.05 147.568 130.03 147.526 130.02 147.48C130.011 147.434 130.014 147.386 130.028 147.342C130.031 147.318 130.041 147.296 130.055 147.277C130.07 147.258 130.089 147.244 130.111 147.236C130.311 147.156 130.812 147.422 131.187 147.652Z" fill="#6F3B79"/>
<path d="M131.37 147.763H131.4C131.411 147.757 131.42 147.749 131.427 147.739C131.434 147.729 131.438 147.718 131.44 147.705C131.44 147.665 131.514 146.761 131.2 146.455C131.161 146.414 131.113 146.383 131.06 146.365C131.007 146.347 130.95 146.343 130.895 146.353C130.833 146.353 130.773 146.375 130.725 146.415C130.677 146.456 130.645 146.512 130.634 146.574C130.564 146.916 131.021 147.572 131.331 147.759L131.37 147.763ZM130.934 146.486C130.991 146.486 131.045 146.508 131.087 146.548C131.258 146.851 131.33 147.202 131.291 147.55C131.002 147.311 130.812 146.968 130.76 146.592C130.76 146.552 130.795 146.499 130.899 146.486H130.934Z" fill="#6F3B79"/>
<path opacity="0.3" d="M122.998 44.2161C121.835 43.5729 121.195 45.5467 119.156 47.3697C118.25 48.177 116.521 53.0738 116.782 54.0939L117.78 54.7238C117.78 54.7238 123.285 47.3209 122.998 44.2161Z" fill="black"/>
<path d="M102.16 54.6141L99.6508 52.0371L98.1306 55.142C98.1306 55.142 100.866 57.1779 101.646 56.4726L102.16 54.6141Z" fill="#7F3E3B"/>
<path d="M96.4667 52.2234L95.9658 54.6762L98.1307 55.1597L99.6508 52.0371L96.4667 52.2234Z" fill="#7F3E3B"/>
<path d="M120.215 69.0545L136.693 67.613C136.693 66.1049 135.931 61.2569 135.661 55.025C135.428 50.4095 135.59 45.7821 136.144 41.1951C136.188 40.8491 136.236 40.5076 136.288 40.1616C136.288 40.1616 135.438 40.064 134.223 39.9886C133.217 39.9265 131.958 39.8866 130.738 39.931C128.394 40.0013 126.056 40.2072 123.734 40.5475C122.667 40.7427 121.63 41.0177 120.807 41.2527C119.753 41.5677 119.134 41.8116 119.134 41.8116C119.134 41.8116 115.868 51.6673 120.215 69.0545Z" fill="#6F3B79"/>
<path opacity="0.3" d="M135.66 55.0394C135.429 50.4224 135.591 45.7937 136.144 41.2051C135.033 41.2051 133.16 41.4801 132.999 43.3208C132.829 45.2946 133.639 49.8366 135.66 55.0394Z" fill="black"/>
<path d="M137.407 42.0977C137.777 42.5811 138.091 43.0069 138.405 43.4727C138.718 43.9384 139.019 44.3908 139.319 44.8565C139.912 45.7924 140.474 46.7505 140.996 47.7352C142.093 49.7365 142.969 51.8546 143.61 54.0513L143.671 54.2598L143.701 54.3663L143.745 54.5392C143.799 54.7742 143.837 55.0129 143.858 55.2534C143.887 55.654 143.879 56.0565 143.832 56.4554C143.75 57.1146 143.604 57.7639 143.396 58.3937C143.02 59.5003 142.551 60.5718 141.994 61.5961C140.938 63.5376 139.709 65.3758 138.322 67.0873L136.375 65.7965C137.246 63.9203 138.078 61.982 138.762 60.0881C139.103 59.1841 139.38 58.2561 139.589 57.3114C139.678 56.9183 139.728 56.5171 139.738 56.1138C139.741 55.9828 139.729 55.8518 139.703 55.7235C139.703 55.6836 139.681 55.6526 139.672 55.6481L139.642 55.5638L139.576 55.3953C139.233 54.4879 138.844 53.5996 138.409 52.734C137.973 51.8469 137.481 50.9598 136.976 50.0949C136.471 49.2299 135.93 48.365 135.382 47.509C134.833 46.6529 134.245 45.7924 133.709 45.0207L137.407 42.0977Z" fill="#7F3E3B"/>
<path d="M132.677 46.2442C133.631 48.352 134.704 50.4016 135.891 52.3829C136.148 52.8264 136.388 53.2256 136.584 53.545C136.924 54.1083 137.137 54.4321 137.137 54.4321L143.083 50.3647L142.8 49.6684C142.665 49.3401 142.486 48.9099 142.268 48.4131C140.961 45.4857 138.396 40.2873 136.288 40.1586C133.134 39.9857 131.096 42.5494 132.677 46.2442Z" fill="#6F3B79"/>
<path d="M129.906 31.957L128.164 33.7046L125.794 36.0865C125.899 36.4255 125.983 36.7706 126.047 37.12C126.304 38.5171 126.047 39.8301 124.056 40.4998C124.056 40.4998 121.569 42.7752 125.159 42.6377C126.262 42.6152 127.349 42.364 128.354 41.8996C129.359 41.4352 130.261 40.7673 131.004 39.9365C129.349 38.5393 129.58 34.299 129.906 31.957Z" fill="#7F3E3B"/>
<path d="M130.447 39.0898C129.197 40.7028 127.526 41.9236 125.625 42.6116C126.111 42.7186 126.566 42.9362 126.958 43.248C127.349 43.5599 127.667 43.958 127.885 44.4125C127.885 44.4125 131.309 42.8024 131.435 39.9237C131.134 39.6125 130.803 39.3331 130.447 39.0898Z" fill="white"/>
<path d="M124.326 40.3535C124.326 40.3535 123.381 41.8971 125.041 42.6422C124.365 43.0491 123.841 43.6732 123.551 44.4164C123.551 44.4164 122.17 42.2918 123.22 40.5886C123.843 40.4201 124.326 40.3535 124.326 40.3535Z" fill="white"/>
<path opacity="0.2" d="M125.794 36.0869C125.899 36.4259 125.983 36.771 126.047 37.1204C126.984 36.841 128.168 35.701 128.225 34.6986C128.244 34.3665 128.226 34.0333 128.173 33.7051L125.794 36.0869Z" fill="black"/>
<path d="M125.704 27.2084C127.427 25.4537 127.427 22.6088 125.704 20.8541C123.981 19.0994 121.187 19.0994 119.464 20.8541C117.741 22.6088 117.741 25.4537 119.464 27.2084C121.187 28.9631 123.981 28.9631 125.704 27.2084Z" fill="#263238"/>
<path d="M126.247 27.0689C127.984 27.0689 129.392 25.6351 129.392 23.8665C129.392 22.0978 127.984 20.6641 126.247 20.6641C124.511 20.6641 123.103 22.0978 123.103 23.8665C123.103 25.6351 124.511 27.0689 126.247 27.0689Z" fill="#263238"/>
<path d="M131.588 24.9762C131.588 25.471 131.444 25.9547 131.174 26.3661C130.904 26.7775 130.52 27.0981 130.071 27.2874C129.622 27.4768 129.128 27.5263 128.652 27.4298C128.175 27.3333 127.737 27.095 127.394 26.7452C127.05 26.3953 126.816 25.9495 126.722 25.4643C126.627 24.979 126.675 24.476 126.861 24.0189C127.047 23.5618 127.362 23.1711 127.766 22.8962C128.17 22.6213 128.645 22.4746 129.131 22.4746C129.783 22.4746 130.407 22.7382 130.868 23.2073C131.329 23.6765 131.588 24.3128 131.588 24.9762Z" fill="#263238"/>
<path d="M125.041 28.1818C125.04 28.6764 124.895 29.1597 124.625 29.5705C124.354 29.9813 123.97 30.3012 123.521 30.4899C123.072 30.6785 122.578 30.7274 122.102 30.6304C121.626 30.5334 121.189 30.2948 120.845 29.9448C120.502 29.5947 120.269 29.149 120.174 28.6638C120.08 28.1787 120.129 27.6759 120.315 27.2191C120.501 26.7622 120.816 26.3718 121.22 26.0971C121.624 25.8224 122.098 25.6758 122.584 25.6758C122.907 25.6758 123.227 25.7406 123.525 25.8666C123.824 25.9926 124.095 26.1773 124.323 26.4101C124.551 26.6428 124.732 26.9191 124.855 27.2232C124.978 27.5272 125.041 27.853 125.041 28.1818Z" fill="#263238"/>
<path d="M131.004 29.9175C132.308 29.9175 133.365 28.8411 133.365 27.5134C133.365 26.1857 132.308 25.1094 131.004 25.1094C129.7 25.1094 128.643 26.1857 128.643 27.5134C128.643 28.8411 129.7 29.9175 131.004 29.9175Z" fill="#263238"/>
<path d="M130.399 28.5806C130.007 31.6855 129.932 33.5262 128.277 35.0698C127.746 35.5791 127.088 35.9307 126.375 36.0866C125.661 36.2424 124.92 36.1966 124.23 35.954C123.541 35.7114 122.929 35.2813 122.463 34.7103C121.996 34.1393 121.691 33.4491 121.582 32.7145C121.108 29.8935 121.835 25.2851 124.915 24.1451C125.575 23.8808 126.292 23.7979 126.993 23.9046C127.695 24.0114 128.357 24.3041 128.912 24.7533C129.467 25.2026 129.897 25.7927 130.158 26.4645C130.419 27.1362 130.502 27.866 130.399 28.5806Z" fill="#7F3E3B"/>
<path d="M130.233 30.8348C131.376 30.8348 132.302 29.8915 132.302 28.728C132.302 27.5644 131.376 26.6211 130.233 26.6211C129.091 26.6211 128.164 27.5644 128.164 28.728C128.164 29.8915 129.091 30.8348 130.233 30.8348Z" fill="#263238"/>
<path d="M126.653 27.6764C127.064 27.9382 127.523 28.1149 128.002 28.1962C128.481 28.2775 128.97 28.2618 129.443 28.1502C129.916 28.0386 130.363 27.8331 130.758 27.5456C131.153 27.258 131.488 26.894 131.745 26.4744L125.481 22.4824C125.223 22.9017 125.048 23.3687 124.967 23.8568C124.886 24.3448 124.901 24.8444 125.009 25.3268C125.118 25.8092 125.319 26.265 125.601 26.6682C125.883 27.0713 126.241 27.4139 126.653 27.6764Z" fill="#263238"/>
<path d="M122.306 26.2216C123.207 26.5076 124.184 26.4174 125.02 25.9707C125.856 25.5241 126.484 24.7577 126.766 23.8398L119.971 21.6797C119.831 22.134 119.781 22.6119 119.823 23.0861C119.864 23.5603 119.997 24.0215 120.214 24.4433C120.431 24.8651 120.727 25.2392 121.086 25.5444C121.445 25.8495 121.859 26.0797 122.306 26.2216Z" fill="#263238"/>
<path d="M131.361 31.7076C130.927 32.3497 130.289 32.8197 129.554 33.0383C128.626 33.2822 128.334 32.4129 128.743 31.508C129.109 30.6963 130.05 29.5875 130.9 29.7338C131.749 29.8802 131.91 30.9092 131.361 31.7076Z" fill="#7F3E3B"/>
<path d="M125.699 29.3002C125.699 29.5531 125.538 29.7438 125.372 29.7438C125.207 29.7438 125.089 29.5309 125.106 29.2736C125.124 29.0164 125.272 28.8301 125.433 28.8301C125.594 28.8301 125.716 29.0474 125.699 29.3002Z" fill="#263238"/>
<path d="M122.88 29.2065C122.88 29.4593 122.715 29.65 122.554 29.65C122.393 29.65 122.271 29.4327 122.288 29.1799C122.305 28.9271 122.454 28.7363 122.615 28.7363C122.776 28.7363 122.898 28.9537 122.88 29.2065Z" fill="#263238"/>
<path d="M123.769 29.3633C123.417 30.1298 122.968 30.8457 122.432 31.4923C122.596 31.6223 122.787 31.7136 122.991 31.7596C123.194 31.8056 123.405 31.8052 123.608 31.7585L123.769 29.3633Z" fill="#630F0F"/>
<path d="M124.583 32.476C124.871 32.4519 125.152 32.3697 125.408 32.2342C125.665 32.0986 125.892 31.9125 126.078 31.6865C126.084 31.6799 126.09 31.672 126.093 31.6632C126.097 31.6544 126.099 31.645 126.099 31.6355C126.099 31.626 126.097 31.6166 126.093 31.6078C126.09 31.599 126.084 31.5911 126.078 31.5845C126.064 31.5704 126.045 31.5625 126.025 31.5625C126.006 31.5625 125.987 31.5704 125.973 31.5845C125.769 31.8273 125.512 32.0195 125.224 32.1463C124.936 32.2731 124.623 32.3313 124.309 32.3163C124.293 32.3204 124.279 32.3298 124.268 32.3431C124.258 32.3563 124.253 32.3727 124.253 32.3895C124.253 32.4064 124.258 32.4227 124.268 32.436C124.279 32.4493 124.293 32.4587 124.309 32.4627C124.4 32.473 124.492 32.4775 124.583 32.476Z" fill="#263238"/>
<path d="M126.631 28.4035C126.656 28.3994 126.679 28.3903 126.701 28.3769C126.732 28.3537 126.753 28.3193 126.761 28.2806C126.768 28.2419 126.76 28.2018 126.74 28.1684C126.614 27.9719 126.443 27.8094 126.242 27.6951C126.041 27.5807 125.816 27.5179 125.586 27.512C125.564 27.5082 125.542 27.5093 125.522 27.515C125.501 27.5207 125.481 27.531 125.465 27.5452C125.448 27.5593 125.435 27.577 125.426 27.5969C125.417 27.6169 125.412 27.6386 125.412 27.6606C125.412 27.6826 125.417 27.7043 125.426 27.7242C125.435 27.7441 125.448 27.7618 125.465 27.776C125.481 27.7901 125.501 27.8004 125.522 27.8062C125.542 27.8119 125.564 27.8129 125.586 27.8092C125.767 27.8159 125.943 27.8675 126.1 27.9595C126.258 28.0515 126.39 28.181 126.487 28.337C126.503 28.3604 126.525 28.379 126.55 28.3907C126.575 28.4024 126.603 28.4069 126.631 28.4035Z" fill="#263238"/>
<path d="M121.735 28.1771C121.758 28.1742 121.78 28.166 121.8 28.1529C121.82 28.1398 121.836 28.1223 121.848 28.1017C121.935 27.9334 122.059 27.7875 122.21 27.6753C122.361 27.5631 122.535 27.4874 122.719 27.4541C122.758 27.4496 122.793 27.4299 122.817 27.3992C122.842 27.3685 122.853 27.3293 122.85 27.29C122.848 27.2707 122.843 27.252 122.834 27.2349C122.825 27.2177 122.813 27.2025 122.799 27.1902C122.784 27.1778 122.767 27.1685 122.749 27.1628C122.731 27.1571 122.712 27.1551 122.693 27.1569C122.461 27.1947 122.24 27.2863 122.048 27.4248C121.857 27.5632 121.698 27.7447 121.587 27.9553C121.568 27.9901 121.563 28.031 121.574 28.0692C121.584 28.1074 121.609 28.1398 121.643 28.1593C121.67 28.1773 121.703 28.1837 121.735 28.1771Z" fill="#263238"/>
<path d="M137.124 65.0289L134.01 64.7539L135.891 68.2313C135.891 68.2313 138.688 67.9696 138.435 66.5104L137.124 65.0289Z" fill="#7F3E3B"/>
<path d="M131.875 66.7721L133.561 69.5664L135.887 68.2313L134.01 64.7539L131.875 66.7721Z" fill="#7F3E3B"/>
<path d="M78.7949 36.7704C75.8896 42.1773 77.266 49.5136 81.6349 52.2947C86.2128 55.2177 94.9811 49.6334 97.4944 47.0342C93.5088 47.1229 92.5462 43.5967 92.3807 40.1547C92.189 36.1938 90.3247 32.3438 87.868 33.6611C84.0393 30.9111 80.7419 33.1555 78.7949 36.7704Z" fill="#263238"/>
<path d="M95.6434 46.2574C94.9237 46.2884 94.2185 46.0448 93.6659 45.5743C92.86 44.8469 92.529 43.5517 92.7119 41.8352C93.117 37.9719 91.6404 34.6319 90.0418 33.7493C89.7259 33.5598 89.3585 33.4787 88.9939 33.5178C88.6293 33.557 88.2866 33.7143 88.0164 33.9666L87.8813 33.7936C88.1831 33.5121 88.5658 33.3368 88.9728 33.2936C89.3799 33.2505 89.7898 33.3418 90.142 33.5541C91.8059 34.4678 93.3435 37.9053 92.9297 41.8574C92.7555 43.5029 93.0604 44.7271 93.8009 45.4058C94.4804 46.0179 95.5084 46.1864 96.7803 45.8892L96.8282 46.1066C96.4399 46.2011 96.0426 46.2516 95.6434 46.2574Z" fill="#263238"/>
<path d="M78.817 54.4635C78.2578 55.2458 77.6573 55.9965 77.0181 56.7123C76.3834 57.4302 75.7071 58.1085 74.9926 58.7438C74.2599 59.4047 73.4714 59.9984 72.6361 60.518C72.1958 60.7926 71.7356 61.0328 71.2596 61.2365C70.7548 61.465 70.2257 61.6331 69.6828 61.7378C69.0958 61.863 68.4926 61.89 67.8969 61.8176C67.3065 61.7409 66.7326 61.5655 66.1982 61.2986C65.2767 60.8259 64.4356 60.2059 63.7066 59.4623C62.3757 58.1059 61.2498 56.5558 60.3657 54.8627L61.7073 53.9756C62.8122 55.2754 64.0375 56.4637 65.3662 57.524C65.9598 57.9982 66.6169 58.3835 67.3176 58.6684C67.5961 58.7784 67.8904 58.8414 68.1888 58.8547C68.483 58.8707 68.7778 58.8347 69.06 58.7482C69.7457 58.5497 70.3937 58.2348 70.9765 57.8168C71.6421 57.3641 72.2713 56.8584 72.8582 56.3043C73.4637 55.741 74.0343 55.12 74.6006 54.4902C75.1668 53.8603 75.7157 53.1595 76.1905 52.543L78.817 54.4635Z" fill="#FFC3BD"/>
<path d="M79.2003 50.8265C76.2993 50.7511 75.45 52.6007 75.45 52.6007L78.4032 58.0386C79.3183 57.1543 80.0217 56.0677 80.4591 54.8628C80.9905 53.062 81.1561 50.8708 79.2003 50.8265Z" fill="#6F3B79"/>
<path d="M61.8818 54.2379L60.8233 51.6387L58.9417 54.4641C58.9417 54.4641 60.0393 55.6129 61.346 55.4621L61.8818 54.2379Z" fill="#FFC3BD"/>
<path d="M58.5275 50.1035L57.5039 52.4632L58.9413 54.4636L60.8231 51.6382L58.5275 50.1035Z" fill="#FFC3BD"/>
<path d="M95.4865 147.684L92.3286 147.99L91.366 140.556L94.5239 140.25L95.4865 147.684Z" fill="#FFC3BD"/>
<path d="M120.885 139.931L118.464 141.869L114.299 135.398L116.726 133.455L120.885 139.931Z" fill="#FFC3BD"/>
<path d="M117.466 140.708L119.801 137.909C119.839 137.86 119.894 137.827 119.956 137.816C120.017 137.806 120.079 137.818 120.132 137.851L122.536 139.355C122.595 139.397 122.644 139.451 122.681 139.513C122.718 139.576 122.742 139.645 122.751 139.717C122.76 139.789 122.754 139.863 122.733 139.933C122.713 140.002 122.678 140.067 122.632 140.122C121.8 141.085 121.351 141.506 120.323 142.735C119.692 143.493 118.403 145.259 117.531 146.306C116.66 147.352 115.61 146.554 115.885 146.039C117.109 143.742 117.248 142.362 117.266 141.249C117.267 141.05 117.338 140.858 117.466 140.708Z" fill="#263238"/>
<path d="M92.0454 147.024H95.8088C95.8771 147.025 95.9431 147.048 95.9973 147.091C96.0514 147.133 96.0907 147.192 96.1094 147.259L96.9283 150.293C96.9479 150.365 96.9509 150.44 96.9368 150.514C96.9227 150.587 96.892 150.656 96.8472 150.715C96.8023 150.774 96.7446 150.821 96.6785 150.854C96.6124 150.886 96.5398 150.902 96.4665 150.9C95.1598 150.9 94.5108 150.798 92.8513 150.798C91.832 150.798 89.2011 150.905 87.7942 150.905C86.3873 150.905 86.1303 149.49 86.6965 149.361C89.249 148.785 90.7213 147.991 91.4879 147.237C91.6388 147.093 91.8392 147.017 92.0454 147.024Z" fill="#263238"/>
<path opacity="0.2" d="M91.366 140.556L91.8625 144.388H95.064L94.5283 140.25L91.366 140.556Z" fill="black"/>
<path opacity="0.2" d="M116.726 133.459L114.299 135.397L116.447 138.733L118.873 136.794L116.726 133.459Z" fill="black"/>
<path d="M76.9656 51.2603C76.9656 51.2603 75.563 52.0942 81.7831 70.0669L94.5065 67.5076C93.3827 62.318 92.8164 59.0801 93.4262 47.8583C91.5774 47.8457 89.7301 47.9687 87.8987 48.2264C85.9472 48.4727 84.0155 48.861 82.1185 49.3886C79.6793 50.116 76.9656 51.2603 76.9656 51.2603Z" fill="#6F3B79"/>
<path d="M89.223 48.0586C88.7875 48.1029 88.3519 48.1606 87.9163 48.2271C85.9648 48.4734 84.0331 48.8617 82.1361 49.3892C81.6221 49.5445 81.0907 49.7175 80.5811 49.8905C80.3633 51.1058 80.5419 53.1461 82.7198 55.8828L83.6781 57.0893L84.7017 55.9405C88.0426 52.2013 89.541 49.5933 89.223 48.0586Z" fill="white"/>
<path d="M86.1825 41.7695C86.1433 43.7212 86.3786 47.2341 87.8987 48.2276C87.8987 48.2276 88.7219 49.4518 83.7172 55.045C80.7465 51.3103 82.1186 49.3897 82.1186 49.3897C84.1048 48.4716 83.7825 46.928 83.1683 45.5397L86.1825 41.7695Z" fill="#FFC3BD"/>
<path opacity="0.2" d="M85.856 42.1777C86.023 43.3069 85.9502 44.4595 85.6425 45.5576C85.4291 46.3161 84.5623 46.8173 83.6258 47.0745C83.559 46.5432 83.412 46.0256 83.1902 45.5399L85.856 42.1777Z" fill="black"/>
<path d="M89.0312 39.6979C88.1601 42.8028 87.8552 44.1334 85.9473 45.4153C83.0855 47.3669 79.5486 45.6858 79.4963 42.408C79.4528 39.4539 80.8858 34.8676 84.1701 34.2467C84.8851 34.0962 85.6262 34.1382 86.3203 34.3684C87.0145 34.5987 87.6377 35.0092 88.1285 35.5596C88.6192 36.1099 88.9606 36.7811 89.119 37.5068C89.2773 38.2325 89.247 38.9877 89.0312 39.6979Z" fill="#FFC3BD"/>
<path d="M88.2298 34.902C89.7195 36.2548 79.1914 37.3149 80.141 35.6693C81.0906 34.0237 85.7122 32.6088 88.2298 34.902Z" fill="#263238"/>
<path d="M88.8878 41.4451C85.7299 42.3322 85.4294 33.4612 87.2109 34.0733C88.9923 34.6854 92.1372 40.5314 88.8878 41.4451Z" fill="#263238"/>
<path d="M89.6106 42.1323C89.4133 42.7258 88.9981 43.2185 88.452 43.5073C87.7202 43.8798 87.2149 43.2678 87.2977 42.4915C87.3717 41.7952 87.8378 40.7573 88.6044 40.7173C88.7757 40.7052 88.9471 40.7376 89.1027 40.8116C89.2582 40.8856 89.3926 40.9988 89.4933 41.1403C89.594 41.2819 89.6576 41.4473 89.6781 41.6208C89.6986 41.7944 89.6754 41.9704 89.6106 42.1323Z" fill="#FFC3BD"/>
<path d="M81.7834 70.0676C81.7834 70.0676 82.28 100.704 84.0703 110.346C85.9389 120.384 90.3513 143.276 90.3513 143.276L96.3014 142.983C96.3014 142.983 93.1826 116.237 92.6599 108.479C91.9369 97.7895 91.1005 68.1914 91.1005 68.1914L81.7834 70.0676Z" fill="#6F3B79"/>
<path opacity="0.4" d="M81.7834 70.0676C81.7834 70.0676 82.28 100.704 84.0703 110.346C85.9389 120.384 90.3513 143.276 90.3513 143.276L96.3014 142.983C96.3014 142.983 93.1826 116.237 92.6599 108.479C91.9369 97.7895 91.1005 68.1914 91.1005 68.1914L81.7834 70.0676Z" fill="white"/>
<path opacity="0.5" d="M91.34 76.1885C90.3948 75.5497 88.8877 72.2276 88.2909 79.005C87.8553 83.9329 90.4297 89.943 91.8715 92.0853C91.6754 86.4522 91.4838 80.6595 91.34 76.1885Z" fill="#6F3B79"/>
<path d="M96.7148 143.277L89.9328 143.609L89.1313 141.085L96.4839 140.5L96.7148 143.277Z" fill="#6F3B79"/>
<path d="M85.1416 69.389C85.1416 69.389 93.2696 96.4456 98.1437 107.978C102.064 117.292 115.084 138.308 115.084 138.308L118.651 135.647C118.651 135.647 109.6 112.582 106.89 106.279C98.1786 86.0665 99.5942 72.4229 94.5197 67.5039L85.1416 69.389Z" fill="#6F3B79"/>
<path opacity="0.4" d="M85.1416 69.389C85.1416 69.389 93.2696 96.4456 98.1437 107.978C102.064 117.292 115.084 138.308 115.084 138.308L118.651 135.647C118.651 135.647 109.6 112.582 106.89 106.279C98.1786 86.0665 99.5942 72.4229 94.5197 67.5039L85.1416 69.389Z" fill="white"/>
<path d="M119.026 135.531L115.027 138.645L113.245 137.137L118.455 133.322L119.026 135.531Z" fill="#6F3B79"/>
<path d="M94.5678 66.7141L95.3388 67.752C95.3998 67.8318 95.3127 67.9427 95.1646 67.9738L81.8183 70.6573C81.705 70.6573 81.6005 70.6573 81.5787 70.5686L81.2651 69.4419C81.2433 69.3621 81.3304 69.2778 81.4567 69.2512L94.3413 66.6609C94.3804 66.6502 94.4216 66.6495 94.4611 66.6588C94.5005 66.6681 94.5372 66.6871 94.5678 66.7141Z" fill="white"/>
<path d="M93.0869 68.5196L93.4354 68.4486C93.5008 68.4486 93.5487 68.3909 93.5356 68.3466L93.1 66.8829C93.1 66.8429 93.0216 66.8163 92.9562 66.8296L92.6077 66.9006C92.5424 66.9006 92.4945 66.9627 92.5075 67.0026L92.9432 68.4663C92.9519 68.5107 93.0216 68.5329 93.0869 68.5196Z" fill="#6F3B79"/>
<path opacity="0.4" d="M93.0869 68.5196L93.4354 68.4486C93.5008 68.4486 93.5487 68.3909 93.5356 68.3466L93.1 66.8829C93.1 66.8429 93.0216 66.8163 92.9562 66.8296L92.6077 66.9006C92.5424 66.9006 92.4945 66.9627 92.5075 67.0026L92.9432 68.4663C92.9519 68.5107 93.0216 68.5329 93.0869 68.5196Z" fill="black"/>
<path d="M82.8114 70.5863L83.1556 70.5154C83.2252 70.5154 83.2688 70.4577 83.2557 70.4134L82.8201 68.9496C82.8201 68.9053 82.7417 68.8831 82.672 68.8964L82.3279 68.9674C82.2582 68.9674 82.2103 69.025 82.2233 69.0694L82.659 70.5331C82.6764 70.573 82.7417 70.5997 82.8114 70.5863Z" fill="#6F3B79"/>
<path opacity="0.4" d="M82.8114 70.5863L83.1556 70.5154C83.2252 70.5154 83.2688 70.4577 83.2557 70.4134L82.8201 68.9496C82.8201 68.9053 82.7417 68.8831 82.672 68.8964L82.3279 68.9674C82.2582 68.9674 82.2103 69.025 82.2233 69.0694L82.659 70.5331C82.6764 70.573 82.7417 70.5997 82.8114 70.5863Z" fill="black"/>
<path d="M87.951 69.5528L88.295 69.4818C88.3647 69.4818 88.4083 69.4241 88.3952 69.3798L87.9597 67.9161C87.9597 67.8761 87.8769 67.8495 87.8116 67.8628L87.4632 67.9338C87.3978 67.9338 87.3499 67.9959 87.363 68.0358L87.7985 69.4995C87.816 69.5439 87.8813 69.5661 87.951 69.5528Z" fill="#6F3B79"/>
<path opacity="0.4" d="M87.951 69.5528L88.295 69.4818C88.3647 69.4818 88.4083 69.4241 88.3952 69.3798L87.9597 67.9161C87.9597 67.8761 87.8769 67.8495 87.8116 67.8628L87.4632 67.9338C87.3978 67.9338 87.3499 67.9959 87.363 68.0358L87.7985 69.4995C87.816 69.5439 87.8813 69.5661 87.951 69.5528Z" fill="black"/>
<path d="M83.5996 39.5821C83.5474 39.8394 83.3688 40.0257 83.2033 39.9858C83.0377 39.9459 82.9506 39.7196 83.0073 39.4624C83.0639 39.2051 83.2425 39.0188 83.4036 39.0632C83.5648 39.1075 83.6562 39.3382 83.5996 39.5821Z" fill="#263238"/>
<path d="M80.7683 39.0111C80.7161 39.2684 80.5375 39.4547 80.372 39.4147C80.2064 39.3748 80.1193 39.1442 80.176 38.8914C80.2326 38.6385 80.4112 38.4478 80.5723 38.4877C80.7335 38.5276 80.8249 38.7538 80.7683 39.0111Z" fill="#263238"/>
<path d="M80.6422 38.5184L80.0803 38.2168C80.0803 38.2168 80.285 38.7579 80.6422 38.5184Z" fill="#263238"/>
<path d="M81.9969 39.6445C81.6449 40.1821 81.2246 40.6698 80.7468 41.0949C80.8571 41.2159 80.9926 41.3102 81.1433 41.3708C81.2941 41.4315 81.4563 41.4569 81.618 41.4453L81.9969 39.6445Z" fill="#ED847E"/>
<path d="M82.236 42.6161C82.2247 42.6077 82.2162 42.596 82.2115 42.5825C82.2068 42.5691 82.2063 42.5545 82.2098 42.5407C82.2114 42.5308 82.2149 42.5212 82.2202 42.5127C82.2255 42.5041 82.2324 42.4967 82.2405 42.4909C82.2486 42.4851 82.2578 42.481 82.2675 42.4789C82.2772 42.4768 82.2872 42.4767 82.297 42.4786C82.6088 42.5495 82.9325 42.5464 83.2429 42.4695C83.5533 42.3926 83.8422 42.2439 84.0872 42.0351C84.0939 42.0274 84.1021 42.0212 84.1112 42.0169C84.1204 42.0125 84.1303 42.0101 84.1404 42.0098C84.1505 42.0095 84.1605 42.0113 84.1699 42.0151C84.1793 42.0189 84.1878 42.0246 84.1949 42.0319C84.2021 42.0391 84.2077 42.0478 84.2114 42.0573C84.2151 42.0669 84.2169 42.0771 84.2166 42.0874C84.2163 42.0977 84.2139 42.1078 84.2097 42.1171C84.2054 42.1264 84.1993 42.1347 84.1918 42.1415C83.9333 42.3754 83.6239 42.5432 83.2891 42.6311C82.9543 42.7191 82.6038 42.7246 82.2665 42.6472L82.236 42.6161Z" fill="#263238"/>
<path d="M85.4684 38.5173C85.4467 38.5027 85.4288 38.4829 85.4162 38.4597C85.342 38.2849 85.2278 38.1309 85.083 38.0105C84.9382 37.8901 84.7671 37.8068 84.5842 37.7677C84.5647 37.765 84.5458 37.7584 84.5289 37.7482C84.5119 37.738 84.4971 37.7244 84.4853 37.7083C84.4735 37.6922 84.4651 37.6738 84.4603 37.6543C84.4556 37.6348 84.4548 37.6146 84.4579 37.5947C84.4643 37.5551 84.4856 37.5195 84.5173 37.4955C84.549 37.4715 84.5886 37.461 84.6278 37.4661C84.8612 37.5081 85.0807 37.6088 85.2663 37.7591C85.4519 37.9094 85.5978 38.1044 85.6906 38.3266C85.707 38.3637 85.7084 38.4059 85.6945 38.444C85.6807 38.4822 85.6527 38.5133 85.6165 38.5306C85.5929 38.5419 85.5667 38.5466 85.5407 38.5443C85.5147 38.5419 85.4898 38.5326 85.4684 38.5173Z" fill="#263238"/>
<path d="M80.2848 37.4407H80.2631C80.2351 37.4117 80.2195 37.3727 80.2195 37.3321C80.2195 37.2914 80.2351 37.2524 80.2631 37.2234C80.4318 37.0508 80.6379 36.9208 80.8648 36.8438C81.0917 36.7668 81.3331 36.7449 81.5698 36.7799C81.6081 36.7894 81.6413 36.8136 81.6624 36.8475C81.6836 36.8815 81.691 36.9224 81.6831 36.9617C81.6737 37.0019 81.6494 37.0368 81.6153 37.0591C81.5812 37.0815 81.5399 37.0895 81.5001 37.0815C81.3114 37.0566 81.1196 37.0774 80.9402 37.1421C80.7609 37.2069 80.599 37.3137 80.4678 37.454C80.44 37.4723 80.4071 37.4809 80.3741 37.4785C80.3411 37.4761 80.3098 37.4629 80.2848 37.4407Z" fill="#263238"/>
<path d="M93.9754 49.248C94.4763 49.5896 94.8814 49.9001 95.3126 50.246C95.7438 50.592 96.1489 50.938 96.554 51.3017C97.3624 52.0324 98.1302 52.8083 98.8539 53.6259C99.5914 54.4519 100.266 55.3342 100.871 56.265C101.497 57.2178 102.024 58.2346 102.443 59.2989L102.596 59.6848L102.556 60.0086C102.446 60.9621 102.197 61.8935 101.816 62.7719C101.447 63.6284 100.964 64.4297 100.383 65.1538C99.8177 65.8492 99.1826 66.4825 98.488 67.0433C98.145 67.3156 97.7889 67.5702 97.4208 67.8062C97.0445 68.0504 96.6515 68.2668 96.2448 68.4538L95.4651 67.0211C95.7221 66.8127 96.0313 66.551 96.297 66.2937C96.5627 66.0364 96.8328 65.757 97.0811 65.482C97.5751 64.9377 98.013 64.3432 98.3878 63.7078C98.7527 63.1007 99.0452 62.4515 99.259 61.7739C99.4659 61.122 99.5861 60.4447 99.6162 59.7602L99.7251 60.4699C98.8839 58.7632 97.786 57.2008 96.4713 55.8392C95.8135 55.1295 95.1035 54.4598 94.3761 53.8077C94.0102 53.484 93.6356 53.169 93.261 52.8585C92.8864 52.5481 92.4813 52.242 92.1372 51.9936L93.9754 49.248Z" fill="#FFC3BD"/>
<path d="M96.5191 66.8379L94.2192 67.0952L95.3256 69.6988C95.3256 69.6988 96.959 69.0956 97.3815 67.8093L96.5191 66.8379Z" fill="#FFC3BD"/>
<path d="M92.1328 67.7041L92.8341 69.7976L95.3256 69.6779L94.2192 67.0742L92.1328 67.7041Z" fill="#FFC3BD"/>
<path d="M93.4264 47.8601C94.768 47.9932 95.4824 49.4347 95.4824 49.4347L92.7948 54.7573C92.7948 54.7573 90.8086 53.298 91.0525 51.5282C91.3095 49.6964 91.8932 47.7049 93.4264 47.8601Z" fill="#6F3B79"/>
<path d="M116.356 142.206C116.322 142.183 116.293 142.155 116.269 142.122C116.236 142.09 116.213 142.05 116.201 142.005C116.19 141.96 116.19 141.914 116.203 141.869C116.321 141.47 117.423 141.12 117.549 141.08C117.563 141.075 117.578 141.075 117.592 141.079C117.605 141.083 117.618 141.091 117.627 141.102C117.635 141.115 117.639 141.129 117.639 141.144C117.639 141.159 117.635 141.173 117.627 141.186C117.431 141.572 117.044 142.229 116.643 142.286C116.541 142.297 116.438 142.269 116.356 142.206ZM117.414 141.284C116.978 141.439 116.412 141.701 116.351 141.909C116.345 141.929 116.344 141.95 116.35 141.969C116.355 141.989 116.366 142.007 116.382 142.02C116.411 142.06 116.449 142.091 116.493 142.11C116.538 142.13 116.586 142.137 116.634 142.131C116.874 142.1 117.135 141.798 117.414 141.284Z" fill="#6F3B79"/>
<path d="M116.212 141.134C116.187 141.117 116.165 141.096 116.146 141.072C116.109 141.025 116.088 140.966 116.088 140.905C116.088 140.845 116.109 140.786 116.146 140.739C116.179 140.69 116.221 140.649 116.27 140.617C116.318 140.585 116.373 140.563 116.43 140.553C116.891 140.482 117.584 141.067 117.614 141.094C117.624 141.102 117.632 141.113 117.637 141.126C117.641 141.138 117.643 141.152 117.64 141.165C117.637 141.178 117.631 141.191 117.622 141.201C117.613 141.211 117.601 141.218 117.588 141.223C117.134 141.363 116.645 141.331 116.212 141.134ZM117.388 141.107C117.126 140.877 116.8 140.736 116.456 140.704C116.42 140.709 116.385 140.722 116.354 140.742C116.324 140.762 116.297 140.788 116.277 140.819C116.221 140.903 116.242 140.948 116.277 140.974C116.412 141.152 117.039 141.2 117.418 141.121L117.388 141.107Z" fill="#6F3B79"/>
<path d="M90.373 147.659C90.1155 147.678 89.8586 147.616 89.6368 147.482C89.5789 147.441 89.5304 147.387 89.4951 147.325C89.4597 147.263 89.4382 147.194 89.4321 147.122C89.4296 147.082 89.4371 147.042 89.4538 147.006C89.4706 146.969 89.4961 146.938 89.5279 146.914C89.8721 146.679 91.1527 147.273 91.4053 147.393C91.4193 147.399 91.4312 147.409 91.4396 147.422C91.4479 147.435 91.4524 147.451 91.4524 147.466C91.4524 147.482 91.4479 147.497 91.4396 147.51C91.4312 147.523 91.4193 147.533 91.4053 147.539C91.0662 147.616 90.7202 147.656 90.373 147.659ZM89.7719 146.998C89.722 146.994 89.6721 147.005 89.6281 147.029C89.6281 147.029 89.5933 147.056 89.5976 147.105C89.5983 147.154 89.6105 147.203 89.6332 147.247C89.6559 147.291 89.6885 147.329 89.7283 147.357C89.9505 147.526 90.4688 147.548 91.144 147.424C90.7109 147.211 90.248 147.067 89.7719 146.998Z" fill="#6F3B79"/>
<path d="M91.3877 147.526H91.3573C90.9217 147.348 90.0766 146.639 90.1245 146.288C90.1245 146.208 90.1899 146.106 90.3815 146.084C91.1264 145.995 91.4487 147.379 91.4618 147.437C91.4643 147.451 91.4632 147.465 91.4587 147.478C91.4541 147.491 91.4461 147.503 91.4357 147.512C91.422 147.523 91.4048 147.528 91.3877 147.526ZM90.4512 146.235H90.3989C90.3205 146.235 90.277 146.27 90.2726 146.306C90.2465 146.519 90.8389 147.069 91.2701 147.313C91.1743 146.976 90.8999 146.235 90.4512 146.235Z" fill="#6F3B79"/>
<path d="M83.4736 39.0902L82.9116 38.793C82.9116 38.793 83.1164 39.3385 83.4736 39.0902Z" fill="#263238"/>
<path d="M48.618 147.6L45.3687 147.747L45.3164 139.967L48.5658 139.82L48.618 147.6Z" fill="#FF8B7B"/>
<path d="M45.3166 147.078L48.9973 147.127C49.059 147.126 49.1186 147.149 49.1634 147.192C49.2082 147.235 49.2346 147.295 49.2369 147.358L49.3763 150.32C49.3763 150.398 49.3613 150.474 49.3321 150.546C49.3029 150.617 49.2602 150.682 49.2063 150.736C49.1525 150.79 49.0886 150.834 49.0183 150.863C48.9481 150.892 48.8728 150.907 48.797 150.906C47.5163 150.866 46.9065 150.782 45.2905 150.764C44.293 150.764 41.9017 150.764 40.5296 150.764C39.1575 150.764 39.2228 149.362 39.7934 149.247C42.4069 148.719 43.8182 148.018 44.7504 147.291C44.9106 147.158 45.1099 147.083 45.3166 147.078Z" fill="#263238"/>
<path opacity="0.2" d="M48.5658 139.824L45.3164 139.966L45.3469 143.976L48.5963 144.025L48.5658 139.824Z" fill="black"/>
<path d="M42.3328 69.6778C42.3328 69.6778 40.8083 90.5513 40.5905 100.11C40.3596 110.578 44.1448 142.056 44.1448 142.056L49.8074 142.385C49.8074 142.385 48.9841 112.117 50.1428 101.831C51.4016 90.6622 53.9584 68.6133 53.9584 68.6133L42.3328 69.6778Z" fill="#263238"/>
<path opacity="0.3" d="M50.0817 77.106C48.9622 81.6524 49.9379 88.7359 51.1053 93.5839C51.8501 87.0814 52.6995 79.7673 53.2831 74.7463C52.0243 74.5068 50.5956 75.008 50.0817 77.106Z" fill="black"/>
<path d="M50.2559 143.045L43.8354 143.129L43.2517 140.632L50.8788 140.477L50.2559 143.045Z" fill="#263238"/>
<path d="M44.1316 147.64C44.425 147.637 44.7171 147.602 45.0028 147.534C45.0175 147.531 45.031 147.524 45.0412 147.512C45.0514 147.501 45.0578 147.487 45.0594 147.472C45.0633 147.458 45.0624 147.442 45.0568 147.429C45.0513 147.415 45.0415 147.404 45.0289 147.396C44.9287 147.321 44.0096 146.665 43.6046 146.815C43.559 146.834 43.5189 146.865 43.4877 146.903C43.4565 146.942 43.4353 146.988 43.426 147.037C43.4047 147.11 43.402 147.186 43.418 147.26C43.434 147.334 43.4682 147.402 43.5174 147.459C43.6921 147.596 43.9116 147.661 44.1316 147.64ZM44.7981 147.419C44.21 147.53 43.7788 147.507 43.6307 147.348C43.5982 147.311 43.5761 147.266 43.5669 147.218C43.5577 147.169 43.5617 147.119 43.5784 147.073C43.5817 147.048 43.5915 147.024 43.6068 147.005C43.6222 146.985 43.6425 146.97 43.6655 146.962C43.8964 146.882 44.4409 147.166 44.8155 147.419H44.7981Z" fill="#6F3B79"/>
<path d="M45.0027 147.534H45.0376C45.0487 147.527 45.0584 147.518 45.0659 147.508C45.0734 147.497 45.0786 147.485 45.0811 147.472C45.0811 147.428 45.1683 146.474 44.8416 146.141C44.7995 146.099 44.7486 146.068 44.6928 146.048C44.637 146.029 44.5777 146.023 44.5192 146.03C44.4544 146.032 44.392 146.056 44.3416 146.098C44.2912 146.139 44.2557 146.197 44.2405 146.261C44.1621 146.625 44.6412 147.326 44.9635 147.53C44.9758 147.535 44.9895 147.537 45.0027 147.534ZM44.5672 146.181C44.6288 146.18 44.6882 146.204 44.7327 146.248C44.9069 146.573 44.9769 146.945 44.933 147.312C44.6499 147.064 44.3319 146.532 44.3842 146.292C44.3842 146.248 44.4191 146.194 44.5323 146.181H44.5672Z" fill="#6F3B79"/>
<path d="M45.8739 44.0092C45.5864 44.7987 45.312 45.4862 45.0027 46.2047C44.6934 46.9233 44.3842 47.6152 44.0575 48.316C43.3954 49.7088 42.6854 51.0838 41.8796 52.4277C41.0854 53.8048 40.2021 55.1266 39.2356 56.3842C38.2275 57.7438 37.057 58.9701 35.7509 60.0346L35.6115 60.1455C35.4664 60.2602 35.3048 60.3515 35.1324 60.4161C34.5173 60.652 33.8768 60.8128 33.2245 60.8951C32.5932 60.9616 31.9567 60.9616 31.3254 60.8951C30.1722 60.7505 29.0522 60.4038 28.0149 59.8705C27.079 59.3847 26.2019 58.7892 25.4014 58.0963C25.0138 57.7592 24.6479 57.4044 24.2951 57.0362C23.9355 56.6575 23.5981 56.2576 23.2845 55.8386C23.0811 55.5715 22.9754 55.2406 22.9855 54.9028C22.9957 54.5649 23.121 54.2412 23.34 53.9872C23.559 53.7333 23.8581 53.5649 24.1857 53.511C24.5134 53.4571 24.8493 53.521 25.1357 53.6919L25.2925 53.785C25.5931 53.9669 25.9851 54.2064 26.338 54.4016C26.6908 54.5967 27.0697 54.7919 27.4356 54.9693C28.1348 55.3105 28.864 55.5837 29.6135 55.7854C30.2543 55.9642 30.9187 56.039 31.5824 56.0072C32.1134 55.974 32.6309 55.8226 33.0982 55.5637L32.4797 55.9495C33.3763 55.0756 34.178 54.1061 34.871 53.0576C35.2456 52.5076 35.6072 51.9369 35.9556 51.3455C36.3084 50.76 36.6526 50.1612 36.9793 49.5447C37.637 48.3205 38.2599 47.0564 38.8566 45.7745C39.1572 45.1358 39.449 44.4882 39.7278 43.8406C40.0066 43.193 40.294 42.51 40.5336 41.9245L40.5554 41.8757C40.8781 41.2257 41.4275 40.7218 42.0959 40.4627C42.7644 40.2036 43.5037 40.2079 44.1692 40.4749C44.8347 40.7418 45.3783 41.2522 45.6936 41.9059C46.0089 42.5596 46.0732 43.3097 45.8739 44.0092Z" fill="#6F3B79"/>
<path opacity="0.3" d="M38.8565 52.7769C38.7295 54.137 38.7295 55.5063 38.8565 56.8664L39.2312 56.3829C40.1982 55.1266 41.0802 53.8048 41.8708 52.4264C42.2019 51.8676 42.5198 51.2998 42.8204 50.7321C42.9772 50.1333 43.1166 49.5389 43.256 48.9357L43.3736 48.3458C41.8447 47.7958 39.3096 48.8026 38.8565 52.7769Z" fill="black"/>
<path d="M23.8335 53.2391L21.2505 52.2012L20.8672 56.0113C21.7799 56.2517 22.7137 56.4002 23.6549 56.4548C23.8758 56.4703 24.097 56.4322 24.3005 56.3436C24.5041 56.2551 24.684 56.1186 24.8257 55.9454C24.9673 55.7721 25.0665 55.5672 25.1151 55.3473C25.1638 55.1274 25.1604 54.8989 25.1054 54.6806C25.0212 54.3547 24.8619 54.0539 24.6407 53.8032C24.4195 53.5525 24.1428 53.3591 23.8335 53.2391Z" fill="#FF8B7B"/>
<path d="M18.6848 52.9336L19.4427 56.0606L20.8671 56.0074L21.2504 52.1973L18.6848 52.9336Z" fill="#FF8B7B"/>
<path d="M71.094 144.141L67.8968 144.855L65.8496 137.407L69.0468 136.693L71.094 144.141Z" fill="#FF8B7B"/>
<path d="M67.6533 144.106L71.0987 142.802C71.127 142.79 71.1574 142.783 71.1881 142.783C71.2189 142.783 71.2494 142.789 71.2778 142.801C71.3062 142.813 71.3319 142.831 71.3535 142.853C71.3752 142.875 71.3922 142.902 71.4036 142.931L72.5884 145.645C72.6422 145.791 72.6372 145.953 72.5743 146.095C72.5115 146.237 72.396 146.348 72.253 146.404C71.0465 146.847 70.4454 146.98 68.9295 147.557C67.9974 147.907 65.4449 148.981 64.173 149.469C62.9011 149.957 62.4307 148.644 62.9534 148.32C65.2097 146.865 66.5818 145.521 67.1959 144.501C67.3008 144.321 67.4618 144.182 67.6533 144.106Z" fill="#263238"/>
<path opacity="0.2" d="M69.0511 136.693L65.8496 137.412L66.9081 141.249L70.1052 140.53L69.0511 136.693Z" fill="black"/>
<path d="M48.7007 69.0954C48.7007 69.0954 52.0416 91.0379 53.6707 100.45C55.4566 110.763 65.3312 140.618 65.3312 140.618L71.1898 139.287C71.1898 139.287 64.2205 110.536 63.3842 100.215C62.4782 89.0153 59.7732 68.0664 59.7732 68.0664L48.7007 69.0954Z" fill="#263238"/>
<path d="M71.7694 139.16L64.6302 140.761L63.7896 138.579L71.6605 137.182L71.7694 139.16Z" fill="#263238"/>
<path d="M66.7818 145.064C67.0549 144.953 67.315 144.812 67.5571 144.643C67.5692 144.634 67.5787 144.622 67.5845 144.608C67.5903 144.595 67.5922 144.579 67.5899 144.565C67.5876 144.55 67.5813 144.536 67.5716 144.525C67.562 144.513 67.5494 144.505 67.5353 144.501C67.4134 144.47 66.3201 144.195 66.0022 144.501C65.9661 144.534 65.9389 144.575 65.9229 144.622C65.9069 144.668 65.9027 144.718 65.9107 144.767C65.9159 144.843 65.9402 144.916 65.9814 144.98C66.0226 145.044 66.0793 145.096 66.1459 145.13C66.3587 145.189 66.585 145.165 66.7818 145.064ZM67.3219 144.62C66.8123 144.94 66.4029 145.064 66.2069 144.984C66.1643 144.961 66.1286 144.926 66.1033 144.884C66.0781 144.842 66.0642 144.794 66.0631 144.745C66.0575 144.721 66.0581 144.696 66.065 144.673C66.0719 144.649 66.0848 144.628 66.1023 144.611C66.2591 144.461 66.8646 144.514 67.3045 144.611L67.3219 144.62Z" fill="#6F3B79"/>
<path d="M67.5267 144.652C67.5372 144.647 67.5462 144.639 67.5529 144.629C67.559 144.619 67.5622 144.606 67.5622 144.594C67.5622 144.581 67.559 144.569 67.5529 144.558C67.5529 144.518 67.2828 143.591 66.8646 143.405C66.8117 143.379 66.7536 143.365 66.6947 143.365C66.6359 143.365 66.5778 143.379 66.5248 143.405C66.4642 143.43 66.4136 143.475 66.3813 143.533C66.3489 143.591 66.3365 143.659 66.3462 143.725C66.3985 144.093 67.0955 144.572 67.4657 144.643L67.5267 144.652ZM66.6555 143.543C66.6838 143.531 66.7142 143.524 66.7448 143.524C66.7755 143.524 66.8058 143.531 66.8341 143.543C67.0824 143.654 67.2959 144.159 67.396 144.461C67.0476 144.332 66.5597 143.951 66.5248 143.711C66.5248 143.662 66.5248 143.605 66.625 143.552L66.6555 143.543Z" fill="#6F3B79"/>
<path d="M41.3267 42.5751C41.4458 42.0033 41.7142 41.4749 42.1036 41.0455C42.4931 40.6161 42.9892 40.3018 43.5395 40.1356C44.3255 39.864 45.1288 39.6476 45.9439 39.488C48.3973 39.1168 50.8697 38.8902 53.3488 38.8094C54.6555 38.7517 55.9623 38.8094 57.0469 38.8537H57.0861C57.3646 38.8693 57.6373 38.9418 57.8877 39.0669C58.1381 39.192 58.3613 39.3672 58.5438 39.5821C58.7263 39.7969 58.8645 40.0469 58.95 40.3173C59.0356 40.5877 59.0668 40.8728 59.0418 41.1558C58.6078 45.676 58.4623 50.2201 58.6063 54.7595C58.9286 61.3551 59.7301 66.4825 59.7475 68.066L42.3242 69.6583C39.8588 53.7393 40.5862 46.3231 41.3267 42.5751Z" fill="white"/>
<path d="M40.4382 42.7356C40.5722 42.0993 40.8657 41.5092 41.2901 41.0226C41.7145 40.536 42.2554 40.1696 42.8601 39.959C44.0084 39.6653 45.1717 39.4358 46.3447 39.2715C45.4039 44.2215 44.0231 58.9917 45.6696 70.0539C45.6824 70.1379 45.6782 70.2237 45.6571 70.306C45.6361 70.3882 45.5987 70.4652 45.5472 70.5322C45.4958 70.5991 45.4314 70.6546 45.358 70.6952C45.2847 70.7357 45.2039 70.7605 45.1207 70.768L41.9148 71.0608C41.6993 71.0813 41.4843 71.0168 41.3141 70.8806C41.1439 70.7444 41.0315 70.547 41.0001 70.3289C38.5652 54.1526 39.6847 45.8582 40.4382 42.7356Z" fill="#6F3B79"/>
<path d="M46.3096 39.4275C48.4178 38.7134 48.6748 37.3206 48.4004 35.8436C48.3346 35.4727 48.2443 35.1067 48.1303 34.748L50.6306 32.2154L52.4644 30.3613C52.129 32.8408 51.9025 37.3295 53.6579 38.7888C52.3284 40.391 50.6127 41.6138 48.6792 42.3372C45.874 40.8823 46.3096 39.4275 46.3096 39.4275Z" fill="#FF8B7B"/>
<path opacity="0.2" d="M48.1128 34.7475C48.2268 35.1061 48.317 35.4722 48.3829 35.8431C49.3716 35.5415 50.6218 34.3261 50.6697 33.2661C50.6872 32.9146 50.6682 32.5622 50.6131 32.2148L48.1128 34.7475Z" fill="black"/>
<path d="M47.6861 26.055C47.6861 27.6252 46.9979 28.9026 46.1311 28.9026C45.2643 28.9026 44.563 27.6385 44.5586 26.0683C44.5543 24.4981 45.2468 23.2252 46.1136 23.2207C46.9805 23.2163 47.6817 24.4848 47.6861 26.055Z" fill="#263238"/>
<path d="M54.0457 27.1359C53.4359 30.396 53.2442 32.3299 51.4017 33.8602C50.8083 34.3627 50.0914 34.6907 49.3283 34.8088C48.5653 34.9269 47.785 34.8305 47.0718 34.5302C46.3586 34.2298 45.7395 33.7368 45.2812 33.1044C44.823 32.472 44.543 31.7242 44.4716 30.9416C44.1492 27.9299 45.1946 23.1041 48.5225 22.0972C49.2366 21.8605 49.9992 21.819 50.734 21.9768C51.4688 22.1346 52.15 22.4863 52.7093 22.9966C53.2687 23.5069 53.6865 24.1578 53.9211 24.8843C54.1556 25.6108 54.1986 26.3872 54.0457 27.1359Z" fill="#FF8B7B"/>
<path d="M47.3855 24.1205C48.5267 24.9677 51.48 25.2781 52.7737 24.9277C52.3381 25.2294 52.2858 26.1564 52.6691 27.5358C52.2283 28.1394 51.887 28.8121 51.6586 29.5274L54.1283 29.0838C54.1283 29.0838 60.5358 24.7326 55.814 22.8741C56.1494 19.2148 48.7794 18.9664 46.1223 21.3394C43.6961 23.4818 45.3905 24.808 47.3855 24.1205Z" fill="#263238"/>
<path d="M55.5742 23.2199C55.5742 23.2199 56.3801 22.2707 56.0098 20.5586C56.9899 21.7251 56.7242 22.6876 55.5742 23.2199Z" fill="#263238"/>
<path d="M54.5857 29.7406C54.2248 30.3599 53.6623 30.8307 52.9958 31.0713C52.1507 31.3552 51.8371 30.5656 52.1594 29.7096C52.4513 28.9378 53.2441 27.86 54.0499 27.9354C54.8557 28.0108 55.0648 28.9689 54.5857 29.7406Z" fill="#FF8B7B"/>
<path d="M48.9537 27.6472C48.9232 27.9133 48.7576 28.1174 48.5834 28.0907C48.4092 28.0641 48.3002 27.8468 48.3351 27.5807C48.3699 27.3145 48.5311 27.1105 48.7054 27.1371C48.8796 27.1637 48.9885 27.3633 48.9537 27.6472Z" fill="#263238"/>
<path d="M45.9828 27.3626C45.9479 27.6287 45.7824 27.8327 45.6126 27.8061C45.4427 27.7795 45.3295 27.5577 45.3599 27.2916C45.3904 27.0255 45.5603 26.8214 45.7345 26.848C45.9087 26.8747 46.0176 27.1009 45.9828 27.3626Z" fill="#263238"/>
<path d="M46.989 27.5352C46.5717 28.3232 46.0531 29.0511 45.447 29.6997C45.6136 29.8473 45.8098 29.956 46.0221 30.018C46.2343 30.0801 46.4573 30.0941 46.6753 30.059L46.989 27.5352Z" fill="#FF5652"/>
<path d="M47.6557 30.8793C47.9624 30.8737 48.265 30.8057 48.5455 30.6792C48.826 30.5528 49.0788 30.3705 49.2891 30.143C49.3032 30.1281 49.3111 30.1082 49.3111 30.0876C49.3111 30.0669 49.3032 30.047 49.2891 30.0321C49.2822 30.0245 49.2738 30.0183 49.2644 30.0142C49.255 30.01 49.2449 30.0078 49.2347 30.0078C49.2244 30.0078 49.2143 30.01 49.2049 30.0142C49.1956 30.0183 49.1871 30.0245 49.1802 30.0321C48.9498 30.2766 48.6675 30.4641 48.3549 30.5802C48.0424 30.6963 47.7078 30.7379 47.3769 30.7019C47.3598 30.7061 47.3446 30.716 47.3337 30.7301C47.3228 30.7442 47.3169 30.7616 47.3169 30.7795C47.3169 30.7974 47.3228 30.8148 47.3337 30.8289C47.3446 30.843 47.3598 30.8529 47.3769 30.8571L47.6557 30.8793Z" fill="#263238"/>
<path d="M50.4429 26.6983C50.4689 26.6964 50.4942 26.6889 50.517 26.6761C50.5519 26.6541 50.577 26.6189 50.5867 26.5783C50.5965 26.5376 50.5902 26.4947 50.5692 26.4587C50.4499 26.2416 50.2797 26.0579 50.0737 25.924C49.8678 25.7901 49.6325 25.7102 49.3888 25.6914C49.3523 25.6977 49.3191 25.7169 49.2951 25.7458C49.2712 25.7746 49.2581 25.8111 49.2581 25.8489C49.2581 25.8866 49.2712 25.9231 49.2951 25.952C49.3191 25.9808 49.3523 26.0001 49.3888 26.0063C49.5791 26.0256 49.7619 26.0913 49.9219 26.1979C50.0819 26.3044 50.2143 26.4487 50.3079 26.6184C50.3216 26.6426 50.3413 26.6627 50.365 26.6767C50.3886 26.6907 50.4155 26.6981 50.4429 26.6983Z" fill="#263238"/>
<path d="M44.8197 26.2487C44.8451 26.2472 44.8698 26.2395 44.8918 26.2264C44.9137 26.2133 44.9323 26.1951 44.946 26.1733C45.0491 26.0008 45.1893 25.8545 45.3561 25.7454C45.5228 25.6362 45.7118 25.5672 45.9087 25.5434C45.9289 25.5435 45.9489 25.5393 45.9675 25.5312C45.986 25.523 46.0028 25.5111 46.0166 25.4962C46.0305 25.4812 46.0412 25.4635 46.0481 25.4442C46.0551 25.4249 46.058 25.4043 46.0568 25.3838C46.0557 25.3422 46.0387 25.3027 46.0094 25.2737C45.9801 25.2447 45.9408 25.2285 45.9 25.2285C45.6521 25.2529 45.4132 25.3357 45.2023 25.4705C44.9913 25.6052 44.8141 25.7881 44.6847 26.0047C44.6628 26.0396 44.6552 26.0818 44.6633 26.1224C44.6714 26.1629 44.6947 26.1987 44.7282 26.2221C44.7559 26.239 44.7874 26.2482 44.8197 26.2487Z" fill="#263238"/>
<path d="M59.1333 55.3317C58.9761 50.5441 59.1216 45.7513 59.5689 40.9828C59.5938 40.684 59.5597 40.3832 59.4685 40.0981C59.3774 39.813 59.2311 39.5493 59.0382 39.3227C58.8453 39.0962 58.6098 38.9112 58.3456 38.7789C58.0814 38.6465 57.7938 38.5694 57.4998 38.5521H57.4606C56.3368 38.49 54.9343 38.4457 53.5404 38.5033C51.8373 46.8998 52.0333 57.7313 52.8914 69.4144C52.8974 69.4976 52.9196 69.5787 52.9567 69.6531C52.9938 69.7275 53.045 69.7937 53.1075 69.8477C53.1699 69.9018 53.2422 69.9427 53.3203 69.9681C53.3983 69.9934 53.4805 70.0027 53.5622 69.9954L59.4948 69.4499C59.7176 69.4307 59.9239 69.3223 60.0684 69.1486C60.2129 68.9748 60.2839 68.7498 60.2658 68.5229C60.1133 66.243 59.4338 61.3728 59.1333 55.3317Z" fill="#6F3B79"/>
<path opacity="0.3" d="M57.7045 40.8809C56.7375 41.4264 55.9056 43.5422 57.1121 46.2345C57.6088 47.3678 58.276 48.4154 59.0896 49.3394C59.1201 48.1196 59.1724 46.9309 59.2377 45.8176C58.6192 43.9414 58.1052 42.2337 57.7045 40.8809Z" fill="black"/>
<path d="M59.2244 39.3651L59.66 39.7066L60.0564 40.0215C60.3134 40.2344 60.5616 40.4651 60.8099 40.678C61.3007 41.1156 61.7813 41.5695 62.2517 42.0397C63.1979 42.9812 64.0798 43.9874 64.8913 45.0514C65.7366 46.1418 66.4844 47.3071 67.1259 48.5333C67.8197 49.8246 68.337 51.2065 68.6635 52.6405C68.7572 53.0452 68.8256 53.4556 68.8682 53.8692L68.9117 54.5034V55.1155C68.8793 55.8861 68.7787 56.6521 68.6112 57.4043C68.2945 58.7707 67.8238 60.0954 67.2086 61.3519C66.6286 62.5378 65.9648 63.6792 65.2224 64.7672C64.4966 65.8483 63.6945 66.8742 62.8223 67.8366C62.5864 68.0888 62.2698 68.2467 61.9295 68.2819C61.5892 68.3172 61.2478 68.2273 60.9669 68.0286C60.6861 67.8299 60.4842 67.5354 60.3979 67.1984C60.3116 66.8614 60.3465 66.5041 60.4963 66.191L60.5268 66.1245C61.5805 64.0573 62.4677 61.9064 63.1795 59.693C63.8372 57.5595 64.1508 55.3861 63.6151 53.9934C63.4666 53.5365 63.2846 53.0917 63.0706 52.6627C62.853 52.2055 62.6101 51.7613 62.3432 51.3321C61.7764 50.4208 61.1461 49.5521 60.4571 48.7328C59.7558 47.8901 58.9936 47.074 58.1964 46.2845C57.8001 45.8897 57.395 45.5038 56.9768 45.1312L56.3539 44.5768L56.0447 44.3107L55.7703 44.08L55.6526 43.9824C55.0885 43.4912 54.7332 42.7965 54.6612 42.0442C54.5893 41.2919 54.8063 40.5405 55.2668 39.9477C55.7272 39.3548 56.3953 38.9667 57.1308 38.8646C57.8663 38.7626 58.612 38.9547 59.2113 39.4005L59.2244 39.3651Z" fill="#6F3B79"/>
<path d="M59.6164 66.364L57.8479 66.8075L60.897 69.6329C60.897 69.6329 63.6107 68.391 62.8658 67.0204L62.3518 66.7277C61.5177 66.2595 60.5406 66.1296 59.6164 66.364Z" fill="#FF8B7B"/>
<path d="M56.4062 68.6044L58.5145 70.1347L60.9014 69.6379L57.848 66.8125L56.4062 68.6044Z" fill="#FF8B7B"/>
<path d="M44.6802 16.8548C38.5515 20.6161 31.347 15.5685 25.2184 19.3298C24.6753 14.8943 24.1294 10.444 23.5806 5.97892C29.7092 2.21761 36.9181 7.26521 43.0424 3.50391C43.5883 7.95715 44.1342 12.4074 44.6802 16.8548Z" fill="#6F3B79"/>
<path opacity="0.3" d="M23.5854 5.97871L24.8922 16.8146C29.0999 17.0187 33.4253 18.1808 37.3151 15.7989L36.004 4.96298C31.7962 4.7412 27.4709 3.59241 23.5854 5.97871Z" fill="black"/>
<path d="M28.3812 1.71128C27.1703 1.71128 25.9594 1.59596 24.6744 1.47176C23.3894 1.34757 22.0609 1.21894 20.7542 1.21894V0.775391C22.087 0.775391 23.4156 0.90402 24.7005 1.02821C25.9855 1.15241 27.1834 1.26773 28.3725 1.26773L28.3812 1.71128Z" fill="#6F3B79"/>
<path d="M30.8203 1.50364L30.7419 1.06009C31.7209 0.880791 32.6596 0.521576 33.5122 0L33.7387 0.381454C32.8413 0.933676 31.8522 1.314 30.8203 1.50364Z" fill="#6F3B79"/>
<path d="M35.938 14.6907C29.8138 18.452 22.6049 13.4044 16.4762 17.1657L14.8428 3.81486C20.9671 0.0535485 28.176 5.10115 34.3003 1.33984C34.8462 5.79013 35.3921 10.2404 35.938 14.6907Z" fill="#6F3B79"/>
<path d="M29.9665 127.943C29.7597 127.964 29.5528 127.902 29.3901 127.77C29.2273 127.639 29.1216 127.447 29.0953 127.237L13.8587 3.11858C13.8388 2.90816 13.8999 2.69812 14.0291 2.53266C14.1583 2.3672 14.3454 2.25923 14.5512 2.23147C14.7581 2.21359 14.9638 2.27725 15.1259 2.4093C15.288 2.54136 15.3941 2.73174 15.4224 2.94116L30.6417 127.055C30.6608 127.263 30.6017 127.47 30.4763 127.635C30.3509 127.8 30.1686 127.91 29.9665 127.943Z" fill="#6F3B79"/>
</svg>
