<svg width="26" height="26" viewBox="0 0 26 26" fill="none" xmlns="http://www.w3.org/2000/svg">
<path fill-rule="evenodd" clip-rule="evenodd" d="M16.25 10.8333C16.243 11.9874 15.6245 13.0513 14.625 13.6283C13.6265 14.2346 12.3735 14.2346 11.375 13.6283C10.007 12.8385 9.40504 11.1794 9.94831 9.69606C10.4916 8.21276 12.0227 7.3349 13.5773 7.61545C15.1318 7.896 16.2595 9.25371 16.25 10.8333ZM26 13C26 20.1797 20.1797 26 13 26C5.8203 26 0 20.1797 0 13C0 5.8203 5.8203 0 13 0C16.4478 0 19.7544 1.36964 22.1924 3.80761C24.6304 6.24558 26 9.55219 26 13ZM24.9167 13C24.9193 7.46415 21.1093 2.65546 15.7196 1.39209C10.3298 0.128717 4.77978 2.7434 2.3221 7.70379C-0.135585 12.6642 1.14637 18.6639 5.41667 22.1867L5.4925 22.2408C6.02501 18.5037 9.22512 15.7273 13 15.7273C16.7749 15.7273 19.975 18.5037 20.5075 22.2408L20.5833 22.1867C23.3259 19.9242 24.915 16.5553 24.9167 13Z" fill="#556182"/>
</svg>
