<svg width="23" height="22" viewBox="0 0 23 22" fill="none" xmlns="http://www.w3.org/2000/svg">
<path fill-rule="evenodd" clip-rule="evenodd" d="M5.915 17.8579C6.15318 17.7654 6.41475 17.7806 6.64283 17.9003C8.10808 18.6528 9.78402 19.0767 11.5078 19.0767C16.8325 19.0767 21.0846 15.2296 21.0846 10.5982C21.0846 5.96678 16.8325 2.11964 11.5078 2.11964C6.18315 2.11964 1.93105 5.96678 1.93105 10.5982C1.93105 12.2409 2.45777 13.8094 3.44418 15.1766C3.54924 15.32 3.61864 15.4912 3.64552 15.6734C3.67239 15.8555 3.65581 16.0423 3.59741 16.2152L2.58227 19.1721L5.915 17.8579ZM1.27983 21.9382C1.10728 22.0064 0.920675 22.0184 0.74215 21.9728C0.563626 21.9272 0.400678 21.8258 0.27264 21.6808C0.144602 21.5357 0.0568482 21.3531 0.0197914 21.1545C-0.0172654 20.956 -0.00206996 20.7498 0.0635748 20.5605L1.61502 16.0033C0.583492 14.4314 0.024065 12.5408 0.0156908 10.5982C0.0156908 4.69499 5.19674 0 11.5078 0C17.819 0 23 4.69499 23 10.5982C23 16.5014 17.819 21.1964 11.5078 21.1964C9.63079 21.1964 7.82078 20.7724 6.19272 19.9988L1.27983 21.9382Z" fill="#556182"/>
</svg>
